<svg xmlns="http://www.w3.org/2000/svg" xmlns:xlink="http://www.w3.org/1999/xlink" width="202" height="190"><defs><path id="a" d="M1701.616 4780.602h-3.328l-.832-1.664-.832-.832-1.664-1.664-.832-1.664v-6.657l.832-1.664.832-.832.832-.832 1.664-.832 1.664-.832h3.328l1.664.832 1.664.832.832.832.832.832.832 1.664v6.657l-.832 1.664-.832 1.664-.832.832-1.664.832h-1.664l-1.664.832zm-28.288-30.785v111.49h46.592v-111.49z"/><path id="b" d="M1721.538 4847.758h17.693l6.154 3.077 7.692 3.846 10.77 3.846 11.538 4.616 12.307 3.077 6.154 2.307 6.923 1.539 6.154.769 6.154 1.538h5.385l5.384.77h9.23l4.616-.77h4.616l4.615-1.538 1.539-.77H1850l1.538-1.538 1.539-.769v-1.538l.77-.77.768-8.461v-2.308l-.769-1.538-.77-2.308-2.307-.77 1.539-.768 1.538-.77h1.539l1.538-1.538.77-.77.769-1.538.769-1.538v-1.539l.769-10.769v-3.846l-.77-1.539-1.538-1.538-.769-.77-.77-1.538h1.54l.769-.769 1.538-.77.77-.768.768-1.539.77-.77.769-1.538v-1.538l.77-10.77v-3.844l-.77-1.539-.77-.77-.769-.768-.769-.77-.769-1.538h.77l1.538-.77.769-.769.77-.769.768-1.538.77-.77.769-1.538v-1.538l.77-10.77v-2.308l-.77-1.538-.77-.769-.769-1.538-.769-.77-3.077-1.538-3.077-1.539-3.077-1.538-3.846-.77-3.846-.769-7.692-.769-13.077-1.538-14.616-.77-15.384-.769 2.308-3.077 1.538-4.615 2.308-3.846.769-4.615 1.538-4.616.77-5.384 1.538-9.231.77-8.462.769-7.692v-8.462l-1.539-2.307-.77-1.539-1.538-2.307-1.538-1.539-2.308-.77-2.307-.768h-6.154l-3.077.769-2.308.77-1.538.768-4.616 14.616-2.307 6.923-2.308 6.154-2.308 5.384-2.308 4.616-2.307 3.077-1.539 3.076-3.077 2.308-3.846 4.616-9.23 8.461-13.077 11.538h-16.924"/></defs><use fill="#fff" fill-opacity="0" stroke="#fff" stroke-linecap="round" stroke-linejoin="round" stroke-miterlimit="50" stroke-width="10" xlink:href="#a" transform="translate(-1668 -4686)"/><g clip-path="url(#clip-fb2b34f7-c07f-4918-ace9-433648ad4cc9)" transform="translate(-1668 -4686)"><use fill="#fff" fill-opacity="0" stroke="#fff" stroke-linecap="round" stroke-linejoin="round" stroke-miterlimit="50" stroke-width="10" xlink:href="#b"/></g></svg>