<svg xmlns="http://www.w3.org/2000/svg" xmlns:xlink="http://www.w3.org/1999/xlink" width="207" height="164"><defs><path id="a" d="M1868.152 1386.091l-2.039 1.36-2.038.68-2.718.68h-2.038l-2.039-.68-2.038-.68-2.039-.68-1.359-1.36-1.358-1.36-.68-2.04v-2.039l.68-1.36v-2.04l1.358-1.36 1.36-.68 2.038-.68h3.397v.68l.68.68v2.72l-.68 2.04-.68.68-1.358 1.36-2.039 1.36-2.038.68h-7.475l-.679-.68-.68-.68v-3.4l-.679-3.4v-3.399l-.68-3.4-.679-2.719-.679-3.4-1.359-3.399-1.359-2.72-1.359-3.399-1.359-2.72-2.038-3.399-2.039-2.04-2.038-3.399-2.038-2.04-2.039-2.72-2.718-2.719-2.718-2.04-2.717-2.04-2.718-2.039-3.398-2.04-2.718-2.04-3.397-2.039-3.397-1.36-3.398-1.36-3.397-1.36-3.397-1.359-4.077-.68-3.398-1.36-4.076-.68h-4.077l-3.398-.68-4.076-.68h-9.513l-6.115.68-5.436.68-5.436 1.36-1.359-2.04-1.359-2.039-2.038-2.04-1.359-1.36-2.038-1.36-1.36-.68-3.397-1.359-2.717-1.36-2.039-.68h-2.038l-.68 2.04-1.359 2.04-.68 2.72-1.358 3.399-.68 4.08v6.798l.68 2.04-3.397 2.04-4.077 3.399-4.757 4.08-4.076 4.758-4.757 5.44-4.077 6.119-1.358 2.72-1.36 3.399-2.038 2.72-.68 2.719h-9.512l-.68.68h-1.358l-1.36.68-.679.68-.68.68-.679 1.36v27.875l.68 1.36.68.68.679.68 1.359.68 1.359.679h10.871l.68 2.04.68 2.04 2.717 4.079 2.718 4.079 4.077 4.08 4.077 4.079 4.756 3.4 4.756 3.399 5.436 2.72v26.515h6.795l12.91-17.677 6.115 2.04 6.794.68 6.795.68 6.795.68 6.795-.68 6.794-.68 6.115-.68 6.795-2.04 11.551 17.677h8.154v-26.516l3.397-1.36 3.398-2.04 2.717-1.359 3.398-2.04 2.718-2.72 2.718-2.039 2.038-2.72 2.718-2.72 1.359-2.719 2.038-3.4 2.039-2.719.679-3.4 1.359-3.399.68-3.399 1.358-3.4v-7.478"/><path id="b" d="M1712.712 1373.898h-1.356l-1.356-.678-1.356-.678-.678-.678-.678-.678-1.356-1.355v-6.102l1.356-.678.678-1.356.678-.678 1.356-.678 1.356-.678h2.712l1.356.678 1.356.678 1.356.678.678 1.356.678.678v1.356l.677 1.356-.677 2.034v1.356l-.678 1.355-.678.678-1.356.678-1.356.678-1.356.678h-1.356"/></defs><use fill="#fff" fill-opacity="0" stroke="#fff" stroke-linecap="round" stroke-linejoin="round" stroke-miterlimit="50" stroke-width="10" xlink:href="#a" transform="translate(-1667 -1297)"/><g clip-path="url(#clip-a8afb156-4f3c-4c67-b97e-528a80152271)" transform="translate(-1667 -1297)"><use fill="#fff" fill-opacity="0" stroke="#fff" stroke-linecap="round" stroke-linejoin="round" stroke-miterlimit="50" stroke-width="10" xlink:href="#b"/></g></svg>