<svg xmlns="http://www.w3.org/2000/svg" xmlns:xlink="http://www.w3.org/1999/xlink" width="84" height="81"><defs><path id="a" d="M1454.724 99.081c-8.997 0-17.467-3.504-23.835-9.873-6.37-6.369-9.874-14.827-9.874-23.835 0-8.997 3.505-17.467 9.874-23.835 6.368-6.37 14.826-9.874 23.835-9.874 9.008 0 17.466 3.505 23.835 9.874 6.369 6.368 9.873 14.826 9.873 23.835 0 8.997-3.504 17.466-9.873 23.835s-14.838 9.873-23.835 9.873z"/><path id="b" d="M1454.712 30.946c-19.016 0-34.427 15.41-34.427 34.427 0 19.016 15.411 34.427 34.427 34.427 19.017 0 34.428-15.41 34.428-34.427s-15.411-34.427-34.428-34.427zm0 1.46c4.448 0 8.773.876 12.84 2.594a32.987 32.987 0 0 1 10.479 7.066 32.928 32.928 0 0 1 7.065 10.48 32.778 32.778 0 0 1 2.595 12.838c0 4.46-.876 8.772-2.595 12.839a32.987 32.987 0 0 1-7.065 10.48 32.926 32.926 0 0 1-10.48 7.065 32.78 32.78 0 0 1-12.839 2.594 32.78 32.78 0 0 1-12.838-2.594 32.988 32.988 0 0 1-10.48-7.066 32.927 32.927 0 0 1-7.065-10.48 32.778 32.778 0 0 1-2.595-12.838c0-4.46.876-8.773 2.595-12.839a32.987 32.987 0 0 1 7.065-10.48 32.928 32.928 0 0 1 10.48-7.065 32.861 32.861 0 0 1 12.838-2.594"/><path id="c" d="M1477.851 94.139c8.694-6.975 13.77-17.444 13.77-28.755 0-20.342-16.555-36.898-36.897-36.898-6.088 0-11.985 1.471-17.276 4.29a38.345 38.345 0 0 1 10.491-8.053c5.347-2.786 11.379-4.246 17.444-4.246 10.12 0 19.634 3.942 26.79 11.098 7.154 7.155 11.097 16.668 11.097 26.789 0 4.414-.753 8.727-2.235 12.838a37.513 37.513 0 0 1-6.178 10.963 38.2 38.2 0 0 1-17.006 11.974z"/><path id="d" d="M1465.383 19.736c-12.827 0-24.194 6.256-31.215 15.882a35.975 35.975 0 0 1 20.556-6.414c19.97 0 36.168 16.198 36.168 36.169 0 12.906-6.762 24.228-16.927 30.63C1491.16 92.106 1504 76.73 1504 58.341c0-21.319-17.298-38.605-38.617-38.605zm0 1.46c5.021 0 9.885.977 14.467 2.92a37.107 37.107 0 0 1 11.817 7.964 37.107 37.107 0 0 1 7.964 11.816 37.034 37.034 0 0 1 2.92 14.468c0 4.324-.741 8.559-2.19 12.591a36.967 36.967 0 0 1-6.054 10.75 37.03 37.03 0 0 1-9.166 8.132 37.257 37.257 0 0 1-3.65 2.022c6.907-6.964 10.861-16.388 10.861-26.464 0-20.746-16.882-37.628-37.628-37.628-4.752 0-9.402.887-13.738 2.583a37.015 37.015 0 0 1 7.29-4.976 36.564 36.564 0 0 1 8.166-3.077 36.643 36.643 0 0 1 8.941-1.101"/></defs><use fill="#38ef7d" xlink:href="#a" transform="translate(-1420 -19)"/><use xlink:href="#b" transform="translate(-1420 -19)"/><use xlink:href="#c" transform="translate(-1420 -19)"/><use xlink:href="#d" transform="translate(-1420 -19)"/></svg>