<svg xmlns="http://www.w3.org/2000/svg" xmlns:xlink="http://www.w3.org/1999/xlink" width="678" height="727"><defs><path id="b" d="M784.217 2229.296l-143.492-23.771c-7.315-.866-12.896 2.02-12.03 12.51l26.177 331.736c.577 6.833 10.105 9.143 14.243 7.7l140.124-51.68c4.138-1.445 6.737-5.583 6.352-9.914l-22.52-257.15c-.385-4.812-4.042-8.661-8.854-9.431z"/><path id="d" d="M789.029 2229.296l-147.823-23.675c-4.523-.674-8.47 2.887-8.084 7.41l26.658 337.703c.385 5.004 5.486 8.276 10.201 6.544l144.07-51.392c4.138-1.443 6.737-5.582 6.352-9.912l-22.52-257.247a10.627 10.627 0 0 0-8.854-9.431z"/><path id="e" d="M747.83 2523.654c-2.837-.43-4.647-4.016-4.042-8.01.605-3.994 3.396-6.883 6.234-6.453 2.838.43 4.648 4.016 4.042 8.01-.605 3.994-3.396 6.883-6.233 6.453z"/><path id="f" d="M722.143 2229.296c0 .866.673 1.54 1.443 1.54s1.251-.77 1.251-1.637c0-.866-.673-1.54-1.347-1.54-.866.097-1.444.77-1.347 1.637z"/><path id="g" d="M794.13 2249.121a1.637 1.637 0 0 0-1.444-1.444l-151.673-18.381c-.962-.096-1.828.673-1.732 1.636l23.386 297.474c.096 1.155 1.251 1.925 2.31 1.54l148.785-45.617c.77-.193 1.251-.963 1.155-1.733z"/><path id="i" d="M793.263 2247.196l-152.73-18.478c-.963-.096-1.637.867-1.54 2.31l23.193 297.378c.096 1.444.962 2.406 1.925 2.117l150.229-46.098c.577-.192.962-1.251.866-2.406l-20.788-232.706c0-1.058-.577-2.02-1.155-2.117"/><path id="j" d="M681.53 2321.3c-1.829 0-3.08 1.829-2.983 3.946.192 2.213 1.828 3.946 3.56 3.85l106.344-1.348c1.251 0 2.021-1.54 1.925-3.368-.192-1.829-1.347-3.272-2.598-3.272l-106.248.192"/><path id="k" d="M681.337 2336.987c-.962 0-1.732 1.155-1.54 2.502.097 1.348.963 2.406 2.022 2.406l95.661-2.983c.77 0 1.251-.962 1.155-2.117-.096-1.155-.77-2.118-1.444-2.021l-95.854 2.213"/><path id="l" d="M709.343 2359.026c-.77.096-1.251.962-1.251 2.02.096 1.06.77 1.926 1.54 1.926l59.09-3.561c.578 0 1.059-.866.963-1.829-.096-.962-.674-1.732-1.251-1.732l-59.091 3.176"/><path id="m" d="M710.113 2369.13c-.77.097-1.251.963-1.251 2.118.096 1.059.77 1.925 1.54 1.829l27.813-1.733c.673-.096 1.154-.962 1.058-2.02-.096-1.06-.673-1.83-1.443-1.83l-27.717 1.637"/><path id="n" d="M712.134 2393.094c-.77.096-1.251 1.059-1.251 2.118.096 1.058.77 1.924 1.54 1.828l58.994-6.64c.577-.097 1.059-.963.962-1.925-.096-.963-.673-1.732-1.25-1.636l-58.995 6.255"/><path id="o" d="M712.904 2403.296c-.77.096-1.251 1.058-1.155 2.213.096 1.059.77 1.925 1.54 1.829l27.717-3.176c.673-.096 1.154-1.059 1.058-2.117-.096-1.06-.674-1.829-1.443-1.733l-27.717 2.984"/><path id="p" d="M715.021 2428.125c-.77.096-1.251 1.155-1.155 2.214.096 1.058.77 1.924 1.54 1.732l58.802-9.816c.577-.097 1.059-1.059.962-2.021-.096-.963-.673-1.733-1.25-1.636l-58.899 9.527"/><path id="q" d="M715.791 2438.327c-.77.096-1.251 1.154-1.155 2.213.096 1.059.77 1.925 1.54 1.732l27.62-4.715c.674-.097 1.155-1.059 1.06-2.118-.097-1.058-.675-1.828-1.444-1.636l-27.621 4.524"/><path id="r" d="M717.908 2463.06c-.77.192-1.25 1.251-1.155 2.31.097 1.155.77 1.828 1.54 1.732L777 2454.014c.577-.193 1.059-1.06.962-2.118-.096-.962-.673-1.732-1.25-1.54l-58.803 12.704"/><path id="s" d="M718.678 2473.261c-.77.193-1.251 1.251-1.155 2.31.096 1.155.77 1.829 1.54 1.636l27.524-6.16c.674-.192 1.155-1.154 1.059-2.213-.096-1.058-.674-1.828-1.444-1.636l-27.524 6.063"/><path id="u" d="M790.954 2256.82L651.6 2242.384l4.042 51.777 12.992-12.415.962-.962 1.155-1.059.963.962 7.217 7.122 2.695-2.598 3.946-2.118.192-.096 3.946 2.791 8.373 5.774.577.385 11.742-10.778 3.657.673 1.443.289 15.11 10.009 5.967-10.01 6.351-13.472 8.758 10.2h.096l4.812.674h.097l3.272 3.658 5.389 6.063.096.096 10.202-13.859.192.193 8.47 11.164 2.598-2.021.77-.578 4.234 4.235 1.636 1.636.096.096.289.193 1.347 15.013-138.969-2.695 138.97 2.695-1.348-15.013-2.983-33.588"/><path id="v" d="M793.937 2290.408l1.347 15.013-138.969-2.695-.673-8.565 12.992-12.415 2.117-2.021 8.18 8.084 2.695-2.598 3.946-2.118.192-.096 12.415 8.565.578.385 11.74-10.778 5.101.962 15.11 10.009 5.967-10.009 6.352-13.473 8.757 10.2h.097l4.812.675h.096l8.661 9.816.096.096 10.202-13.858.192.192 8.47 11.164 2.598-2.021.77-.578 5.87 5.871.097.096.192.097"/><path id="x" d="M670.655 2279.629l-1.155 1.058 1.155-1.058.962.962-.962-.962"/><path id="y" d="M670.655 2279.629l-1.155 1.058-.962.963 1.347 2.213 5.39 3.176 6.832 6.737s-.288-1.732-3.176-6.063l-7.217-7.122-1.06-.962"/><path id="A" d="M689.614 2285.596l8.373 5.774-8.373-5.774"/><path id="B" d="M685.668 2282.9l-.192.097.192 2.31 1.925 1.443 1.155 1.252 6.737 3.753 5.293 3.657-2.599-3.753s0-.097-.096-.097l-8.373-5.774-4.042-2.887"/><path id="D" d="M714.059 2281.746l1.443.289 15.11 10.009-15.11-10.01-1.443-.288"/><path id="E" d="M710.402 2280.976v1.636l1.54 3.754 4.33.962 2.984 1.443 14.917 6.448-3.465-3.079-15.11-10.009-1.443-.289-3.753-.866"/><path id="F" d="M743.027 2268.561c1.347 4.908 3.56 9.528 3.56 9.528l10.394 9.816s-2.213-4.715-5.004-9.238h-.096l-8.854-10.106"/><path id="H" d="M760.06 2283.19l5.39 6.063-5.39-6.063"/><path id="I" d="M756.692 2279.436c1.83 3.369 3.561 7.507 3.561 7.507l6.737 5.678s-.77-1.059-1.636-3.368l-5.39-6.063-3.272-3.754"/><path id="K" d="M775.844 2275.683l8.469 11.164-8.469-11.164"/><path id="L" d="M775.844 2275.683c.289 2.695.77 5.1.77 5.1s3.08 2.407 3.465 2.984c.288.577 6.351 6.93 6.544 7.122-.097-.097-1.251-1.925-2.214-4.042l-8.565-11.164"/><path id="N" d="M787.585 2284.152l-.77.577.77-.577m4.235 4.234l1.636 1.637.096.096-.096-.096-1.636-1.637"/><path id="O" d="M787.585 2284.152l-.77.577 2.406 3.176-.096-1.155 4.33 3.273.097.096-.096-.096-1.636-1.637-4.235-4.234"/><path id="P" d="M770.55 2271.93c.386 3.368-1.25 6.063-3.752 5.87-2.503-.192-4.812-3.08-5.197-6.544-.385-3.465 1.347-6.063 3.753-5.87 2.502.192 4.812 3.175 5.197 6.544z"/><path id="Q" d="M697.217 2377.407l-12.415 1.155c-.962.096-1.925-1.058-2.021-2.598l-1.251-15.687c-.096-1.54.577-2.791 1.636-2.887l12.415-.77c.962-.096 1.828 1.058 2.02 2.598l1.252 15.302c0 1.54-.674 2.791-1.636 2.887z"/><path id="R" d="M700.008 2412.438l-12.415 1.829c-.962.192-1.925-.962-2.021-2.502l-1.251-15.784c-.096-1.54.577-2.887 1.636-2.983l12.415-1.443c.962-.097 1.828.962 2.02 2.502l1.252 15.398c0 1.443-.674 2.791-1.636 2.983z"/><path id="S" d="M702.895 2448.24l-12.415 2.501c-.962.193-1.925-.866-2.02-2.406l-1.252-15.783c-.096-1.54.577-2.887 1.636-3.08l12.415-2.117c.962-.192 1.828.963 1.925 2.406l1.25 15.495c.193 1.347-.48 2.79-1.539 2.983z"/><path id="T" d="M705.878 2483.944l-12.318 3.176c-.963.288-1.925-.77-2.021-2.31l-1.251-15.88c-.097-1.54.577-2.983 1.636-3.175l12.414-2.791c.963-.193 1.829.866 1.925 2.31l1.251 15.494c0 1.54-.673 2.887-1.636 3.176z"/><path id="V" d="M1206.417 2377.6c-.193.192-.385.289-.482.481-1.347 1.636-1.636 4.427-2.02 7.795-.386 3.946-.482 7.988-.097 11.934.578 6.16 4.235 44.655 5.582 51.392 1.347 6.64 3.176 24.54 16.36 42.152l.867 1.155c2.79 3.56 6.737 8.565 11.837 7.507 3.946-.77 7.026-4.62 7.796-8.47 2.31-10.682 5.293-26.946-3.176-54.663 0 0-5.197-18.382-13.666-33.106-8.47-14.821-15.398-22.52-17.708-24.926-1.348-1.54-3.272-2.983-5.293-1.251z"/><path id="X" d="M1205.935 2378.177c-1.347 1.636-1.636 4.427-2.02 7.796-.386 3.945-.482 7.987-.097 11.933.578 6.16 4.235 44.655 5.582 51.392 1.347 6.64 3.176 24.54 16.36 42.152-5.581-9.816-9.238-20.98-10.2-25.118-1.252-5.197-1.06-14.724-1.06-17.708 0-2.983 1.926-13.762 3.465-23.77 1.54-10.01 0-21.847-.962-27.718-.962-5.87-4.523-12.51-6.256-14.82-1.54-2.31-1.54-2.599-4.812-4.139z"/><path id="Y" d="M1234.71 2473.358c0-3.296 1.466-5.967 3.273-5.967 1.807 0 3.272 2.671 3.272 5.967 0 3.295-1.465 5.966-3.272 5.966-1.807 0-3.272-2.671-3.272-5.966z"/><path id="Z" d="M807.314 2344.205l-20.21 17.612c-2.021 1.828-4.33 3.368-6.737 4.62l-2.02.962-8.566 4.138.385-.578 4.908-7.41 1.251-1.829c1.636-2.213 3.465-4.234 5.486-5.966l24.54-21.462z"/><path id="ab" d="M847.06 2211.588l-65.73 144.166a39.595 39.595 0 0 1-4.139 7.025l-1.443 1.732-6.063 7.314.096-.673 1.444-8.758.384-2.213c.578-2.695 1.444-5.294 2.503-7.796l65.73-144.166c.482-.962 1.252-1.732 2.214-2.117.963-.385 2.021-.385 3.08.096.77.385 1.347.963 1.829 1.636.577 1.252.673 2.599.096 3.754z"/><path id="ac" d="M771.224 2362.394l-1.54 9.432 6.16-7.315z"/><path id="ad" d="M847.06 2211.588l-65.73 144.166a39.601 39.601 0 0 1-4.139 7.025l-1.443 1.732-6.063 7.315.096-.674c10.009-18.574 71.698-153.116 74.393-160.142.77-1.924 1.732-2.887 2.694-3.08.674 1.156.77 2.503.193 3.658z"/><path id="af" d="M856.3 1923.449l30.411 178.138c.866 5.293-2.406 10.297-7.603 11.549l-39.939 9.335c-4.427 1.058-17.034 2.406-19.536-11.356l-30.893-190.842c-2.213-13.762 6.93-17.13 15.013-16.264l40.42 7.795c6.16.77 11.068 5.485 12.127 11.645z"/><path id="ah" d="M863.421 1921.813l30.412 178.138c.866 5.293-2.406 10.297-7.603 11.548l-45.521 10.683c-6.16 1.444-12.319-2.598-13.281-8.854l-32.432-199.888c-.867-5.39 3.753-10.201 9.142-9.432l47.157 6.16c6.16.77 11.068 5.582 12.126 11.645z"/><path id="ai" d="M858.447 2103.043c-.331-3.92 1.419-7.268 3.908-7.478 2.49-.21 4.776 2.797 5.107 6.716.33 3.92-1.419 7.267-3.908 7.478-2.49.21-4.776-2.797-5.107-6.716z"/><path id="aj" d="M832.336 2096.582l54.375-10.008a2.566 2.566 0 0 0 2.021-2.888l-25.984-149.362c-.193-1.155-1.059-1.925-2.214-2.021l-56.492-5.486c-1.155-.096-2.021.866-1.829 2.021l27.14 165.82c.288 1.25 1.636 2.117 2.983 1.924z"/><path id="ak" d="M827.14 1917.963c.192.578.577.866 1.154.962l6.737.578c.577.096 1.059-.578.866-1.059-.192-.48-.674-.866-1.155-.866l-6.64-.577c-.674-.193-1.155.385-.963.962z"/><path id="am" d="M859.764 1927.298l-57.55-5.39c-1.444-.095-2.407 1.348-2.022 3.273l27.717 168.707c.385 2.117 1.733 3.464 3.176 3.272l56.396-10.394c.289-.096.193-.096.385-.096.962-.481 1.444-2.021 1.155-3.657l-26.562-152.25c-.289-1.829-1.444-3.368-2.695-3.465m-46.772 27.717l-3.946-20.21 49.66 3.85 2.502 12.703.096.096h-.096l1.155 5.967-49.37-2.406"/><path id="an" d="M834.068 2005.156l-11.452.385c-.962 0-1.925-1.155-2.117-2.599l-2.502-15.206c-.29-1.443.288-2.694 1.25-2.694H830.7c.866 0 1.829 1.154 2.021 2.598l2.502 14.917c.193 1.444-.288 2.599-1.155 2.599z"/><path id="ao" d="M839.747 2039.417l-11.357 1.058c-.962.096-1.924-1.058-2.117-2.598l-2.502-15.398c-.289-1.54.289-2.791 1.251-2.791l11.452-.674c.867-.096 1.829 1.059 2.021 2.502l2.503 15.013c.096 1.54-.385 2.791-1.251 2.888z"/><path id="ap" d="M845.617 2074.544l-11.356 1.732c-.962.096-1.829-.962-2.117-2.502l-2.599-15.59c-.288-1.54.289-2.792 1.251-2.888l11.357-1.347c.866-.097 1.828.962 2.02 2.502l2.503 15.206c.289 1.443-.193 2.79-1.059 2.887z"/><path id="aq" d="M860.823 2090.038c-.289.096-.77.674-.674 1.732l20.21-3.753c-.192-.962-.673-1.443-1.058-1.347l-18.478 3.368"/><path id="ar" d="M850.237 2092.54l.192 1.059-14.628 2.695-.193-1.059c-.288-1.54.289-2.887 1.251-3.08l11.357-2.02c.866-.193 1.732.962 2.02 2.405z"/><path id="at" d="M858.706 1938.654l-49.66-3.85 3.946 20.211 49.467 2.31-49.467-2.31-.577-2.79 3.753-4.235.578-.674 2.887 2.79.77-.865 1.25-.77h.097l4.33 2.983.193.193 3.657-3.754 1.829.385 5.678 3.657 1.828-3.657 1.925-4.908 3.561 3.754 1.829.288 3.56 3.657 3.465-5.197.096.097 3.657 4.234.963-.77.288-.192 2.503 2.31-2.406-12.897m2.502 12.704l1.155 5.967-1.155-5.967"/><path id="au" d="M861.304 1951.454l1.155 5.87-49.467-2.309-.577-2.79 3.753-4.235.577-.674 2.888 2.791.77-.866 1.25-.77h.097l4.33 2.983.193.193 3.657-3.754 1.829.385 5.678 3.658 1.828-3.658 1.925-4.908 3.56 3.754 1.83.288 3.56 3.657 3.465-5.197.096.097 3.657 4.234.963-.77.288-.192 2.695 2.213"/><path id="av" d="M816.746 1947.316l-.578.674.481.77 1.829 1.058 2.406 2.31s-.193-.578-1.251-2.117l-2.887-2.695"/><path id="aw" d="M821.75 1948.375l.096.866.674.481.385.481 2.31 1.347 1.924 1.252-.962-1.348v-.096l-4.427-2.983"/><path id="ax" d="M829.93 1947.797v.578l.674 1.347 1.54.385 1.058.481 5.486 2.406-1.347-1.155-5.678-3.657-1.733-.385"/><path id="ay" d="M841.094 1943.274c.674 1.828 1.636 3.56 1.636 3.56l4.138 3.658s-.962-1.732-2.213-3.465l-3.561-3.753"/><path id="az" d="M846.483 1947.22a98.16 98.16 0 0 1 1.636 2.79l2.791 2.118s-.288-.385-.77-1.251l-3.657-3.657"/><path id="aA" d="M853.798 1945.872c.192 1.059.48 1.925.48 1.925s1.348.963 1.444 1.155c.193.192 2.791 2.695 2.791 2.695s-.577-.77-1.058-1.54l-3.658-4.235"/><path id="aB" d="M858.706 1949.048l-.29.193 1.06 1.25-.097-.48 1.829 1.25h.096l-.096-.096-2.502-2.117"/><path id="aC" d="M851.584 1944.429c.289 1.25-.289 2.31-1.251 2.213-.962-.096-1.925-1.155-2.214-2.502-.288-1.251.29-2.31 1.251-2.213.963.096 1.925 1.25 2.214 2.502z"/><path id="aD" d="M843.692 1988.025c-.673 0-1.154.866-.962 1.925.193 1.058.866 1.925 1.54 1.925l18.766-.193c.674 0 1.059-.866.867-1.828-.193-1.06-.867-1.829-1.54-1.829h-18.67"/><path id="aE" d="M845.328 1997.841c-.673 0-1.154.866-.962 1.925.193 1.059.866 1.925 1.54 1.925l12.896-.385c.674 0 1.059-.866.866-1.925-.192-1.058-.866-1.828-1.54-1.828l-12.8.288"/><path id="aF" d="M849.274 2021.227c-.673 0-1.155.963-.962 2.021.192 1.06.866 1.925 1.54 1.829l18.67-1.251c.674 0 1.059-.963.866-1.925-.192-1.059-.866-1.828-1.54-1.828l-18.574 1.154"/><path id="aG" d="M850.91 2031.14c-.673.096-1.155.962-.962 2.021.192 1.059.866 1.925 1.54 1.829l12.8-1.06c.673-.095 1.058-.961.866-2.02-.193-1.059-.866-1.829-1.54-1.829l-12.704 1.059"/><path id="aH" d="M855.049 2055.585c-.674.096-1.06 1.058-.963 2.117.193 1.059.866 1.925 1.54 1.828l18.67-2.406c.674-.096 1.059-.962.866-2.02-.192-1.06-.866-1.829-1.54-1.733l-18.573 2.214"/><path id="aI" d="M856.78 2065.593c-.673.097-1.058 1.06-.961 2.118.192 1.058.866 1.925 1.54 1.828l12.8-1.828c.673-.097 1.058-1.059.865-2.118-.192-1.058-.866-1.828-1.54-1.732l-12.703 1.732"/><path id="aJ" d="M861.593 1964.735l-45.617-1.54c-.963 0-1.444 1.155-1.251 2.695.288 1.54 1.154 2.695 2.117 2.791l45.52 1.155c.77 0 1.252-1.059.963-2.502-.192-1.444-.962-2.599-1.732-2.599"/><path id="aK" d="M846.483 1973.204l-29.545-.577c-.577 0-.962.77-.77 1.732.193.962.77 1.732 1.347 1.732l29.546.385c.48 0 .866-.673.673-1.636-.192-.866-.77-1.636-1.25-1.636"/><path id="aM" d="M1298.902 1871.095l-17.13 260.615c-.481 8.469-8.277 14.628-16.65 13.184l-24.06-4.234-1.058 1.636c-.77 1.155-2.117 1.828-3.464 1.54l-189.11-34.261c-.962-.193-1.347-1.348-.77-2.021l.77-.866-11.452-2.022c-6.16-1.058-10.587-6.448-10.49-12.703l3.08-196.327a12.367 12.367 0 0 1 11.067-12.126l243.965-26.947c8.566-1.059 15.88 5.967 15.302 14.532z"/><path id="aO" d="M1272.918 2166.548l-144.359 193.633c-5.87 7.891-16.36 10.49-25.31 6.351-216.442-100.665-201.525-93.736-207.684-97.008-5.004-2.695-4.138-11.549-1.732-14.629 4.908-6.159 26.273-29.16 122.8-136.659 3.754-4.427 9.625-6.544 15.303-5.582l236.844 34.55c3.849.77 10.778 10.394 4.138 19.344z"/><path id="aQ" d="M1270.897 2156.347l-147.246 198.252c-5.87 7.891-16.36 10.49-25.31 6.351l-92.39-42.922c.193-1.347-.577-2.79-1.925-3.368l-33.683-15.399c-1.251-.577-2.695-.384-3.657.482l-69.292-32.24c-5.197-2.406-6.64-9.143-2.984-13.57l118.76-143.877c3.752-4.427 9.623-6.544 15.301-5.582l238.48 42.056c4.62.867 6.737 6.063 3.946 9.817z"/><path id="aR" d="M1295.726 1870.999l-17.13 260.614c-.481 8.47-8.277 14.629-16.65 13.185l-24.06-4.234-1.058 1.636c-.77 1.155-2.117 1.828-3.464 1.54l-189.11-34.358c-.962-.192-1.347-1.347-.77-2.02l.77-.867-11.452-2.021c-6.16-1.059-10.586-6.448-10.49-12.704l3.08-196.327a12.367 12.367 0 0 1 11.067-12.126l243.965-26.947c8.47-.962 15.784 6.063 15.302 14.629z"/><path id="aS" d="M1002.583 2211.01l94.41 32.625c1.732.578 2.406 2.791 1.251 4.235l-49.082 61.978a4.415 4.415 0 0 1-5.293 1.25l-89.598-40.708c-1.925-.866-2.502-3.369-1.155-5.1l44.27-52.932c1.251-1.444 3.368-2.021 5.197-1.348z"/><path id="aT" d="M1287.642 1873.982l-16.745 252.05c-.096 1.924-1.925 3.368-3.85 3.08l-221.638-35.898-14.34-2.31c-1.635-.288-2.79-1.636-2.79-3.368l2.694-188.436c0-1.636 1.251-3.08 2.984-3.272l222.119-22.616 27.91-2.887c2.02-.096 3.849 1.636 3.656 3.657z"/><path id="aU" d="M1142.707 1878.698c0-1.33.861-2.406 1.924-2.406s1.925 1.077 1.925 2.406c0 1.328-.862 2.406-1.925 2.406-1.063 0-1.924-1.078-1.924-2.406z"/><path id="aV" d="M1256.365 2182.62c-1.059-.77-1.251-2.214-.482-3.272l4.716-6.352c.77-1.059 2.214-1.251 3.272-.481 1.059.77 1.251 2.213.482 3.272l-4.716 6.352c-.77.962-2.31 1.25-3.272.48z"/><path id="aW" d="M1243.084 2200.424c-1.059-.77-1.251-2.213-.482-3.272l4.716-6.352c.77-1.058 2.214-1.25 3.272-.48 1.059.769 1.251 2.213.482 3.271l-4.716 6.352c-.77 1.059-2.214 1.251-3.272.481z"/><path id="aX" d="M1073.222 2195.131l10.49 2.983c.674.193 1.732-.192 2.31-.962l9.046-10.971c.578-.674.482-1.444-.192-1.54l-10.586-2.79c-.674-.193-1.636.192-2.214.961l-8.95 10.78c-.674.673-.578 1.443.096 1.539z"/><path id="aY" d="M1089.102 2199.654l10.97 3.08c.675.192 1.733-.193 2.31-.963l9.24-11.26c.577-.673.48-1.443-.193-1.636l-11.068-2.887c-.673-.192-1.732.193-2.31.963l-9.142 11.067c-.577.77-.481 1.444.193 1.636z"/><path id="aZ" d="M1105.655 2204.37l11.452 3.272c.77.193 1.829-.192 2.406-.962l9.431-11.453c.578-.77.482-1.443-.288-1.636l-11.549-2.983c-.77-.193-1.828.192-2.406.962l-9.239 11.26c-.577.578-.481 1.347.193 1.54z"/><path id="ba" d="M1122.978 2209.278l11.933 3.368c.77.193 1.925-.192 2.502-.962l9.624-11.741c.578-.77.481-1.54-.288-1.732l-12.03-3.176c-.77-.193-1.829.192-2.406.962l-9.432 11.549c-.77.77-.673 1.54.097 1.732z"/><path id="bb" d="M1029.145 2182.716l9.335 2.599c.577.192 1.54-.193 2.117-.867l8.565-10.297c.578-.674.482-1.347-.096-1.444l-9.431-2.502c-.578-.192-1.54.289-2.021.866l-8.47 10.202c-.577.577-.577 1.25 0 1.443z"/><path id="bc" d="M1043.292 2186.662l9.624 2.79c.577.193 1.54-.192 2.117-.865l8.758-10.587c.577-.673.48-1.347-.097-1.54l-9.816-2.598c-.577-.192-1.54.289-2.117.866l-8.662 10.394c-.48.674-.48 1.347.193 1.54z"/><path id="bd" d="M1057.92 2190.8l10.105 2.887c.674.193 1.636-.192 2.214-.866l8.95-10.778c.577-.674.481-1.348-.193-1.54l-10.2-2.695c-.674-.192-1.637.192-2.118.866l-8.758 10.586c-.673.674-.577 1.444 0 1.54z"/><path id="be" d="M1111.236 2184.737l11.357 2.887c.77.193 1.828-.288 2.406-.962l9.239-11.26c.577-.674.48-1.443-.29-1.636l-11.452-2.695c-.673-.192-1.732.289-2.31.963l-9.142 11.067c-.577.77-.481 1.444.192 1.636z"/><path id="bf" d="M1128.463 2189.164l11.838 3.08c.77.192 1.828-.193 2.502-.963l9.431-11.548c.578-.77.481-1.444-.289-1.636l-11.933-2.791c-.77-.193-1.829.289-2.406.962l-9.335 11.356c-.674.674-.578 1.348.192 1.54z"/><path id="bg" d="M1146.364 2193.784l12.318 3.176c.77.192 1.925-.193 2.502-.963l9.624-11.837c.578-.77.481-1.54-.385-1.733l-12.51-2.983c-.77-.192-1.926.289-2.503.962l-9.431 11.55c-.482.865-.385 1.635.385 1.828z"/><path id="bh" d="M1192.173 2183.197l13.474 3.08c.866.193 2.117-.289 2.694-1.059l9.817-12.222c.577-.77.385-1.54-.481-1.732l-13.666-2.887c-.866-.193-2.021.288-2.695 1.058l-9.72 11.934c-.385.77-.289 1.636.577 1.828z"/><path id="bi" d="M1180.72 2200.905l9.817-12.126c.578-.77.481-1.54-.385-1.732l-13.088-3.08c-.77-.192-1.925.289-2.599 1.059l-9.624 11.837c-.577.77-.48 1.54.385 1.733l12.8 3.368c.866.193 2.021-.289 2.695-1.059z"/><path id="bj" d="M1159.26 2158.849l-11.934-2.502c-.77-.193-1.829.288-2.406.962l-9.143 11.164c-.577.674-.48 1.443.29 1.636l11.836 2.695c.77.192 1.829-.29 2.406-.963l9.336-11.356c.577-.674.385-1.444-.385-1.636z"/><path id="bk" d="M1107.868 2147.974l-10.586-2.214c-.674-.096-1.636.29-2.214.963l-8.757 10.49c-.578.674-.482 1.347.192 1.443l10.394 2.406c.674.193 1.636-.288 2.213-.962l8.854-10.682c.674-.674.578-1.348-.096-1.444z"/><path id="bl" d="M1092.085 2144.606l-10.105-2.118c-.674-.096-1.636.29-2.117.963l-8.566 10.297c-.577.674-.48 1.348.193 1.444l10.009 2.31c.673.192 1.636-.29 2.213-.963l8.662-10.49c.48-.673.385-1.25-.289-1.443z"/><path id="bm" d="M1076.88 2141.43l-9.72-2.117c-.578-.097-1.54.288-2.118.962l-8.47 10.105c-.577.674-.48 1.251.097 1.444l9.624 2.213c.577.096 1.54-.289 2.117-.962l8.566-10.298c.673-.577.577-1.251-.097-1.347z"/><path id="bn" d="M1015.575 2178.867l8.95 2.502c.577.192 1.444-.193 2.021-.866l8.47-10.105c.577-.674.48-1.251-.097-1.444l-9.047-2.406c-.577-.192-1.443.289-2.02.866l-8.373 10.01c-.481.576-.481 1.25.096 1.443z"/><path id="bo" d="M1094.78 2180.503l10.874 2.79c.674.193 1.733-.288 2.31-.962l9.143-11.067c.577-.674.481-1.444-.193-1.54l-10.97-2.598c-.674-.193-1.733.288-2.31.962l-8.95 10.875c-.674.674-.578 1.347.095 1.54z"/><path id="bp" d="M1141.455 2155.096l-11.452-2.406c-.674-.193-1.732.288-2.31.962l-9.046 10.971c-.578.674-.481 1.348.289 1.54l11.356 2.599c.77.192 1.828-.29 2.406-.963l9.142-11.164c.482-.673.29-1.347-.385-1.54z"/><path id="bq" d="M1124.325 2151.439l-10.971-2.31c-.674-.193-1.733.289-2.214.962l-8.854 10.683c-.577.673-.48 1.347.193 1.54l10.875 2.502c.673.192 1.732-.289 2.31-.963l8.95-10.875c.48-.673.385-1.347-.289-1.54z"/><path id="br" d="M1002.486 2175.113l8.662 2.406c.577.193 1.444-.192 1.925-.866l8.276-9.912c.481-.674.481-1.252-.096-1.444l-8.758-2.31c-.577-.096-1.443.289-1.925.866l-8.18 9.817c-.48.673-.385 1.25.096 1.443z"/><path id="bs" d="M1008.55 2158.368l8.565 2.213c.577.097 1.444-.288 1.925-.866l8.18-9.816c.481-.578.481-1.251-.096-1.348l-8.662-2.02c-.577-.097-1.443.288-1.925.866l-8.083 9.623c-.482.578-.386 1.155.096 1.348z"/><path id="bt" d="M1062.347 2138.254l-9.431-2.021c-.578-.096-1.444.289-2.021.866l-8.277 9.913c-.481.673-.481 1.25.096 1.347l9.24 2.117c.577.096 1.539-.289 2.02-.866l8.373-10.105c.674-.481.577-1.059 0-1.251z"/><path id="bu" d="M1034.727 2132.48l-8.758-1.829c-.578-.096-1.444.289-1.925.866l-7.988 9.528c-.481.577-.481 1.155.097 1.347l8.661 2.021c.577.096 1.444-.289 1.925-.866l8.084-9.72c.481-.674.481-1.251-.096-1.347z"/><path id="bv" d="M1048.296 2135.27l-9.046-1.924c-.578-.097-1.444.288-1.925.866l-8.18 9.72c-.481.577-.481 1.251.096 1.347l8.95 2.118c.577.096 1.444-.29 2.021-.867l8.277-9.912c.385-.578.385-1.155-.193-1.348z"/><path id="bw" d="M1197.37 2166.933l-12.992-2.79c-.77-.193-1.925.288-2.598 1.058l-9.528 11.741c-.578.77-.481 1.54.385 1.732l12.896 2.984c.866.192 2.02-.29 2.598-1.059l9.72-11.934c.578-.77.385-1.54-.48-1.732z"/><path id="bx" d="M1116.24 2211.588l-16.36-4.716c-.673-.192-1.732.193-2.31.963l-9.238 11.26c-.578.673-.482 1.443.192 1.732l16.072 5.004c.77.193 1.829-.192 2.406-.962l9.431-11.549c.674-.673.578-1.443-.192-1.732z"/><path id="by" d="M1148.096 2230.836l-13.473-4.042c-.77-.193-1.925.192-2.503.962l-3.272 3.946c-.577.77-.481 1.54.289 1.828l13.377 4.139c.77.288 1.925-.193 2.599-.963l3.272-4.042c.673-.77.48-1.636-.289-1.828z"/><path id="bz" d="M1094.395 2205.332l-64.48-18.67c-.578-.192-1.54.193-2.021.866l-8.566 10.298c-.577.673-.48 1.347.097 1.54l63.71 19.825c.673.192 1.732-.193 2.31-.866l9.238-11.26c.482-.77.385-1.54-.288-1.733z"/><path id="bA" d="M1135.104 2217.074l-12.896-3.754c-.77-.192-1.829.193-2.406.963l-9.528 11.644c-.577.77-.481 1.54.193 1.733l12.8 3.946c.77.192 1.924-.193 2.502-.963l9.623-11.837c.578-.674.482-1.54-.288-1.732z"/><path id="bB" d="M1025.199 2185.315l-13.089-3.754c-.577-.192-1.443.193-1.924.866l-8.373 10.01c-.578.673-.481 1.25 0 1.443l12.896 4.042c.577.192 1.444-.193 2.02-.866l8.566-10.201c.578-.674.481-1.348-.096-1.54z"/><path id="bC" d="M992.478 2175.883l-8.18-2.406c-.482-.192-1.348.193-1.83.866l-8.083 9.624c-.481.578-.481 1.251 0 1.348l8.084 2.502c.481.192 1.347-.193 1.925-.866l8.18-9.72c.481-.578.481-1.155-.096-1.348z"/><path id="bD" d="M1007.78 2180.31l-10.972-3.176c-.577-.192-1.347.193-1.924.867l-8.18 9.816c-.482.577-.482 1.251 0 1.444l10.874 3.368c.578.192 1.444-.193 1.925-.866l8.373-10.01c.481-.673.385-1.346-.096-1.443z"/><path id="bE" d="M1239.138 2175.787l-14.244-2.983c-.866-.193-2.117.288-2.79 1.058l-9.913 12.223c-.674.77-.385 1.54.481 1.828l14.147 3.272c.866.193 2.214-.289 2.791-1.058l10.009-12.512c.674-.77.385-1.636-.481-1.828z"/><path id="bF" d="M1223.643 2195.035l-26.754-6.352c-.866-.193-2.021.289-2.695 1.059l-9.816 12.126c-.577.77-.481 1.54.385 1.828l26.466 6.833c.866.193 2.117-.192 2.79-1.058l10.106-12.608c.673-.77.385-1.636-.482-1.828z"/><path id="bG" d="M1167.825 2237.091l-14.051-4.234c-.77-.289-2.02.192-2.598.962l-3.08 3.753c-.674.77-.481 1.636.289 1.829l13.954 4.33c.866.29 2.021-.192 2.695-.962l3.08-3.85c.673-.77.48-1.635-.29-1.828z"/><path id="bH" d="M1208.053 2214.379l-36.09-9.432c-.866-.192-2.02.193-2.598.963l-9.817 12.03c-.577.77-.481 1.54.385 1.828l35.609 10.105c.866.289 2.117-.192 2.79-.962l10.202-12.607c.674-.867.385-1.733-.481-1.925z"/><path id="bI" d="M1188.612 2242.962l-14.724-4.427c-.866-.289-2.021.192-2.695.962l-3.368 4.138c-.674.77-.481 1.636.385 1.925l14.628 4.523c.866.289 2.118-.192 2.791-.962l3.465-4.234c.577-.77.385-1.637-.482-1.925z"/><path id="bJ" d="M974.674 2167.222l23.578 6.64c.577.193 1.347-.192 1.925-.866l8.18-9.72c.481-.577.481-1.251 0-1.347l-23.867-6.256c-.481-.096-1.347.289-1.829.866l-7.891 9.335c-.578.578-.578 1.252-.096 1.348z"/><path id="bK" d="M1049.162 2168.762l9.624 2.502c.578.192 1.54-.289 2.118-.866l8.661-10.394c.577-.674.481-1.347-.192-1.444l-9.72-2.31c-.578-.192-1.54.29-2.118.867l-8.469 10.201c-.577.674-.481 1.347.096 1.444z"/><path id="bL" d="M980.255 2172.322l-7.891-2.31c-.481-.096-1.348.193-1.829.867l-7.988 9.431c-.48.578-.48 1.251 0 1.348l7.796 2.406c.48.192 1.347-.193 1.828-.77l8.084-9.528c.482-.674.482-1.251 0-1.444z"/><path id="bM" d="M1063.79 2172.515l10.01 2.598c.673.193 1.636-.288 2.213-.962l8.758-10.586c.577-.674.481-1.348-.193-1.54l-10.105-2.406c-.673-.193-1.636.289-2.117.962l-8.662 10.394c-.577.77-.577 1.444.097 1.54z"/><path id="bN" d="M1035.112 2165.2l9.238 2.407c.578.192 1.54-.289 2.021-.866l8.47-10.202c.577-.673.48-1.25-.097-1.443l-9.431-2.214c-.578-.096-1.54.289-2.021.866l-8.373 10.01c-.385.673-.385 1.25.193 1.443z"/><path id="bO" d="M1177.93 2162.795l-12.511-2.695c-.77-.192-1.925.289-2.502 1.059l-9.335 11.452c-.578.77-.482 1.444.288 1.636l12.319 2.887c.77.193 1.925-.288 2.502-.962l9.528-11.645c.673-.77.481-1.54-.289-1.732z"/><path id="bP" d="M1040.79 2151.727l-9.047-2.117c-.577-.096-1.444.289-1.925.866l-8.276 9.817c-.481.577-.481 1.25.096 1.347l8.95 2.31c.578.192 1.444-.29 2.021-.867l8.373-10.008c.385-.578.385-1.251-.192-1.348z"/><path id="bQ" d="M999.022 2138.35l12.8 2.984c.577.096 1.347-.29 1.924-.867l7.988-9.527c.481-.578.481-1.155-.096-1.251l-12.992-2.791c-.481-.097-1.348.288-1.829.866l-7.891 9.335c-.385.577-.385 1.155.096 1.251z"/><path id="bR" d="M986.896 2152.786l17.419 4.523c.577.096 1.347-.289 1.925-.866l8.084-9.624c.481-.577.481-1.251-.096-1.347l-17.612-4.139c-.481-.096-1.347.29-1.829.867l-7.891 9.335c-.481.48-.481 1.058 0 1.25z"/><path id="bS" d="M1078.996 2176.46l10.394 2.695c.674.193 1.636-.288 2.214-.962l8.95-10.779c.577-.674.481-1.347-.193-1.54l-10.586-2.502c-.674-.192-1.636.289-2.213.963l-8.854 10.682c-.481.578-.385 1.251.288 1.444z"/><path id="bT" d="M1155.795 2230.354l14.147 4.235c.866.289 2.021-.193 2.695-.962l2.887-3.561c.674-.77.481-1.636-.385-1.829l-14.147-4.042c-.866-.192-2.021.193-2.599.963l-2.79 3.464c-.77.674-.674 1.444.192 1.732z"/><path id="bU" d="M1165.515 2203.215l-12.607-3.272c-.77-.192-1.925.192-2.502.962l-9.624 11.838c-.578.77-.481 1.54.289 1.732l12.415 3.56c.77.193 1.924-.192 2.598-.962l9.72-12.03c.674-.866.481-1.636-.289-1.828z"/><path id="bV" d="M1207.283 2164.43l13.666 2.888c.866.192 2.117-.289 2.694-1.059l4.427-5.485c.578-.77.385-1.54-.48-1.733l-13.763-2.694c-.866-.193-2.02.288-2.695 1.058l-4.33 5.39c-.482.673-.29 1.443.48 1.636z"/><path id="bW" d="M1084.867 2138.927l10.201 2.118c.674.096 1.636-.289 2.214-.963l3.85-4.62c.577-.673.48-1.346-.193-1.443l-10.201-2.02c-.674-.097-1.637.288-2.118.962l-3.85 4.62c-.577.577-.48 1.25.097 1.346z"/><path id="bX" d="M1042.137 2129.977l9.046 1.925c.578.096 1.444-.289 2.021-.866l3.657-4.33c.482-.578.482-1.252-.096-1.348l-9.142-1.829c-.578-.096-1.444.29-1.925.867l-3.561 4.33c-.674.578-.577 1.155 0 1.251z"/><path id="bY" d="M1070.142 2135.848l9.817 2.02c.674.097 1.54-.288 2.117-.961l3.753-4.524c.578-.673.482-1.25-.192-1.443l-9.816-1.925c-.578-.096-1.54.289-2.118.962l-3.753 4.524c-.577.577-.481 1.25.192 1.347z"/><path id="bZ" d="M1055.803 2132.865l9.431 1.924c.578.097 1.54-.288 2.021-.962l3.754-4.427c.577-.674.48-1.251-.097-1.347l-9.43-1.829c-.578-.096-1.54.289-2.022.962l-3.657 4.427c-.578.578-.578 1.155 0 1.252z"/><path id="ca" d="M1028.856 2127.283l8.758 1.828c.577.096 1.443-.289 1.924-.866l3.561-4.33c.482-.578.482-1.156-.096-1.348l-8.758-1.732c-.577-.097-1.443.288-1.924.866l-3.561 4.234c-.481.674-.481 1.251.096 1.348z"/><path id="cb" d="M1187.554 2160.293l13.088 2.694c.866.193 2.021-.288 2.599-1.058l4.33-5.294c.578-.77.385-1.54-.385-1.636l-13.184-2.598c-.866-.193-1.925.289-2.599 1.059l-4.234 5.196c-.674.674-.481 1.444.385 1.637z"/><path id="cc" d="M1249.147 2163.276l-14.34-2.791c-.866-.193-2.117.289-2.79 1.059l-4.428 5.485c-.577.77-.385 1.54.481 1.733l14.34 2.983c.962.192 2.214-.289 2.791-1.059l4.523-5.582c.577-.866.385-1.732-.577-1.828z"/><path id="cd" d="M1011.533 2123.626l12.992 2.694c.578.096 1.348-.288 1.925-.866l3.56-4.234c.482-.578.482-1.155-.095-1.252l-13.089-2.598c-.481-.096-1.347.289-1.828.866l-3.465 4.138c-.577.578-.481 1.155 0 1.252z"/><path id="ce" d="M1150.406 2152.593l11.933 2.503c.77.192 1.829-.289 2.502-1.059l4.139-5.1c.577-.674.481-1.444-.385-1.54l-12.03-2.406c-.77-.193-1.829.288-2.406.962l-4.042 5.004c-.578.77-.481 1.444.289 1.636z"/><path id="cf" d="M1100.361 2142.103l10.587 2.214c.673.096 1.732-.289 2.213-.962l3.946-4.716c.577-.674.481-1.348-.193-1.444l-10.682-2.117c-.674-.096-1.636.289-2.214.962l-3.85 4.716c-.577.578-.48 1.251.193 1.347z"/><path id="cg" d="M1168.595 2156.347l12.51 2.598c.77.193 1.926-.288 2.503-1.058l4.235-5.197c.577-.77.385-1.444-.385-1.636l-12.608-2.503c-.77-.192-1.925.29-2.502 1.06l-4.234 5.1c-.482.77-.29 1.443.48 1.636z"/><path id="ch" d="M1116.337 2145.472l10.971 2.31c.674.192 1.733-.29 2.31-.963l4.042-4.908c.578-.674.481-1.347-.289-1.54l-11.067-2.213c-.674-.097-1.732.288-2.31.962l-3.945 4.812c-.482.77-.386 1.347.288 1.54z"/><path id="ci" d="M1132.986 2148.936l11.453 2.406c.77.193 1.828-.288 2.406-.962l4.138-5.004c.577-.674.481-1.348-.289-1.54l-11.548-2.31c-.77-.096-1.733.289-2.31.962l-4.042 4.909c-.577.673-.481 1.347.192 1.54z"/><path id="cj" d="M1288.893 1872.635l-17.13 255.033c-.096 1.54-1.251 2.598-2.599 2.31L1029.53 2091c-.77-.097-1.348-1.155-1.348-2.31l2.599-190.553c0-1.251.673-2.31 1.443-2.406l254.167-25.985c1.54 0 2.598 1.252 2.502 2.888"/><path id="cl" d="M1089.486 1889.958l-5.389 209.993-54.471-8.854c-.77-.096-1.347-1.155-1.347-2.31l2.598-190.553c0-1.251.674-2.31 1.444-2.406l57.165-5.87"/><path id="cm" d="M1057.824 1924.219c-7.7.48-14.05 10.008-14.244 21.365-.192 11.26 5.775 20.306 13.378 20.21 7.795-.096 14.436-9.528 14.724-21.173.385-11.74-5.967-20.884-13.858-20.402"/><path id="cn" d="M1074.473 1974.648l-34.26-.193c-1.444 0-2.6 2.021-2.6 4.524 0 2.502 1.06 4.523 2.503 4.523l34.26.577c1.54 0 2.888-2.02 2.984-4.715-.096-2.599-1.347-4.716-2.887-4.716"/><path id="co" d="M1070.72 1990.335l-27.62-.674c-.867 0-1.637 1.251-1.637 2.791s.674 2.887 1.54 2.887l27.62.866c.963 0 1.83-1.25 1.83-2.887 0-1.636-.77-2.983-1.733-2.983"/><path id="cp" d="M1268.972 1898.33l-13.089 207.684c-.096 1.732-1.25 2.983-2.598 2.79l-154.463-22.808c-.963-.096-1.636-1.443-1.636-2.887l4.908-173.038c0-1.54.866-2.887 1.828-2.983l162.644-12.03c1.444-.096 2.502 1.348 2.406 3.272"/><path id="cq" d="M1206.898 1990.335l-64.288-2.021c-.673 0-1.25-.866-1.155-1.925 0-1.059.674-1.925 1.348-1.925l64.384 1.732c.77 0 1.443.963 1.347 2.118-.193 1.155-.866 2.117-1.636 2.02z"/><path id="cr" d="M1169.557 1999.766l-27.428-1.54c-.674 0-1.251-.866-1.155-1.924 0-1.06.674-1.925 1.348-1.925l27.428 1.443c.77 0 1.347.963 1.25 2.021 0 1.059-.673 1.925-1.443 1.925z"/><path id="cs" d="M1131.062 2000.825l-11.164-.385c-.866 0-1.54-1.155-1.54-2.502l.481-14.244c0-1.347.77-2.502 1.636-2.502l11.26.096c.867 0 1.636 1.155 1.54 2.599l-.481 14.436c-.096 1.443-.866 2.502-1.732 2.502z"/><path id="ct" d="M1204.973 2027.868l-63.71-4.62c-.674 0-1.251-.962-1.155-1.924 0-1.059.674-1.829 1.348-1.829l63.806 4.33c.77 0 1.444.963 1.347 2.118-.192 1.155-.866 2.021-1.636 1.925z"/><path id="cu" d="M1168.017 2035.567l-27.139-2.695c-.674-.096-1.251-.962-1.155-2.02 0-1.06.674-1.83 1.347-1.83l27.14 2.6c.77.095 1.251.962 1.251 2.02-.096 1.155-.674 2.021-1.444 1.925z"/><path id="cv" d="M1129.81 2035.182l-11.067-.866c-.866-.096-1.54-1.251-1.54-2.599l.482-14.05c0-1.348.77-2.406 1.636-2.406l11.163.577c.867 0 1.636 1.251 1.54 2.598l-.481 14.244c-.096 1.443-.866 2.598-1.732 2.502z"/><path id="cw" d="M1203.048 2065.594l-63.132-7.218c-.674-.097-1.252-.963-1.155-2.021 0-1.06.577-1.829 1.347-1.733l63.133 6.93c.77.096 1.347 1.058 1.347 2.117-.096 1.155-.77 1.925-1.54 1.925z"/><path id="cx" d="M1166.477 2071.657l-26.947-3.754c-.673-.096-1.154-.962-1.154-2.02 0-1.06.577-1.83 1.347-1.733l26.947 3.657c.77.096 1.251.962 1.251 2.021-.096 1.059-.77 1.925-1.444 1.829z"/><path id="cy" d="M1128.56 2069.54l-10.972-1.252c-.866-.096-1.54-1.25-1.443-2.598l.48-13.762c0-1.348.77-2.406 1.637-2.31l11.067 1.058c.867.097 1.54 1.252 1.54 2.599l-.481 14.05c-.096 1.348-.866 2.31-1.829 2.214z"/><path id="cA" d="M1103.922 1907.088c-.962.096-1.828 1.444-1.828 2.984l-1.54 53.412 164.28-1.54 1.54-21.653-1.54 21.653-164.28 1.54.289-8.758 11.26-12.222.866-.866 1.25-1.347.482.577 5.87 6.93 2.695-2.888 3.85-2.502.192-.096 10.972 8.084.577.385 13.473-12.704 5.39.577 4.908 3.176 10.971 7.026 8.854-12.415 10.394-17.42 9.913 11.453h.096l6.64.193h.096l10.683 11.645.096.096 18.67-20.018.193.289 11.453 14.147 4.908-3.272 1.443-.963 8.95 7.603 2.695-41.864c.096-1.924-.962-3.368-2.31-3.272l-162.45 12.03"/><path id="cB" d="M1266.47 1940.29l-1.54 21.654-164.28 1.54.289-8.758 11.26-12.222 2.021-2.213 6.352 7.506 2.694-2.887 3.85-2.502.192-.096 10.972 8.084.577.385 13.473-12.704 5.39.577 15.88 10.202 8.853-12.415 10.394-17.42 9.913 11.453h.096l6.64.193h.097l10.682 11.645.096.096 18.67-20.018.193.289 11.453 14.147 4.908-3.272 1.443-.963 8.95 7.603.482.097"/><path id="cC" d="M1114.22 1940.29l.481.578-.481-.577m-1.251 1.347l-.866.866.866-.866"/><path id="cD" d="M1114.22 1940.29l-1.251 1.348-.866.866.962 2.117 4.33 2.791 5.39 6.352s-.096-1.732-2.213-5.967l-5.871-6.929-.481-.577"/><path id="cE" d="M1127.405 1942.312l-.193.096-.096 2.406 1.636 1.347.962 1.251 6.063 3.465 4.812 3.56-2.117-3.849s0-.096-.096-.192l-10.971-8.084"/><path id="cF" d="M1162.724 1941.83l10.971 7.026-10.97-7.026"/><path id="cG" d="M1152.33 1938.077l-.288 1.829 1.155 4.042 4.523.673 3.08 1.348 16.456 6.351-3.657-3.464-10.971-7.026-4.908-3.176-5.39-.577"/><path id="cH" d="M1192.943 1919.022c.963 5.87 2.984 11.356 2.984 11.356l12.415 11.164s-2.214-5.678-5.294-11.164h-.096l-10.009-11.356"/><path id="cI" d="M1209.689 1930.667c2.02 4.138 3.753 9.239 3.753 9.239l8.758 6.64c0-.096-.866-1.347-1.732-4.234l-10.683-11.645h-.096"/><path id="cJ" d="M1239.427 1922.583l11.452 14.147-11.452-14.147"/><path id="cK" d="M1239.427 1922.583c-.097 3.657.096 6.929.096 6.929s4.523 2.887 5.004 3.56c.385.674 9.143 8.855 9.335 9.047-.096-.096-1.636-2.502-2.887-5.293l-11.548-14.243"/><path id="cL" d="M1257.327 1932.495l-1.444.963 3.465 4.234.096-1.636 6.93 4.042.192.096-.193-.096-9.046-7.603"/><path id="cM" d="M1231.92 1918.444c-.096 4.524-3.272 8.373-6.93 8.566-3.656.192-6.543-3.369-6.447-7.796.096-4.523 3.176-8.373 6.833-8.565 3.657-.289 6.64 3.176 6.544 7.795z"/><path id="cO" d="M994.21 2019.206c3.56-5.87 9.72-8.661 13.666-6.255 2.021 1.155 3.176 3.56 3.465 6.448 1.25-.385 1.828-1.059 3.657-4.235l12.8-24.444c.095-.097.192-.289.288-.385.674-.674 1.636-.866 2.502-.289l4.33 2.598c.867.482 1.156 1.54.867 2.406 0 .193-.096.29-.192.385l-13.281 25.119c-1.059 1.732-3.369 6.063-8.758 9.527-4.523 2.984-7.218 4.235-11.164 4.909-2.79.673-5.485.385-7.506-.77a6.143 6.143 0 0 1-2.695-3.465c-1.059-3.08-.385-7.507 2.021-11.549z"/><path id="cP" d="M1004.026 2019.399a2.882 2.882 0 0 1 .963 4.042l-2.406 4.042a2.882 2.882 0 0 1-4.042.962 2.882 2.882 0 0 1-.963-4.042l2.406-4.042c.77-1.347 2.599-1.828 4.042-.962z"/><path id="cQ" d="M1006.916 2028.723c-.273-.165-.183-.815.202-1.452.384-.637.917-1.02 1.19-.855.273.165.183.815-.202 1.452-.384.637-.917 1.02-1.19.855z"/><path id="cR" d="M995.613 2021.889c-.182-.11-.04-.679.317-1.27.357-.592.794-.982.976-.872.182.11.04.678-.317 1.27-.357.591-.794.982-.976.872z"/><path id="cS" d="M994.21 2019.206c3.56-5.87 9.72-8.661 13.666-6.255 2.021 1.155 3.176 3.56 3.465 6.448 1.25-.385 1.828-1.059 3.657-4.235l12.8-24.444c.095-.097.192-.289.288-.385.674-.674 1.636-.866 2.502-.289l-15.59 28.872c-1.06 1.732-5.101 9.431-5.486 3.176-.385-6.16-2.406-6.833-5.1-7.218-2.696-.482-4.62.77-7.604 3.753-2.887 2.887-4.715 7.025-4.523 12.126-1.155-3.08-.481-7.507 1.925-11.549z"/><path id="cT" d="M1028.182 1990.431c.674-.674 1.636-.866 2.502-.289l4.331 2.599c.866.48 1.155 1.54.866 2.406z"/><path id="cV" d="M952.635 2091.77l8.854 28.968v.097c.288.673 1.058 1.058 1.732.77l4.812-1.444c.674-.193 1.155-.962.962-1.636v-.096l-8.95-29.257c-.192-.674.385-1.444 1.155-1.347 1.251.192 2.599.096 3.946-.289 3.56-1.059 7.218-4.427 8.565-8.277.096-.385.096-.77 0-1.154l-2.31-7.507c-.192-.578-.48-1.059-.962-1.347-3.368-2.503-8.18-3.465-11.645-2.406-3.85 1.155-7.025 5.389-7.603 9.72-.77 4.042-.673 8.565 1.444 15.205z"/><path id="cW" d="M965.723 2075.891a1.251 1.251 0 1 1 2.502 0 1.251 1.251 0 0 1-2.502 0z"/><path id="cX" d="M955.33 2071.08l-.867 2.886c-.192.481-.577.866-1.058.963l-.385.192c-.385.096-.674-.192-.578-.577l1.251-3.272a.868.868 0 0 1 .578-.578l.385-.096c.481-.193.866.096.673.481z"/><path id="cY" d="M961.489 2120.835c.288.673 1.058 1.058 1.732.77l4.812-1.444c.674-.193 1.155-.962.962-1.636z"/><path id="cZ" d="M959.18 2091.386l8.853 28.775h.096c.674-.193 1.155-.962.963-1.636v-.096l-8.95-29.257c-.193-.674.384-1.444 1.154-1.347 1.251.192 2.599.096 3.946-.289 3.56-1.059 7.218-4.427 8.565-8.277.097-.385.097-.77 0-1.154l-.385-1.155c-3.08 4.427-9.816 8.276-13.377 7.506-.866-.192-1.636.385-1.732 1.251 0 1.252.096 3.08.866 5.678z"/><path id="db" d="M707.226 2011.315c.096 1.25-.481 2.406-1.348 2.502-.866.096-1.732-.866-1.828-2.117-.096-1.251.481-2.406 1.347-2.502.866-.097 1.732.866 1.829 2.117zm-23.771-42.345l.385 3.08v.096l3.657 19.632s-4.812 3.657 4.427 16.36c9.239 12.704 10.586 23.195 10.586 29.354 0 6.16-6.16 3.85-6.16 3.85l-7.89 6.351s1.539 8.47 12.799.578a75.069 75.069 0 0 0 2.887-2.118c9.432-7.025 14.532-13.473 15.88-23.29 1.54-10.778-6.545-24.155-13.474-33.394-6.93-9.24-18.285-16.842-23.097-20.5z"/><path id="dd" d="M709.728 1998.034c5.678 9.816 10.875 21.75 5.197 32.529v-.097c-.096.193-.193.674-.578 1.155v.096c-1.25 2.31-4.523 6.448-12.03 5.197-7.314-1.25-11.74-1.732-12.318-7.314-.577-5.582-5.967-7.506-5.967-7.506l-22.231-18.382-15.783-10.394s9.527.866 8.18-1.251c-1.347-2.117-2.598-2.31-6.448-3.465-3.85-1.154-4.234-5.389-4.427-8.276 2.214-.193 5.967-.481 8.662-.193 2.02.193 3.272.963 3.272.963 1.925 1.155 4.812 7.506 7.891 8.661 3.08 1.155 10.202 1.348 16.938 8.854 1.636 1.733 3.176 3.561 5.005 5.005 2.502 2.117 7.025 6.833 12.318 6.255 2.791-.289 5.678-3.272 6.93-4.908 3.175-4.138 3.464-11.067-2.984-18.093-.577-.674-1.251-1.347-1.828-1.925 4.042 3.85 7.218 7.892 10.2 13.089zm-42.73-24.156c0-.866.962-1.444 2.117-1.444 1.155.097 2.021.77 1.925 1.54 0 .866-.962 1.444-2.117 1.444-1.059 0-1.925-.77-1.925-1.54zm15.687-8.758c-3.272-7.122-9.817-5.967-9.817-5.967s-12.318-1.155-20.306 1.155c-7.988 2.31-16.36 10.586-19.729 16.36-3.465 5.775-6.737 10.587-7.314 18.767-.578 8.18.577 14.051-.193 15.591-.77 1.54 2.503 5.197 2.503 5.197s9.046 13.666 9.431 13.666c.385 0 16.938 11.933 18.382 13.088 1.443 1.155 5.966 12.511 9.046 12.126 3.08-.384 2.887-2.117 9.432-1.347 6.544.77 16.938 1.925 23.386-2.695 2.887-2.02 5.485-3.753 7.699-5.485 8.854-6.737 13.57-13.089 14.917-22.52 1.54-10.779-6.545-24.156-13.474-33.395-5.967-7.892-15.302-14.725-20.884-18.767a52.398 52.398 0 0 1-3.08-5.774z"/><path id="df" d="M671.136 1973.974c0 .866-.962 1.444-2.117 1.444-1.155-.097-2.021-.77-1.925-1.54 0-.866.963-1.444 2.117-1.444 1.059.097 1.925.77 1.925 1.54zm-7.218-11.549c-8.084 0-14.147 1.733-17.611 6.93-3.85 5.774-2.888 10.97-2.888 10.97 2.695-.769 16.553-.865 23.194 4.717 6.16-5.775 13.28-11.742 13.473-14.244.193-2.502.193-2.502-.577-3.657-.866-1.058-7.603-4.716-15.59-4.716z"/><path id="dh" d="M688.94 1997.36a5.87 5.87 0 1 1 11.741 0 5.87 5.87 0 0 1-11.74 0z"/><path id="di" d="M643.323 1991.875l-19.055 19.055c-3.561 3.56-3.176 9.624.866 13.57l29.353 29.352c3.946 3.946 10.105 4.331 13.57.866l19.055-19.055c3.56-3.56 3.176-9.624-.866-13.57l-29.353-29.352c-3.946-4.042-10.105-4.427-13.57-.866z"/><path id="dj" d="M671.04 2007.561c-.578-.192-1.155-.096-1.54.29-.674.673-.289 2.213.866 3.368l7.122 7.121c1.155 1.155 2.695 1.54 3.368.866.674-.673.289-2.213-.866-3.368l-7.122-7.122c-.577-.673-1.25-1.058-1.828-1.155z"/><path id="dk" d="M660.261 1994.858l-2.31 2.31c-1.25 1.25-.577 4.042 1.54 6.159 2.118 2.117 4.908 2.79 6.16 1.54l2.31-2.31c1.25-1.251.577-4.042-1.54-6.16-2.118-2.117-4.909-2.79-6.16-1.54z"/><path id="dl" d="M662.41 2000.38c-1.579-1.579-2.097-3.62-1.157-4.56.94-.94 2.98-.421 4.56 1.157 1.578 1.579 2.096 3.62 1.156 4.56-.94.94-2.98.421-4.56-1.157z"/><path id="dm" d="M641.302 1996.494l-15.88 15.88c-2.983 2.983-2.31 8.372 1.444 12.126l27.62 27.62c3.754 3.753 9.144 4.427 12.127 1.444l15.88-15.88c2.983-2.983 2.309-8.373-1.444-12.126l-27.62-27.62c-3.754-3.658-9.24-4.331-12.127-1.444z"/><path id="do" d="M951.865 2376.253h-.193l-48.504 3.56c-5.197.385-10.394 6.545-11.741 13.763l-2.117 11.163-1.348 7.026-26.658 142.337c-1.347 6.929.866 13.377 4.908 15.494 2.214 1.348 5.005 2.021 7.314 2.502l45.81 10.01c9.047 1.54 14.051-2.214 16.553-16.842l29.45-170.054c2.309-13.763-7.507-19.44-13.474-18.96z"/><path id="dp" d="M951.576 2378.37c5.005.385 5.582 4.62 4.812 9.624-3.753 23.29-31.951 179.485-32.24 180.447-1.251 5.197-4.042 8.662-9.335 7.892-4.908-.77-48.504-10.394-49.082-10.586-4.33-1.733-4.33-6.352-3.657-10.779 3.657-21.846 30.027-161.489 30.315-162.451 1.444-5.39 5.293-10.394 8.662-10.971.674-.097 5.582-.578 6.063-.097.289.29.192.77.096 1.444 0 .193-.096.481-.096.77-.578 3.85 1.925 3.85 3.08 3.85 3.08.096 27.716-1.348 28.39-1.444 2.887-.674 3.657-3.176 4.234-5.486.097-.288.097-.577.193-.77.192-.577.577-.77 1.54-.866.577-.192 6.063-.673 7.025-.577z"/><path id="dq" d="M933.29 2382.412c-.192.866-.865 1.636-1.539 1.732-.674 0-1.059-.674-.962-1.54.192-.866.866-1.636 1.443-1.732.77 0 1.155.674 1.059 1.54z"/><path id="dr" d="M927.324 2382.797c-.096.48-.385.866-.77.866l-9.431.577c-.289 0-.482-.288-.482-.77.097-.48.385-.77.77-.866l9.432-.577c.289 0 .481.385.481.77z"/><path id="dt" d="M951.576 2378.37c5.005.385 5.582 4.62 4.812 9.624-3.753 23.29-31.951 179.485-32.24 180.447-1.251 5.197-4.042 8.662-9.335 7.892-4.908-.77-48.504-10.394-49.082-10.586-4.33-1.733-4.33-6.352-3.657-10.779 3.657-21.846 30.027-161.489 30.315-162.451 1.444-5.39 5.293-10.394 8.662-10.971.674-.097 5.582-.578 6.063-.097.289.29.192.77.096 1.444 0 .193-.096.481-.096.77-.578 3.85 1.925 3.85 3.08 3.85 3.08.096 27.716-1.348 28.39-1.444 2.887-.674 3.657-3.176 4.234-5.486.097-.288.097-.577.193-.77.192-.577.577-.77 1.54-.866.577-.192 6.063-.673 7.025-.577z"/><path id="dv" d="M891.908 2426.2l3.176-19.632 53.028-1.348-2.118 14.436.097.096h-.097l-.962 6.737-53.124-.288"/><path id="dw" d="M894.795 2476.437l-10.875-.866c-.866-.096-1.347-1.347-1.058-2.79l2.79-14.822c.29-1.443 1.155-2.598 2.021-2.502l10.875.578c.867 0 1.348 1.25 1.155 2.694l-2.79 15.11c-.29 1.54-1.252 2.598-2.118 2.598z"/><path id="dx" d="M888.251 2511.083l-10.875-1.54c-.866-.096-1.347-1.443-1.059-2.887l2.791-15.013c.29-1.444 1.155-2.599 2.021-2.502l10.875 1.155c.866.096 1.348 1.347 1.059 2.887l-2.887 15.398c-.096 1.54-.963 2.598-1.925 2.502z"/><path id="dy" d="M881.61 2546.884l-10.778-2.117c-.866-.193-1.348-1.54-1.059-2.984l2.887-15.205c.289-1.444 1.155-2.599 2.021-2.406l10.875 1.732c.866.096 1.348 1.444 1.059 2.983l-2.887 15.591c-.289 1.54-1.251 2.598-2.117 2.406z"/><path id="dA" d="M948.112 2405.22l-53.028 1.348-3.176 19.633 53.124.288-53.124-.288.481-2.695 5.005-4.427.866-.77 1.828 2.598 1.059-.962 1.444-.866h.096l3.272 2.791.192.096 5.101-4.138 1.732.289 4.716 3.464 3.368-3.946 4.042-5.485 2.599 3.753 2.02.096 2.792 3.754 6.352-6.063v.096l2.79 4.523 1.54-.962.482-.289 2.31 2.406 2.117-14.244m-2.118 14.436l-.962 6.737.962-6.737"/><path id="dB" d="M946.09 2419.656l-1.058 6.737-53.124-.289.481-2.695 5.005-4.426.866-.77 1.828 2.598 1.059-.962 1.444-.866h.096l3.272 2.79.192.097 5.101-4.139 1.732.29 4.716 3.464 3.368-3.946 4.042-5.486 2.599 3.754 2.021.096 2.79 3.753 6.353-6.063v.096l2.79 4.524 1.54-.963.482-.288 2.406 2.694"/><path id="dC" d="M898.164 2418.309l-.867.77.193.77 1.347.962 1.54 2.214s.096-.578-.481-2.021l-1.732-2.695"/><path id="dD" d="M902.59 2419.079l-.192.866.481.481.289.385 1.828 1.251 1.444 1.251-.481-1.347v-.096l-3.368-2.791"/><path id="dE" d="M911.156 2417.924l-.193.577.193 1.348 1.443.288.963.482 5.004 2.213-1.058-1.155-4.716-3.464-1.636-.29"/><path id="dF" d="M925.014 2412.246c0 1.925.481 3.657.481 3.657l3.369 3.657s-.481-1.829-1.155-3.657l-2.695-3.657"/><path id="dG" d="M929.73 2416.095c.481 1.348.77 2.984.77 2.984l2.406 2.213s-.193-.48-.385-1.347l-2.791-3.85"/><path id="dH" d="M938.873 2413.882a36.508 36.508 0 0 0-.29 2.117s1.252.963 1.348 1.155c.097.193 2.31 2.887 2.406 2.887 0 0-.385-.77-.673-1.732l-2.791-4.427"/><path id="dI" d="M943.685 2417.25l-.482.289.867 1.347.096-.48 1.828 1.347h.097l-.097-.097-2.31-2.406"/><path id="dJ" d="M936.852 2412.534c-.193 1.444-1.251 2.599-2.406 2.599-1.155 0-1.829-1.155-1.636-2.502.192-1.444 1.25-2.599 2.406-2.599 1.154-.096 1.828 1.059 1.636 2.502z"/><path id="dK" d="M910.867 2459.788c-.77 0-1.54.866-1.732 1.925-.193 1.155.192 2.02.962 2.117l21.461 1.347c.77.097 1.636-.866 1.829-2.02.192-1.156-.289-2.118-1.059-2.214l-21.46-1.155"/><path id="dL" d="M908.942 2470.182c-.77-.096-1.54.77-1.732 1.925-.192 1.154.193 2.117.962 2.117l14.436 1.155c.77.096 1.54-.867 1.829-1.925.192-1.155-.289-2.117-1.059-2.214l-14.436-1.058"/><path id="dM" d="M904.323 2494.915c-.77-.096-1.54.77-1.732 1.925-.193 1.155.192 2.117.962 2.213l21.365 2.502c.77.097 1.636-.77 1.829-1.924.192-1.155-.29-2.214-1.06-2.31l-21.364-2.406"/><path id="dN" d="M902.398 2505.405c-.77-.096-1.54.77-1.732 1.925-.193 1.155.192 2.117.962 2.213l14.34 1.925c.77.096 1.54-.77 1.828-1.925.193-1.155-.288-2.213-1.058-2.31l-14.34-1.828"/><path id="dO" d="M897.682 2531.293c-.77-.096-1.54.674-1.732 1.829-.192 1.155.193 2.213.962 2.31l21.27 3.753c.77.096 1.635-.674 1.828-1.925.192-1.155-.289-2.31-1.059-2.406l-21.269-3.56"/><path id="dP" d="M895.758 2541.88c-.77-.097-1.54.673-1.733 1.828-.192 1.155.193 2.214.963 2.31l14.34 2.79c.77.193 1.54-.673 1.828-1.828.192-1.155-.193-2.213-1.059-2.406l-14.34-2.694"/><path id="dQ" d="M940.797 2434.958l-48.793-.866c-.866 0-1.732 1.155-2.02 2.599-.29 1.443.192 2.694 1.058 2.694l48.793 1.251c.962 0 2.021-1.25 2.31-2.79.192-1.637-.385-2.888-1.348-2.888"/><path id="dR" d="M919.432 2444.293l-29.834-.962c-.48 0-1.058.674-1.25 1.636-.193.962.096 1.636.673 1.732l29.834 1.155c.577 0 1.155-.77 1.347-1.732.193-.962-.192-1.829-.77-1.829"/><linearGradient id="a" x1="628.58" x2="815.61" y1="2381.62" y2="2381.62" gradientUnits="userSpaceOnUse"><stop offset="0" stop-color="#059acc"/><stop offset=".99" stop-color="#03c27c"/></linearGradient><linearGradient id="c" x1="632.97" x2="820.34" y1="2381.58" y2="2381.58" gradientUnits="userSpaceOnUse"><stop offset="0" stop-color="#05a8da"/><stop offset=".99" stop-color="#35e6a8"/></linearGradient><linearGradient id="h" x1="623.97" x2="801.74" y1="2236.53" y2="2495.94" gradientUnits="userSpaceOnUse"><stop offset="0" stop-color="#f6547f"/><stop offset="1" stop-color="#fdca9d"/></linearGradient><linearGradient id="t" x1="717.91" x2="726.34" y1="2249.56" y2="2294.15" gradientUnits="userSpaceOnUse"><stop offset="0" stop-color="#f6547f"/><stop offset="1" stop-color="#fdca9d"/></linearGradient><linearGradient id="w" x1="669.55" x2="671.64" y1="2280.19" y2="2280.19" gradientUnits="userSpaceOnUse"><stop offset="0" stop-color="#f6547f"/><stop offset="1" stop-color="#fdca9d"/></linearGradient><linearGradient id="z" x1="689.64" x2="698.06" y1="2288.53" y2="2288.53" gradientUnits="userSpaceOnUse"><stop offset="0" stop-color="#f6547f"/><stop offset="1" stop-color="#fdca9d"/></linearGradient><linearGradient id="C" x1="714.04" x2="730.6" y1="2286.88" y2="2286.88" gradientUnits="userSpaceOnUse"><stop offset="0" stop-color="#f6547f"/><stop offset="1" stop-color="#fdca9d"/></linearGradient><linearGradient id="G" x1="760.01" x2="765.4" y1="2286.2" y2="2286.2" gradientUnits="userSpaceOnUse"><stop offset="0" stop-color="#f6547f"/><stop offset="1" stop-color="#fdca9d"/></linearGradient><linearGradient id="J" x1="775.8" x2="784.25" y1="2281.27" y2="2281.27" gradientUnits="userSpaceOnUse"><stop offset="0" stop-color="#f6547f"/><stop offset="1" stop-color="#fdca9d"/></linearGradient><linearGradient id="M" x1="786.86" x2="793.56" y1="2287.15" y2="2287.15" gradientUnits="userSpaceOnUse"><stop offset="0" stop-color="#f6547f"/><stop offset="1" stop-color="#fdca9d"/></linearGradient><linearGradient id="U" x1="1203.52" x2="1248.83" y1="2438.5" y2="2438.5" gradientUnits="userSpaceOnUse"><stop offset="0" stop-color="#05a8da"/><stop offset=".99" stop-color="#35e6a8"/></linearGradient><linearGradient id="W" x1="1214.16" x2="1216.61" y1="2423.48" y2="2516.28" gradientUnits="userSpaceOnUse"><stop offset="0" stop-color="#059acc"/><stop offset=".99" stop-color="#03c27c"/></linearGradient><linearGradient id="aa" x1="769.72" x2="847.45" y1="2288.91" y2="2288.91" gradientUnits="userSpaceOnUse"><stop offset="0" stop-color="#05a8da"/><stop offset=".99" stop-color="#35e6a8"/></linearGradient><linearGradient id="ae" x1="801.02" x2="870.46" y1="2120.05" y2="1910" gradientUnits="userSpaceOnUse"><stop offset="0" stop-color="#059acc"/><stop offset=".99" stop-color="#03c27c"/></linearGradient><linearGradient id="ag" x1="794.84" x2="893.99" y1="2013.25" y2="2013.25" gradientUnits="userSpaceOnUse"><stop offset="0" stop-color="#05a8da"/><stop offset=".99" stop-color="#35e6a8"/></linearGradient><linearGradient id="al" x1="788.94" x2="887.62" y1="1910.74" y2="2088.82" gradientUnits="userSpaceOnUse"><stop offset="0" stop-color="#f6547f"/><stop offset="1" stop-color="#fdca9d"/></linearGradient><linearGradient id="as" x1="832.01" x2="836.95" y1="1933.73" y2="1950.69" gradientUnits="userSpaceOnUse"><stop offset="0" stop-color="#f6547f"/><stop offset="1" stop-color="#fdca9d"/></linearGradient><linearGradient id="aL" x1="1025.44" x2="1298.97" y1="2000.76" y2="2000.76" gradientUnits="userSpaceOnUse"><stop offset="0" stop-color="#05a8da"/><stop offset=".99" stop-color="#35e6a8"/></linearGradient><linearGradient id="aN" x1="1108.75" x2="1077.37" y1="2334" y2="2178.19" gradientUnits="userSpaceOnUse"><stop offset="0" stop-color="#059acc"/><stop offset=".99" stop-color="#03c27c"/></linearGradient><linearGradient id="aP" x1="892.39" x2="1272.14" y1="2233.52" y2="2233.52" gradientUnits="userSpaceOnUse"><stop offset="0" stop-color="#05a8da"/><stop offset=".99" stop-color="#35e6a8"/></linearGradient><linearGradient id="ck" x1="1016.95" x2="1087.35" y1="1812.61" y2="2109.87" gradientUnits="userSpaceOnUse"><stop offset="0" stop-color="#05a8da"/><stop offset=".99" stop-color="#35e6a8"/></linearGradient><linearGradient id="cz" x1="1173.68" x2="1188.37" y1="1888.72" y2="1944" gradientUnits="userSpaceOnUse"><stop offset="0" stop-color="#05a8da"/><stop offset=".99" stop-color="#35e6a8"/></linearGradient><linearGradient id="cN" x1="991.75" x2="1035.94" y1="2012.59" y2="2012.59" gradientUnits="userSpaceOnUse"><stop offset="0" stop-color="#05a8da"/><stop offset=".99" stop-color="#35e6a8"/></linearGradient><linearGradient id="cU" x1="950.79" x2="973.88" y1="2094.08" y2="2094.08" gradientUnits="userSpaceOnUse"><stop offset="0" stop-color="#05a8da"/><stop offset=".99" stop-color="#35e6a8"/></linearGradient><linearGradient id="da" x1="683.47" x2="720.32" y1="2010.25" y2="2010.25" gradientUnits="userSpaceOnUse"><stop offset="0" stop-color="#05a8da"/><stop offset=".99" stop-color="#35e6a8"/></linearGradient><linearGradient id="dc" x1="625.19" x2="720.31" y1="2006.9" y2="2006.9" gradientUnits="userSpaceOnUse"><stop offset="0" stop-color="#05a8da"/><stop offset=".99" stop-color="#35e6a8"/></linearGradient><linearGradient id="de" x1="643.24" x2="680.11" y1="1973.73" y2="1973.73" gradientUnits="userSpaceOnUse"><stop offset="0" stop-color="#05a8da"/><stop offset=".99" stop-color="#35e6a8"/></linearGradient><linearGradient id="dg" x1="688.95" x2="700.62" y1="1997.34" y2="1997.34" gradientUnits="userSpaceOnUse"><stop offset="0" stop-color="#05a8da"/><stop offset=".99" stop-color="#35e6a8"/></linearGradient><linearGradient id="dn" x1="860.94" x2="965.69" y1="2479.34" y2="2479.34" gradientUnits="userSpaceOnUse"><stop offset="0" stop-color="#05a8da"/><stop offset=".99" stop-color="#35e6a8"/></linearGradient><linearGradient id="ds" x1="861.79" x2="956.7" y1="2477.38" y2="2477.38" gradientUnits="userSpaceOnUse"><stop offset="0" stop-color="#f6547f"/><stop offset="1" stop-color="#fdca9d"/></linearGradient><linearGradient id="du" x1="895.4" x2="901.15" y1="2427" y2="2455.28" gradientUnits="userSpaceOnUse"><stop offset="0" stop-color="#f6547f"/><stop offset="1" stop-color="#fdca9d"/></linearGradient><linearGradient id="dz" x1="897.5" x2="898.24" y1="2427.51" y2="2446.12" gradientUnits="userSpaceOnUse"><stop offset="0" stop-color="#f6547f"/><stop offset="1" stop-color="#fdca9d"/></linearGradient></defs><use fill="url(#a)" xlink:href="#b" transform="translate(-621 -1856)"/><use fill="url(#c)" xlink:href="#d" transform="translate(-621 -1856)"/><use fill="#fff" xlink:href="#e" opacity=".3" transform="translate(-621 -1856)"/><use fill="#fff" xlink:href="#f" opacity=".3" transform="translate(-621 -1856)"/><use fill="#0d667d" xlink:href="#g" transform="translate(-621 -1856)"/><use fill="url(#h)" xlink:href="#i" transform="translate(-621 -1856)"/><use fill="#fff" xlink:href="#j" opacity=".6" transform="translate(-621 -1856)"/><use fill="#fff" xlink:href="#k" opacity=".6" transform="translate(-621 -1856)"/><use fill="#fff" xlink:href="#l" opacity=".6" transform="translate(-621 -1856)"/><use fill="#fff" xlink:href="#m" opacity=".2" transform="translate(-621 -1856)"/><use fill="#fff" xlink:href="#n" opacity=".6" transform="translate(-621 -1856)"/><use fill="#fff" xlink:href="#o" opacity=".2" transform="translate(-621 -1856)"/><use fill="#fff" xlink:href="#p" opacity=".6" transform="translate(-621 -1856)"/><use fill="#fff" xlink:href="#q" opacity=".2" transform="translate(-621 -1856)"/><use fill="#fff" xlink:href="#r" opacity=".6" transform="translate(-621 -1856)"/><use fill="#fff" xlink:href="#s" opacity=".2" transform="translate(-621 -1856)"/><use fill="url(#t)" xlink:href="#u" transform="translate(-621 -1856)"/><use fill="#f7527b" xlink:href="#v" transform="translate(-621 -1856)"/><use fill="url(#w)" xlink:href="#x" transform="translate(-621 -1856)"/><use fill="#ffd4a6" xlink:href="#y" opacity=".4" transform="translate(-621 -1856)"/><use fill="url(#z)" xlink:href="#A" transform="translate(-621 -1856)"/><use fill="#ffd4a6" xlink:href="#B" opacity=".4" transform="translate(-621 -1856)"/><use fill="url(#C)" xlink:href="#D" transform="translate(-621 -1856)"/><use fill="#ffd4a6" xlink:href="#E" opacity=".4" transform="translate(-621 -1856)"/><use fill="#ffd4a6" xlink:href="#F" opacity=".4" transform="translate(-621 -1856)"/><use fill="url(#G)" xlink:href="#H" transform="translate(-621 -1856)"/><use fill="#ffd4a6" xlink:href="#I" opacity=".4" transform="translate(-621 -1856)"/><use fill="url(#J)" xlink:href="#K" transform="translate(-621 -1856)"/><use fill="#ffd4a6" xlink:href="#L" opacity=".4" transform="translate(-621 -1856)"/><use fill="url(#M)" xlink:href="#N" transform="translate(-621 -1856)"/><use fill="#ffd4a6" xlink:href="#O" opacity=".4" transform="translate(-621 -1856)"/><use fill="#ffd9b3" xlink:href="#P" transform="translate(-621 -1856)"/><use fill="#ffd9b3" xlink:href="#Q" transform="translate(-621 -1856)"/><use fill="#ffd9b3" xlink:href="#R" transform="translate(-621 -1856)"/><use fill="#ffd9b3" xlink:href="#S" transform="translate(-621 -1856)"/><use fill="#ffd9b3" xlink:href="#T" transform="translate(-621 -1856)"/><g transform="translate(-621 -1856)"><use fill="url(#U)" xlink:href="#V"/><use fill="url(#W)" xlink:href="#X"/><use fill="#fff" xlink:href="#Y" opacity=".3"/></g><g transform="translate(-621 -1856)"><use fill="#444d89" xlink:href="#Z" opacity=".1"/><use fill="url(#aa)" xlink:href="#ab"/><use fill="#0d667d" xlink:href="#ac" opacity=".3"/><use fill="#aad6ff" xlink:href="#ad" opacity=".2"/></g><g transform="translate(-621 -1856)"><use fill="url(#ae)" xlink:href="#af"/><use fill="url(#ag)" xlink:href="#ah"/><use fill="#fff" xlink:href="#ai" opacity=".3"/><use fill="#0d667d" xlink:href="#aj"/><use fill="#fff" xlink:href="#ak" opacity=".3"/><use fill="url(#al)" xlink:href="#am"/><use fill="#ffd9b3" xlink:href="#an"/><use fill="#ffd9b3" xlink:href="#ao"/><use fill="#ffd9b3" xlink:href="#ap"/><use fill="#fff" xlink:href="#aq" opacity=".6"/><use fill="#ffd9b3" xlink:href="#ar"/><use fill="url(#as)" xlink:href="#at"/><use fill="#f7527b" xlink:href="#au"/><use fill="#ffd4a6" xlink:href="#av" opacity=".4"/><use fill="#ffd4a6" xlink:href="#aw" opacity=".4"/><use fill="#ffd4a6" xlink:href="#ax" opacity=".4"/><use fill="#ffd4a6" xlink:href="#ay" opacity=".4"/><use fill="#ffd4a6" xlink:href="#az" opacity=".4"/><use fill="#ffd4a6" xlink:href="#aA" opacity=".4"/><use fill="#ffd4a6" xlink:href="#aB" opacity=".4"/><use fill="#ffd4a6" xlink:href="#aC"/><use fill="#fff" xlink:href="#aD" opacity=".6"/><use fill="#fff" xlink:href="#aE" opacity=".2"/><use fill="#fff" xlink:href="#aF" opacity=".6"/><use fill="#fff" xlink:href="#aG" opacity=".2"/><use fill="#fff" xlink:href="#aH" opacity=".6"/><use fill="#fff" xlink:href="#aI" opacity=".2"/><use fill="#fff" xlink:href="#aJ" opacity=".6"/><use fill="#fff" xlink:href="#aK" opacity=".6"/></g><g transform="translate(-621 -1856)"><use fill="url(#aL)" xlink:href="#aM"/><use fill="url(#aN)" xlink:href="#aO"/><use fill="url(#aP)" xlink:href="#aQ"/><use fill="#0e718b" xlink:href="#aR"/><use fill="#fff" xlink:href="#aS" opacity=".3"/><use fill="#0d667d" xlink:href="#aT"/><use fill="#fff" xlink:href="#aU" opacity=".3"/><use fill="#0d667d" xlink:href="#aV"/><use fill="#0d667d" xlink:href="#aW"/><g opacity=".3" fill="#fff"><use xlink:href="#aX" opacity=".3"/><use xlink:href="#aY" opacity=".3"/><use xlink:href="#aZ" opacity=".3"/><use xlink:href="#ba" opacity=".3"/><use xlink:href="#bb" opacity=".3"/><use xlink:href="#bc" opacity=".3"/><use xlink:href="#bd" opacity=".3"/><use xlink:href="#be" opacity=".3"/><use xlink:href="#bf" opacity=".3"/><use xlink:href="#bg" opacity=".3"/><use xlink:href="#bh" opacity=".3"/><use xlink:href="#bi" opacity=".3"/><use xlink:href="#bj" opacity=".3"/><use xlink:href="#bk" opacity=".3"/><use xlink:href="#bl" opacity=".3"/><use xlink:href="#bm" opacity=".3"/><use xlink:href="#bn" opacity=".3"/><use xlink:href="#bo" opacity=".3"/><use xlink:href="#bp" opacity=".3"/><use xlink:href="#bq" opacity=".3"/><use xlink:href="#br" opacity=".3"/><use xlink:href="#bs" opacity=".3"/><use xlink:href="#bt" opacity=".3"/><use xlink:href="#bu" opacity=".3"/><use xlink:href="#bv" opacity=".3"/><use xlink:href="#bw" opacity=".3"/><use xlink:href="#bx" opacity=".3"/><use xlink:href="#by" opacity=".3"/><use xlink:href="#bz" opacity=".3"/><use xlink:href="#bA" opacity=".3"/><use xlink:href="#bB" opacity=".3"/><use xlink:href="#bC" opacity=".3"/><use xlink:href="#bD" opacity=".3"/><use xlink:href="#bE" opacity=".3"/><use xlink:href="#bF" opacity=".3"/><use xlink:href="#bG" opacity=".3"/><use xlink:href="#bH" opacity=".3"/><use xlink:href="#bI" opacity=".3"/><use xlink:href="#bJ" opacity=".3"/><use xlink:href="#bK" opacity=".3"/><use xlink:href="#bL" opacity=".3"/><use xlink:href="#bM" opacity=".3"/><use xlink:href="#bN" opacity=".3"/><use xlink:href="#bO" opacity=".3"/><use xlink:href="#bP" opacity=".3"/><use xlink:href="#bQ" opacity=".3"/><use xlink:href="#bR" opacity=".3"/><use xlink:href="#bS" opacity=".3"/><use xlink:href="#bT" opacity=".3"/><use xlink:href="#bU" opacity=".3"/><use xlink:href="#bV" opacity=".3"/><use xlink:href="#bW" opacity=".3"/><use xlink:href="#bX" opacity=".3"/><use xlink:href="#bY" opacity=".3"/><use xlink:href="#bZ" opacity=".3"/><use xlink:href="#ca" opacity=".3"/><use xlink:href="#cb" opacity=".3"/><use xlink:href="#cc" opacity=".3"/><use xlink:href="#cd" opacity=".3"/><use xlink:href="#ce" opacity=".3"/><use xlink:href="#cf" opacity=".3"/><use xlink:href="#cg" opacity=".3"/><use xlink:href="#ch" opacity=".3"/><use xlink:href="#ci" opacity=".3"/></g><use fill="#0d667d" xlink:href="#cj"/><use fill="url(#ck)" xlink:href="#cl"/><use fill="#fff" xlink:href="#cm" opacity=".3"/><use fill="#fff" xlink:href="#cn" opacity=".2"/><use fill="#fff" xlink:href="#co" opacity=".1"/><use fill="#fff" xlink:href="#cp"/><use fill="#dce4f5" xlink:href="#cq"/><use fill="#dce4f5" xlink:href="#cr"/><use fill="#dce4f5" xlink:href="#cs"/><use fill="#dce4f5" xlink:href="#ct"/><use fill="#dce4f5" xlink:href="#cu"/><use fill="#dce4f5" xlink:href="#cv"/><use fill="#dce4f5" xlink:href="#cw"/><use fill="#dce4f5" xlink:href="#cx"/><use fill="#dce4f5" xlink:href="#cy"/><use fill="url(#cz)" xlink:href="#cA"/><use fill="#00a1cc" xlink:href="#cB"/><use fill="#dce4f5" xlink:href="#cC"/><use fill="#0ae9f5" xlink:href="#cD" opacity=".4"/><use fill="#dce4f5" xlink:href="#cE"/><use fill="#0ae9f5" xlink:href="#cE" opacity=".4"/><use fill="#dce4f5" xlink:href="#cF"/><use fill="#0ae9f5" xlink:href="#cG" opacity=".4"/><use fill="#0ae9f5" xlink:href="#cH" opacity=".4"/><use fill="#0ae9f5" xlink:href="#cI" opacity=".4"/><use fill="#dce4f5" xlink:href="#cJ"/><use fill="#0ae9f5" xlink:href="#cK" opacity=".4"/><use fill="#0ae9f5" xlink:href="#cL" opacity=".4"/><use fill="#fff" xlink:href="#cM"/></g><g transform="translate(-621 -1856)"><use fill="url(#cN)" xlink:href="#cO"/><use fill="#0d667d" xlink:href="#cP"/><use fill="#0d667d" xlink:href="#cQ"/><use fill="#0d667d" xlink:href="#cR"/><use fill="#d1dcf0" xlink:href="#cS" opacity=".3"/><use fill="#2caabf" xlink:href="#cT"/><use fill="url(#cU)" xlink:href="#cV"/><use fill="#0d667d" xlink:href="#cW"/><use fill="#0d667d" xlink:href="#cX"/><use fill="#2caabf" xlink:href="#cY"/><use fill="#d1dcf0" xlink:href="#cZ" opacity=".3"/></g><g transform="translate(-621 -1856)"><use fill="url(#da)" xlink:href="#db"/><use fill="url(#dc)" xlink:href="#dd"/><use fill="url(#de)" xlink:href="#df"/><use fill="url(#dg)" xlink:href="#dh"/><use fill="#127994" xlink:href="#di"/><use fill="#0d667d" xlink:href="#dj" opacity=".3"/><use fill="#0d667d" xlink:href="#dk"/><use fill="#127994" xlink:href="#dl"/><use fill="#0d667d" xlink:href="#dm"/></g><g transform="translate(-621 -1856)"><use fill="url(#dn)" xlink:href="#do"/><use fill="#0d667d" xlink:href="#dp"/><use fill="#fff" xlink:href="#dq" opacity=".3"/><use fill="#fff" xlink:href="#dr" opacity=".3"/><use fill="url(#ds)" xlink:href="#dt"/><use fill="url(#du)" xlink:href="#dv"/><use fill="#ffd9b3" xlink:href="#dw"/><use fill="#ffd9b3" xlink:href="#dx"/><use fill="#ffd9b3" xlink:href="#dy"/><use fill="url(#dz)" xlink:href="#dA"/><use fill="#f7527b" xlink:href="#dB"/><use fill="#ffd4a6" xlink:href="#dC" opacity=".4"/><use fill="#ffd4a6" xlink:href="#dD" opacity=".4"/><use fill="#ffd4a6" xlink:href="#dE" opacity=".4"/><use fill="#ffd4a6" xlink:href="#dF" opacity=".4"/><use fill="#ffd4a6" xlink:href="#dG" opacity=".4"/><use fill="#ffd4a6" xlink:href="#dH" opacity=".4"/><use fill="#ffd4a6" xlink:href="#dI" opacity=".4"/><use fill="#ffd4a6" xlink:href="#dJ"/><use fill="#fff" xlink:href="#dK" opacity=".6"/><use fill="#fff" xlink:href="#dL" opacity=".2"/><use fill="#fff" xlink:href="#dM" opacity=".6"/><use fill="#fff" xlink:href="#dN" opacity=".2"/><use fill="#fff" xlink:href="#dO" opacity=".6"/><use fill="#fff" xlink:href="#dP" opacity=".2"/><use fill="#fff" xlink:href="#dQ" opacity=".6"/><use fill="#fff" xlink:href="#dR" opacity=".6"/></g></svg>