<svg xmlns="http://www.w3.org/2000/svg" xmlns:xlink="http://www.w3.org/1999/xlink" width="742" height="719"><defs><path id="a" d="M1213.842 3808.202v3.711c0 1.81-1.539 3.349-3.349 3.349h-12.49c-2.443 14.662-15.205 25.794-30.59 25.794-17.106 0-30.953-13.848-30.953-30.953 0-17.106 13.847-30.953 30.952-30.953 15.386 0 28.057 11.132 30.591 25.794h12.49c1.9-.09 3.349 1.358 3.349 3.258z"/><path id="c" d="M1208.864 3802.772v3.71c0 1.81-1.538 3.35-3.349 3.35h-12.49c-2.443 14.661-15.204 25.793-30.59 25.793-17.106 0-30.953-13.847-30.953-30.952 0-17.106 13.847-30.953 30.953-30.953 15.386 0 28.057 11.132 30.59 25.794h12.49c1.901-.09 3.35 1.448 3.35 3.258z"/><path id="d" d="M1188.953 3804.401c0 6.878-2.625 13.214-6.969 17.92-4.797 5.25-11.766 8.508-19.459 8.508-14.571 0-26.427-11.857-26.427-26.428 0-2.172.271-4.254.724-6.245 2.805-11.585 13.214-20.183 25.703-20.183 14.572 0 26.428 11.857 26.428 26.428z"/><path id="e" d="M1182.708 3816.076a28.09 28.09 0 0 1-.724 6.245c-4.797 5.25-11.766 8.508-19.459 8.508-14.571 0-26.427-11.857-26.427-26.428 0-2.172.271-4.254.724-6.245 4.797-5.25 11.765-8.507 19.458-8.507 14.572 0 26.428 11.856 26.428 26.427z"/><path id="f" d="M1151.484 3798.609a1.9 1.9 0 1 1 3.8 0 1.9 1.9 0 0 1-3.8 0z"/><path id="g" d="M1157.728 3811.28a.815.815 0 1 1 1.63 0 .815.815 0 0 1-1.63 0z"/><path id="h" d="M1161.892 3798.79a.815.815 0 1 1 1.629 0 .815.815 0 0 1-1.63 0z"/><path id="i" d="M1165.602 3802.772a.634.634 0 1 1 1.268 0 .634.634 0 0 1-1.268 0z"/><path id="j" d="M1166.417 3813.542a.634.634 0 1 1 1.267 0 .634.634 0 0 1-1.267 0z"/><path id="l" d="M1174.2 3676.97c0-30.142 24.435-54.576 54.575-54.576 30.141 0 54.575 24.434 54.575 54.575 0 30.141-24.434 54.575-54.575 54.575-30.14 0-54.574-24.434-54.574-54.575z"/><path id="m" d="M1179.993 3676.97c0-26.943 21.84-48.783 48.782-48.783 26.942 0 48.783 21.84 48.783 48.782 0 26.942-21.84 48.783-48.783 48.783-26.941 0-48.782-21.841-48.782-48.783z"/><path id="o" d="M1230.133 3728.92c7.512-17.559 11.585-22.265 9.232-36.655-2.354-14.39-11.314-16.834-15.024-15.839-3.711.905-7.965 3.077-8.417 13.214-.453 10.137 1.9 19.459 4.977 23.622 3.802 5.34 9.594 16.02 9.232 15.657z"/><path id="q" d="M1278.191 3695.07c-11.946-14.933-14.209-20.725-27.966-25.432-13.757-4.706-20.183 2.082-21.088 5.793-.905 3.71-.995 8.507 7.693 13.666 8.689 5.159 18.101 7.512 23.08 6.788 6.606-.815 18.734-.905 18.281-.815z"/><path id="s" d="M1257.194 3625.019c-16.11 10.318-22.083 11.947-28.238 25.07-6.154 13.123-.09 20.273 3.53 21.63 3.62 1.358 8.327 1.902 14.481-6.153 6.064-8.055 9.413-17.197 9.232-22.265-.362-6.697.905-18.825.995-18.282z"/><path id="u" d="M1193.207 3629.273c4.073 18.644 3.439 24.889 13.666 35.206 10.227 10.318 19.006 7.15 21.45 4.254 2.534-2.896 4.706-7.15-.724-15.657-5.43-8.508-12.852-14.753-17.649-16.382-6.335-2.172-17.286-7.512-16.743-7.421z"/><path id="w" d="M1174.02 3683.938c17.92 6.517 22.897 10.318 37.016 7.24 14.21-3.077 16.2-12.218 15.024-15.928-1.086-3.62-3.53-7.784-13.666-7.784-10.137 0-19.368 2.987-23.26 6.154-5.068 4.345-15.477 10.68-15.114 10.318z"/><path id="y" d="M1247.782 3726.566c1.538-18.553 3.891-24.165-2.716-36.745-6.607-12.58-15.657-12.037-18.825-10.046-3.168 1.991-6.426 5.34-3.801 14.843s7.783 17.467 11.766 20.273c5.43 3.801 14.028 11.947 13.576 11.675z"/><path id="A" d="M1281.902 3680.499c-15.657-10.137-19.55-14.843-33.668-14.934-14.119-.09-18.01 8.146-17.739 11.857.272 3.71 1.72 8.145 11.313 10.317 9.684 2.172 19.097 1.358 23.441-.814 5.792-2.896 17.015-6.698 16.653-6.426z"/><path id="C" d="M1240.903 3622.123c-11.766 14.48-16.834 17.83-18.463 31.858-1.63 14.028 6.154 18.825 9.865 18.915 3.71.181 8.327-.814 11.494-10.136 3.168-9.322 3.44-18.825 1.72-23.441-2.263-6.064-4.887-17.649-4.616-17.196z"/><path id="E" d="M1182.98 3645.654c9.503 16.02 10.86 21.993 23.44 28.419 12.58 6.426 19.73.815 21.179-2.625 1.448-3.439 2.172-8.055-5.52-14.3-7.694-6.244-16.473-9.774-21.36-9.774-6.426 0-18.192-1.63-17.74-1.72z"/><path id="G" d="M1181.984 3702.13c18.644.543 24.346 2.534 36.564-4.616 12.218-7.15 11.223-16.291 9.05-19.368-2.171-3.077-5.701-6.155-15.023-2.987s-17.015 8.689-19.64 12.852c-3.44 5.52-11.132 14.571-10.951 14.119z"/><path id="I" d="M1271.856 3708.556c-7.784-16.563-8.508-22.446-20.273-29.958-11.676-7.421-19.188-2.624-20.907.634-1.72 3.258-2.806 7.693 4.073 14.48 6.878 6.789 15.114 11.042 20.001 11.495 6.245.633 17.649 3.349 17.106 3.349z"/><path id="K" d="M1278.372 3652.714c-18.282-.996-23.893-3.077-35.93 3.71-12.128 6.788-11.404 15.748-9.322 18.735 2.081 3.077 5.43 6.154 14.662 3.258 9.231-2.896 16.924-8.145 19.549-12.127 3.53-5.25 11.222-14.029 11.041-13.576z"/><path id="M" d="M1214.928 3623.028c-2.896 18.101-5.611 23.35-.09 36.202 5.52 12.852 14.39 12.942 17.648 11.313 3.258-1.629 6.698-4.706 4.797-14.3-1.9-9.593-6.245-17.648-10.046-20.816-4.887-4.073-12.761-12.67-12.309-12.4z"/><path id="O" d="M1177.097 3671.358c15.929 9.05 20.001 13.395 33.849 12.67 13.847-.723 17.196-8.96 16.743-12.67-.452-3.71-2.081-7.874-11.675-9.503-9.593-1.539-18.735-.272-22.988 2.172-5.521 3.349-16.291 7.693-15.93 7.33z"/><path id="Q" d="M1203.886 3719.96c16.11-8.599 21.993-9.685 28.872-21.813 6.878-12.127 1.629-19.368-1.72-20.906-3.349-1.539-7.783-2.444-14.21 4.796-6.425 7.24-10.226 15.748-10.408 20.545-.362 6.426-2.443 17.83-2.534 17.377z"/><path id="S" d="M1207.235 3728.014c14.752-13.304 20.635-15.929 24.708-30.5 4.073-14.571-3.349-20.816-7.24-21.54-3.892-.724-8.87-.543-13.757 8.779-4.888 9.322-6.698 19.187-5.702 24.346 1.358 6.788 2.172 19.368 1.991 18.915z"/><path id="U" d="M1267.24 3717.154c-4.706-19.278-4.344-25.704-15.205-36.112-10.86-10.408-19.91-6.878-22.445-3.801-2.534 3.077-4.616 7.512 1.267 16.29 5.883 8.69 13.757 15.025 18.825 16.473 6.607 1.9 18.101 7.24 17.558 7.15z"/><path id="W" d="M1278.1 3641.944c-19.639 2.715-26.065 1.538-37.559 11.313-11.494 9.684-8.96 19.096-6.154 21.902 2.805 2.806 7.06 5.43 16.29.453 9.323-4.978 16.382-12.128 18.373-16.925 2.716-6.426 9.141-17.286 9.05-16.743z"/><path id="Y" d="M1215.924 3617.96c-4.345 19.368-7.603 24.98-2.535 39.098 5.069 14.21 14.753 15.024 18.373 13.395 3.62-1.63 7.512-4.707 6.154-15.115-1.357-10.408-5.61-19.549-9.503-23.17-4.977-4.705-12.851-14.57-12.49-14.208z"/><path id="aa" d="M1174.02 3661.04c14.028 14.029 17.015 19.73 31.767 23.08 14.752 3.348 20.545-4.436 21.088-8.418.543-3.982.09-8.87-9.503-13.304-9.594-4.435-19.55-5.702-24.618-4.344-6.697 1.72-19.277 3.167-18.734 2.986z"/><path id="ac" d="M1273.304 3669.095c-14.48-4.616-18.553-7.421-29.686-4.525-11.132 2.896-12.399 10.227-11.403 13.123.995 2.896 3.077 6.064 11.132 5.702 8.055-.362 15.295-2.987 18.282-5.702 3.892-3.439 11.947-8.87 11.675-8.598z"/><path id="ae" d="M1242.894 3633.708c-10.86 10.589-15.295 12.851-18.01 23.984-2.716 11.222 3.167 15.838 6.154 16.29 2.987.453 6.788.182 10.227-7.15 3.44-7.24 4.616-14.933 3.62-18.825-1.176-5.068-2.172-14.752-1.99-14.3z"/><path id="ag" d="M1189.043 3655.61c9.413 11.947 11.133 16.562 21.993 20.454 10.86 3.892 16.02-1.448 16.834-4.435.815-2.896.905-6.697-5.973-10.95-6.879-4.255-14.3-6.155-18.282-5.612-5.34.724-15.024.633-14.572.543z"/><path id="ai" d="M1197.189 3705.931c14.48-4.616 19.459-4.616 26.79-13.485 7.421-8.87 4.253-15.567 1.72-17.287-2.535-1.72-5.974-3.168-12.4 1.81s-10.77 11.313-11.675 15.205c-.996 5.068-4.435 14.119-4.435 13.757z"/><path id="ak" d="M1241.899 3716.973c3.8-14.753 6.426-18.916 2.986-29.867-3.439-10.951-10.86-11.856-13.666-10.68-2.806 1.177-5.883 3.349-5.068 11.404.814 8.055 3.8 15.114 6.607 17.92 3.62 3.71 9.503 11.494 9.14 11.223z"/><path id="am" d="M1257.737 3694.346c-5.43-10.046-6.064-13.757-13.666-18.01-7.603-4.254-12.128-.996-13.033 1.086-.996 2.081-1.539 4.887 2.987 8.87 4.525 3.982 9.865 6.425 12.851 6.516 3.983.18 11.223 1.538 10.861 1.538z"/><path id="ao" d="M1259.91 3659.32c-11.404 0-15.025-1.085-22.265 3.53-7.24 4.616-6.516 10.227-5.159 12.038 1.358 1.81 3.62 3.62 9.232 1.538 5.701-2.081 10.227-5.611 11.765-8.236 1.991-3.44 6.517-9.231 6.426-8.87z"/><path id="aq" d="M1219.272 3642.94c-1.176 11.403-2.715 14.752 1.177 22.535 3.892 7.783 9.412 7.602 11.404 6.426 1.99-1.177 3.982-3.168 2.534-9.05-1.448-5.884-4.526-10.77-6.97-12.58-3.167-2.354-8.416-7.513-8.145-7.332z"/><path id="as" d="M1197.37 3674.435c10.227 5.068 12.942 7.693 21.54 6.788 8.598-.905 10.408-6.245 10.046-8.417-.362-2.172-1.629-4.887-7.602-5.52-6.064-.634-11.675.452-14.21 2.171-3.439 2.082-9.955 5.16-9.774 4.978z"/><path id="au" d="M1215.743 3703.759c9.774-5.974 13.394-6.788 17.196-14.572 3.891-7.783.362-12.127-1.81-12.942-2.173-.814-4.978-1.267-8.69 3.53-3.8 4.706-5.882 10.136-5.791 13.214.09 3.891-.815 11.041-.905 10.77z"/><path id="aw" d="M1241.899 3704.845c.995-11.404 2.353-14.843-1.63-22.536-3.982-7.693-9.593-7.421-11.584-6.154-1.991 1.267-3.892 3.258-2.353 9.14 1.629 5.884 4.797 10.68 7.24 12.49 3.258 2.173 8.598 7.15 8.327 7.06z"/><path id="ay" d="M1262.805 3676.607c-9.593-6.245-11.946-9.05-20.635-9.14-8.688-.091-11.042 4.977-10.86 7.24.18 2.262.995 4.977 6.968 6.335 5.883 1.358 11.676.905 14.39-.453 3.44-1.81 10.409-4.163 10.137-3.982z"/><path id="aA" d="M1237.645 3640.767c-7.24 8.87-10.318 10.951-11.313 19.55-.996 8.597 3.8 11.493 6.064 11.584 2.262.09 5.068-.453 7.059-6.245 1.991-5.792 2.082-11.494 1.086-14.39-1.448-3.711-2.987-10.77-2.896-10.499z"/><path id="aC" d="M1202.167 3655.157c5.792 9.865 6.607 13.486 14.39 17.377 7.693 3.983 12.128.453 13.033-1.629.905-2.081 1.357-4.978-3.349-8.779s-10.046-5.973-13.123-5.973c-4.073.09-11.313-.905-10.951-.996z"/><path id="aE" d="M1201.533 3689.821c11.404.362 14.934 1.539 22.446-2.806 7.512-4.434 6.878-9.955 5.611-11.856-1.358-1.9-3.44-3.71-9.232-1.81s-10.408 5.34-12.037 7.874c-2.262 3.349-6.969 8.87-6.788 8.598z"/><path id="aG" d="M1229.68 3701.496c4.254-8.145 6.336-10.317 5.793-17.286-.543-6.97-4.888-8.508-6.698-8.146-1.81.362-3.982 1.177-4.525 6.064-.543 4.887.181 9.413 1.539 11.494 1.72 2.715 4.072 8.055 3.891 7.874z"/><path id="aI" d="M1254.026 3687.015c-5.249-7.602-6.063-10.498-12.49-13.213-6.425-2.716-9.774.271-10.317 1.99-.634 1.72-.815 4.073 3.168 6.879 3.982 2.806 8.417 4.254 10.86 4.073 3.168-.181 9.051.18 8.78.271z"/><path id="aK" d="M1246.514 3652.533c-8.145 4.344-11.041 4.887-14.48 11.041-3.44 6.155-.815 9.775.905 10.499 1.629.815 3.982 1.177 7.15-2.444 3.258-3.71 5.158-7.964 5.249-10.408.09-3.167 1.086-8.96 1.176-8.688z"/><path id="aM" d="M1215.562 3652.261c1.267 9.141.724 12.128 5.34 17.377 4.525 5.34 8.869 4.073 10.136 2.806 1.267-1.267 2.534-3.258.181-7.603-2.353-4.344-5.611-7.602-7.874-8.507-2.987-1.177-8.055-4.163-7.783-4.073z"/><path id="aO" d="M1204.339 3677.784c8.417 3.801 10.589 5.792 17.558 4.797 6.969-.996 8.236-5.25 7.783-7.06-.362-1.81-1.448-3.892-6.335-4.254-4.887-.362-9.413.724-11.404 2.082-2.534 1.991-7.783 4.616-7.602 4.435z"/><path id="aQ" d="M931.827 3627.734c1.448 3.53-1.448 7.331-5.612 7.331h-76.929c-4.164 0-7.06-3.801-5.612-7.33 1.539-3.802 3.44-8.508 4.978-12.853 3.258-9.322 7.784-27.151 9.594-41.994.271-2.534 2.624-4.435 5.34-4.435h48.33c2.715 0 4.977 1.81 5.34 4.254 2.443 14.933 6.063 32.853 9.321 42.175 1.81 4.345 3.711 9.05 5.25 12.852z"/><path id="aR" d="M1111.209 3615.787H664.383v-2.534l41.451-7.693c120.825-22.445 244.637-22.355 365.462.181l40.003 7.512v2.534z"/><path id="aT" d="M1111.209 3613.706H664.383v-2.534l41.451-7.693c123.993-22.989 241.47-22.898 365.462.18l40.003 7.513v2.534z"/><path id="aV" d="M862.318 3593.342s-5.61-13.123-3.891-22.174c.271-1.538 2.624-2.715 5.34-2.715h48.33c2.715 0 4.977 1.086 5.34 2.625 2.443 9.14-4.073 22.264-4.073 22.264z"/><path id="aW" d="M897.435 3576.327c0 .181 0 .362-.09.634-.725 1.9-4.707 3.439-9.504 3.439s-8.87-1.448-9.503-3.44c-.09-.18-.09-.361-.09-.633 0-2.263 4.344-4.073 9.593-4.073 5.25 0 9.594 1.81 9.594 4.073z"/><path id="aX" d="M878.338 3576.87c0-1.9 4.255-3.44 9.503-3.44s9.503 1.54 9.503 3.44-4.255 3.44-9.503 3.44-9.503-1.54-9.503-3.44z"/><path id="aZ" d="M1109.58 3666.109H665.56c.633-.815 1.357-1.358 2.353-1.81l1.538-.272 35.569-3.44c120.825-12.127 244.636-12.037 365.461.091l35.84 3.258 1.358.453a6.842 6.842 0 0 1 1.9 1.72z"/><path id="bb" d="M935.266 3731.363c1.629 4.163-1.539 8.598-6.064 8.598h-83.265c-4.525 0-7.693-4.435-6.064-8.598 1.72-4.435 3.801-10.046 5.43-15.205 3.892-11.947 6.336-13.033 6.336-43.533H923.5c0 30.5 2.444 31.586 6.336 43.533 1.629 5.25 3.71 10.77 5.43 15.205z"/><path id="bd" d="M1109.76 3672.534l-21.268 31.949-4.526 6.788a10.273 10.273 0 0 1-8.507 4.525H699.68c-3.44 0-6.607-1.72-8.508-4.525l-4.525-6.788-21.269-31.949c-1.448-2.172-1.176-4.706.181-6.425.634-.815 1.358-1.358 2.354-1.81.633-.272 1.357-.363 2.081-.363h435.15c.906 0 1.72.181 2.444.543.815.362 1.448.905 1.992 1.63 1.357 1.72 1.629 4.344.18 6.425z"/><path id="be" d="M1109.76 3672.534l-21.268 31.949H686.647l-21.269-31.949c-1.448-2.172-1.176-4.706.181-6.425.634-.815 1.358-1.358 2.354-1.81.633-.272 1.357-.363 2.081-.363h435.15c.906 0 1.72.181 2.444.543.815.362 1.448.905 1.992 1.63 1.357 1.72 1.629 4.344.18 6.425z"/><path id="bf" d="M792.81 3833.815v-61.634a3.63 3.63 0 0 1 3.62-3.62l186.804.452a3.63 3.63 0 0 1 3.62 3.62l-3.53 61.182a3.63 3.63 0 0 1-3.62 3.62H796.34c-1.991 0-3.53-1.629-3.53-3.62z"/><path id="bh" d="M788.375 3832.096v-62.992a3.63 3.63 0 0 1 3.62-3.62h185.446a3.63 3.63 0 0 1 3.62 3.62v62.992a3.63 3.63 0 0 1-3.62 3.62H791.905c-1.991-.09-3.53-1.63-3.53-3.62z"/><path id="bi" d="M953.548 3824.674h9.232c.543 0 .995.453.995.996v2.624c0 .544-.452.996-.995.996h-9.232c-.543 0-.996-.452-.996-.996v-2.624c.09-.543.453-.996.996-.996zm.09-6.154h9.232c.543 0 .996.452.996.995v2.444c0 .543-.453.996-.996.996h-9.231c-.544 0-.996-.453-.996-.996v-2.444c0-.543.452-.995.996-.995zm-13.213 5.973h9.231c.543 0 .996.453.996.996v2.805c0 .544-.453.996-.996.996h-9.231c-.543 0-.996-.452-.996-.996v-2.805c0-.634.453-.996.996-.996zm-1.991-8.236c-.543 0-.996-.452-.996-.995v-8.508c0-.543.453-.995.996-.995h8.598c.543 0 .995.452.995.995v8.508c-.09.633-.543.995-1.086.995zm5.249-13.938v-8.507c0-.543.452-.996.995-.996h8.599c.543 0 .995.453.995.996v8.507c0 .543-.452.996-.995.996h-8.599c-.543-.09-.995-.453-.995-.996zm-11.856.905c-.543 0-.996-.452-.996-.995v-8.508c0-.543.453-.995.996-.995h8.507c.543 0 .996.452.996.995v8.508c0 .543-.453.995-.996.995zm-4.797 15.567h9.232c.543 0 .995.453.995.996v8.417c0 .543-.452.996-.995.996h-9.232c-.543 0-.996-.453-.996-.996v-8.417c0-.543.453-.996.996-.996zm-2.444-11.946c0-.543.453-.996.996-.996h8.507c.543 0 .996.453.996.996v8.417c0 .543-.453.995-.996.995h-8.507c-.543 0-.996-.452-.996-.995zm-2.353 0v8.417c0 .543-.452.995-.995.995h-8.508c-.543 0-.996-.452-.996-.995v-8.417c0-.543.453-.996.996-.996h8.508c.543 0 .995.453.995.996zm-16.11-3.62c-.543 0-.995-.453-.995-.996v-8.417c0-.543.452-.996.995-.996h8.508c.543 0 .995.453.995.996v8.417c0 .543-.452.995-.995.995zm12.852-10.409h8.507c.544 0 .996.453.996.996v8.507c0 .543-.452.996-.996.996h-8.507c-.543 0-.996-.453-.996-.996v-8.507c0-.543.453-.996.996-.996zm-8.508 25.975h12.219c.543 0 .995.453.995.996v8.417c0 .543-.452.996-.995.996h-12.219c-.543 0-.995-.453-.995-.996v-8.417c0-.543.452-.996.995-.996zm-11.584-3.53v-8.416c0-.543.452-.996.995-.996h8.508c.543 0 .995.453.995.996v8.417c0 .543-.452.995-.995.995h-8.508c-.543 0-.995-.452-.995-.995zm-27.876-8.416v8.417c0 .543-.453.995-.996.995h-8.507c-.543 0-.996-.452-.996-.995v-8.417c0-.543.453-.996.996-.996h8.507c.543 0 .996.453.996.996zm-7.512-3.62h-8.417c-.543 0-.996-.453-.996-.996v-8.417c0-.543.453-.996.996-.996h8.508c.543 0 .995.453.995.996v8.417c-.09.543-.543.995-1.086.995zm3.349-9.413c0-.543.452-.996.995-.996h8.508c.543 0 .995.453.995.996v8.417c0 .543-.452.995-.995.995h-8.508c-.543 0-.995-.452-.995-.995zm16.924 13.033v8.417c0 .543-.452.995-.995.995h-8.508c-.543 0-.995-.452-.995-.995v-8.417c0-.543.452-.996.995-.996h8.508c.543 0 .995.453.995.996zm-3.258-14.029h8.508c.543 0 .995.453.995.996v8.417c0 .543-.452.995-.995.995h-8.508c-.543 0-.995-.452-.995-.995v-8.417c.09-.543.543-.996.995-.996zm16.02 14.029v8.417c0 .543-.453.995-.996.995h-8.508c-.543 0-.995-.452-.995-.995v-8.417c0-.543.452-.996.995-.996h8.508c.634 0 .996.453.996.996zm-3.168-14.029h8.507c.543 0 .996.453.996.996v8.417c0 .543-.453.995-.996.995h-8.507c-.543 0-.996-.452-.996-.995v-8.417c0-.543.453-.996.996-.996zm-42.447 26.88c0-.543.452-.995.995-.995l54.304.09c.543 0 .995.453.995.996v8.417c0 .543-.452.996-.995.996l-54.213-.091c-.543 0-.996-.452-.996-.996zm-3.077-4.434v-8.417c0-.543.452-.996.995-.996h8.417c.543 0 .996.453.996.996v8.417c0 .543-.453.995-.996.995h-8.417c-.543-.09-.995-.543-.995-.995zm-2.354-8.417v8.417c0 .543-.452.995-.995.995h-8.417c-.543 0-.996-.452-.996-.995v-8.417c0-.543.453-.996.996-.996h8.417c.633 0 .995.453.995.996zm-7.421-3.62h-8.417c-.543 0-.996-.453-.996-.996v-8.417c0-.543.453-.996.996-.996h8.417c.543 0 .995.453.995.996v8.417c0 .543-.452.995-.995.995zm3.258-9.413c0-.543.453-.996.996-.996h8.417c.543 0 .995.453.995.996v8.417c0 .543-.452.995-.995.995h-8.417c-.543 0-.996-.452-.996-.995zm-7.06 25.885c0-.544.453-.996.996-.996h12.31c.542 0 .995.452.995.996v8.416c0 .544-.453.996-.996.996h-12.309c-.543 0-.995-.452-.995-.996zm-11.765-4.526v-8.417c0-.543.453-.995.996-.995h8.417c.543 0 .995.452.995.995v8.417c0 .543-.452.996-.995.996h-8.417c-.543 0-.996-.453-.996-.996zm2.896-11.947h-8.417c-.543 0-.995-.452-.995-.995v-8.417c0-.543.452-.996.995-.996h8.417c.543 0 .996.453.996.996v8.417c-.09.543-.453.995-.996.995zm-6.154 16.382c0-.543.452-.996.995-.996h10.861c.543 0 .996.453.996.996v8.417c0 .543-.453.996-.996.996h-10.86c-.544 0-.996-.453-.996-.996zm-12.67 0c0-.543.452-.996.995-.996h8.417c.543 0 .995.453.995.996v8.417c0 .543-.452.996-.995.996h-8.417c-.543 0-.996-.453-.996-.996zm-3.26-.996c.544 0 .996.453.996.996v8.417c0 .543-.452.996-.995.996h-8.417c-.543 0-.996-.453-.996-.996v-8.417c0-.543.453-.996.996-.996zm15.84-12.76c.542 0 .995.452.995.995v8.417c0 .543-.453.995-.996.995h-24.346c-.543 0-.995-.452-.995-.995v-8.417c0-.543.452-.996.995-.996zm-6.517-12.943c.543 0 .996.452.996.995v8.417c0 .543-.453.996-.996.996H794.8c-.543 0-.995-.453-.995-.996v-8.417c0-.543.452-.995.995-.995zm-3.892-16.563c0 .543-.452.996-.995.996H794.71c-.543 0-.996-.453-.996-.996v-2.986c0-.543.453-.996.996-.996h13.033c.543 0 .995.453.995.996zm12.67 0c0 .543-.452.996-.995.996h-8.417c-.543 0-.995-.453-.995-.996v-2.986c0-.543.452-.996.995-.996h8.417c.543 0 .996.453.996.996zm12.762 0c0 .543-.452.996-.995.996h-8.417c-.543 0-.996-.453-.996-.996v-3.077c0-.543.453-.995.996-.995h8.417c.543 0 .995.452.995.995zm12.671 0c0 .543-.453.996-.996.996h-8.417c-.543 0-.995-.453-.995-.996v-3.077c0-.543.452-.995.995-.995h8.417c.543 0 .996.452.996.995zm12.761 0c0 .543-.452.996-.995.996h-8.417c-.543 0-.996-.453-.996-.996v-3.077c0-.543.453-.995.996-.995h8.507c.543 0 .996.452.996.995zm11.766.996h-8.508c-.543 0-.995-.453-.995-.996v-3.077c0-.543.452-.995.995-.995h8.508c.543 0 .996.452.996.995v3.077c0 .543-.453.996-.996.996zm13.757-.996c0 .543-.453.996-.996.996h-8.507c-.543 0-.996-.453-.996-.996v-3.077c0-.543.453-.995.996-.995h8.507c.543 0 .996.452.996.995zm12.852 0c0 .543-.453.996-.996.996h-8.507c-.544 0-.996-.453-.996-.996v-3.077c0-.543.452-.995.996-.995h8.507c.543 0 .996.452.996.995zm11.765.905h-8.507c-.543 0-.996-.452-.996-.995v-3.077c0-.543.453-.996.996-.996h8.507c.543 0 .996.453.996.996v3.077c0 .633-.453.995-.996.995zm12.852 0h-8.507c-.543 0-.996-.452-.996-.995v-3.077c0-.543.453-.996.996-.996h8.507c.543 0 .996.453.996.996v3.077c0 .633-.453.995-.996.995zm12.942 0h-8.507c-.543 0-.996-.452-.996-.995v-3.077c0-.543.453-.996.996-.996h8.507c.543 0 .996.453.996.996v3.077c-.09.543-.453.995-.996.995zm12.852 0h-8.598c-.543 0-.995-.452-.995-.995v-3.077c0-.543.452-.996.995-.996h8.598c.543 0 .996.453.996.996v3.077c0 .543-.453.995-.996.995zm12.943 0h-8.599c-.543 0-.995-.452-.995-.995v-3.077c0-.543.452-.996.995-.996h8.599c.543 0 .995.453.995.996v3.077c-.09.543-.452.995-.995.995zm12.851 0h-8.598c-.543 0-.995-.452-.995-.995v-3.077c0-.543.452-.996.995-.996h8.598c.543 0 .996.453.996.996v3.077c0 .543-.453.995-.996.995zm-165.444 12.038c0 .543-.452.995-.995.995H794.71c-.543 0-.996-.452-.996-.995v-8.417c0-.543.453-.996.996-.996h13.033c.543 0 .995.453.995.996zm12.67 0c0 .543-.452.995-.995.995h-8.417c-.543 0-.995-.452-.995-.995v-8.417c0-.543.452-.996.995-.996h8.417c.543 0 .996.453.996.996zm12.762 0c0 .543-.452.995-.995.995h-8.417c-.543 0-.996-.452-.996-.995v-8.417c0-.543.453-.996.996-.996h8.417c.543 0 .995.453.995.996zm12.671 0c0 .543-.453.995-.996.995h-8.417c-.543 0-.995-.452-.995-.995v-8.417c0-.543.452-.996.995-.996h8.417c.543 0 .996.453.996.996zm12.761 0c0 .543-.452.995-.995.995h-8.417c-.543 0-.996-.452-.996-.995v-8.417c0-.543.453-.996.996-.996h8.507c.543 0 .996.453.996.996zm11.766.995h-8.508c-.543 0-.995-.452-.995-.995v-8.417c0-.543.452-.996.995-.996h8.508c.543 0 .996.453.996.996v8.417c0 .543-.453.995-.996.995zm12.761-.09h-8.507c-.543 0-.996-.453-.996-.996v-8.417c0-.543.453-.995.996-.995h8.507c.543 0 .996.452.996.995v8.417c0 .634-.453.996-.996.996zm12.852 0h-8.507c-.544 0-.996-.453-.996-.996v-8.417c0-.543.452-.995.996-.995h8.507c.543 0 .996.452.996.995v8.417c0 .634-.453.996-.996.996zm12.761 0h-8.507c-.543 0-.996-.453-.996-.996v-8.417c0-.543.453-.995.996-.995h8.507c.543 0 .996.452.996.995v8.508c0 .452-.453.905-.996.905zm12.852 0h-8.507c-.543 0-.996-.453-.996-.996v-8.507c0-.543.453-.996.996-.996h8.507c.543 0 .996.453.996.996v8.507c0 .543-.453.996-.996.996zm12.942 0h-8.507c-.543 0-.996-.453-.996-.996v-8.507c0-.543.453-.996.996-.996h8.507c.543 0 .996.453.996.996v8.507c-.09.543-.453.996-.996.996zm12.852 0h-8.598c-.543 0-.995-.453-.995-.996v-8.507c0-.543.452-.996.995-.996h8.598c.543 0 .996.453.996.996v8.507c0 .543-.453.996-.996.996zm12.943 0h-8.599c-.543 0-.995-.453-.995-.996v-8.507c0-.543.452-.996.995-.996h8.599c.543 0 .995.453.995.996v8.507c-.09.543-.452.996-.995.996zm12.851 0h-8.598c-.543 0-.995-.453-.995-.996v-8.507c0-.543.452-.996.995-.996h8.598c.543 0 .996.453.996.996v8.507c0 .543-.453.996-.996.996zm0 13.032h-16.562c-.543 0-.996-.452-.996-.995v-8.508c0-.543.453-.995.996-.995h16.562c.543 0 .996.452.996.995v8.508c0 .633-.453.995-.996.995zm-.09 13.124h-22.898c-.543 0-.996-.453-.996-.996v-8.507c0-.543.453-.996.996-.996h22.898c.543 0 .995.453.995.996v8.507c0 .543-.452.996-.995.996zm1.72 12.942h-9.232c-.543 0-.996-.453-.996-.996v-2.805c0-.543.453-.996.996-.996h9.231c.543 0 .996.453.996.996v2.805c0 .543-.453.996-.996.996z"/><path id="bj" d="M1046.407 3837.707c-7.06 1.991-14.481 1.991-21.54.09l-.544-.09c-3.348-.905-5.883-3.71-6.335-7.24-2.353-17.015-2.353-34.302-.09-51.408l.09-.724c.452-3.53 2.987-6.335 6.426-7.24l.452-.09c7.06-1.901 14.481-1.901 21.54.09 3.35.905 5.884 3.801 6.336 7.24l.09.815a191.72 191.72 0 0 1-.09 51.407v.09c-.452 3.259-2.987 6.064-6.335 7.06z"/><path id="bl" d="M1043.058 3835.082c-7.06 1.992-14.481 1.992-21.54.09l-.543-.09c-3.349-.905-5.883-3.71-6.336-7.24-2.353-17.015-2.353-34.302-.09-51.407l.09-.724c.453-3.53 2.987-6.336 6.426-7.24l.453-.091c7.06-1.9 14.48-1.9 21.54.09 3.349.905 5.883 3.802 6.335 7.24l.091.815a191.715 191.715 0 0 1-.09 51.407v.091c-.453 3.258-2.987 6.064-6.336 7.06z"/><path id="bm" d="M1029.21 3825.308a3.077 3.077 0 1 1 6.155 0 3.077 3.077 0 0 1-6.154 0z"/><path id="bn" d="M1020.794 3938.802c-.272-14.029 6.878-64.26 8.96-73.31 1.72-7.512 13.485-8.598 17.105-9.322 2.173-.452.996 2.896-.271 3.349-1.177.543-11.766-.815-14.481 6.245-1.72 4.525-7.965 71.228-8.417 71.77-.543.544-2.896 1.268-2.896 1.268z"/><path id="bo" d="M1020.794 3858.795c-.272 14.028 6.878 64.259 8.96 73.31 1.72 7.511 13.485 8.597 17.105 9.321 2.173.453.996-2.896-.271-3.348-1.177-.543-11.766.814-14.481-6.245-1.72-4.525-7.965-71.228-8.417-71.771-.543-.453-2.896-1.267-2.896-1.267z"/><path id="bq" d="M1022.332 3920.43c0-3.802.453-7.513 1.81-11.043 2.353-6.154 8.055-6.516 11.766-3.982 5.25 3.53 7.421 8.96 7.421 15.477 0 2.353-.362 4.706-1.448 6.878-2.353 4.435-6.244 5.43-10.498 5.611-3.62.09-6.245-1.81-7.693-5.34-.634-1.629-.815-3.439-1.177-5.158-.18-.724-.09-1.63-.18-2.444zm20.907-43.987c-.09 6.879-2.172 12.128-7.421 15.658-2.625 1.72-5.43 2.172-8.146.633-1.177-.724-2.263-1.81-2.896-2.986-2.353-4.164-2.715-8.87-2.534-13.667.09-1.81.362-3.53.814-5.249 1.086-4.254 3.801-6.607 7.874-6.697 5.25-.09 10.59 2.262 11.766 8.417a44.14 44.14 0 0 1 .543 3.891zm-17.74 62.54c.091-.362.091-.634-.09-.996.272-2.263.453-2.172 2.534-2.082 2.444.091 4.978.182 7.331-.271 3.53-.634 6.517-2.263 8.236-5.973 3.983-8.78 1.54-20.364-5.701-26.337-2.354-1.992-5.16-3.259-8.236-2.806-1.177.18-1.449-.453-1.539-1.358-.09-.362-.09-.814 0-1.267.09-.905.362-1.448 1.448-1.176.724.18 1.539.09 2.263 0 3.8-.543 6.788-2.806 9.14-5.974 4.436-5.883 5.34-12.58 3.802-19.82-1.086-4.978-3.982-7.965-8.508-9.232-2.896-.815-5.792-.996-8.779-.362-.814.181-1.176-.09-1.448-.815-.18-.452-.18-.905-.362-1.357-.18-.272-.452-.634-.724-.634h-4.797c0 .362-.09.724-.09.996 0 5.883-.09 11.675-.09 17.558 0 2.172.18 4.254.633 6.335.543 3.077 1.63 5.974 2.172 9.05.905 5.07.272 10.137-.995 15.115-1.177 4.978-1.991 9.956-1.81 15.115.18 4.977.09 9.955.18 14.933 0 .453.091.905.091 1.358h5.34z"/><path id="br" d="M683.208 4031.75h-36.745c-3.801 0-6.97-3.076-6.97-6.968v-82.27c0-3.8 3.078-6.969 6.97-6.969h36.745c3.801 0 6.969 3.078 6.969 6.97v82.269c0 3.892-3.168 6.969-6.969 6.969z"/><path id="bt" d="M681.126 4030.122h-36.745c-3.801 0-6.969-3.077-6.969-6.97v-83.898c0-3.801 3.077-6.969 6.97-6.969h36.744c3.802 0 6.97 3.077 6.97 6.97v83.898c0 3.892-3.168 6.969-6.97 6.969z"/><path id="bu" d="M641.032 4015.279v-73.581a2.433 2.433 0 0 1 2.444-2.444h38.465a2.433 2.433 0 0 1 2.444 2.444v73.58a2.434 2.434 0 0 1-2.444 2.444h-38.465c-1.267 0-2.444-1.086-2.444-2.443z"/><path id="bv" d="M667.37 3936.901h-9.322a.619.619 0 0 1-.634-.634c0-.361.271-.633.634-.633h9.322c.362 0 .633.271.633.633a.619.619 0 0 1-.633.634z"/><path id="bw" d="M659.134 4023.515a3.62 3.62 0 1 1 7.24 0 3.62 3.62 0 0 1-7.24 0z"/><path id="bx" d="M1010.023 4036.005v-54.123h54.123v54.123z"/><path id="by" d="M1003.779 4033.108v-54.122h54.122v54.122z"/><path id="bz" d="M1052.47 4028.855c-15.747 6.245-48.691 4.163-48.691 4.163v-54.122h54.122c0 .09 0 43.352-5.43 49.959z"/><path id="bA" d="M731.538 4190.77h-23.441c-5.25 0-9.594-4.255-9.594-9.594 0-5.25 4.254-9.594 9.594-9.594h23.441c5.25 0 9.594 4.254 9.594 9.594a9.541 9.541 0 0 1-9.594 9.593z"/><path id="bB" d="M743.394 4192.398l-1.448 25.523c-.543 6.245-4.797 10.68-10.68 10.68H706.92c-5.882 0-10.68-4.797-10.68-10.68v-27.423h45.254c.995 0 1.9.814 1.9 1.9z"/><path id="bD" d="M727.737 4190.77h-23.441c-5.25 0-9.594-4.255-9.594-9.594 0-5.25 4.254-9.594 9.594-9.594h23.44c5.25 0 9.594 4.254 9.594 9.594-.09 5.34-4.344 9.593-9.593 9.593z"/><path id="bE" d="M709.183 4173.935c-2.896.905-6.607 2.172-9.231 2.987-1.72.543-2.897 2.262-2.897 4.253v.543c0-1.448 1.177-2.805 2.897-3.167 2.624-.634 6.063-.996 9.231-1.63 1.9-.361 3.801.725 3.801 2.444v-2.172c.09-2.262-1.81-3.891-3.8-3.258z"/><path id="bF" d="M709.183 4177.012c-3.168.634-6.607.996-9.231 1.63-1.72.361-2.897 1.72-2.897 3.167v.181c0 1.539.815 2.896 2.082 3.44l.453.18 9.412 2.987c1.991.634 4.073-.634 4.073-2.353v-6.788c0-1.72-1.9-2.806-3.892-2.444z"/><path id="bG" d="M731.99 4176.922c-2.624-.815-6.335-2.082-9.231-2.987-1.9-.633-3.801.996-3.801 3.349v2.172c0-1.72 1.9-2.806 3.8-2.444 3.169.634 6.608.996 9.233 1.63 1.72.361 2.896 1.719 2.896 3.167v-.543c0-2.082-1.177-3.801-2.896-4.344z"/><path id="bH" d="M731.99 4178.55c-2.624-.633-6.063-.995-9.231-1.628-1.9-.362-3.801.724-3.801 2.443v6.788c0 1.81 2.081 2.987 4.072 2.354l9.413-2.987.453-.181c1.267-.543 2.081-1.9 2.081-3.44v-.18c-.09-1.449-1.267-2.716-2.986-3.168z"/><path id="bJ" d="M715.247 4196.38v21.812c0 .543-.453.996-1.086.996h-3.62c-.543 0-.996-.453-1.086-.996V4196.2c0-.543-.543-.905-.996-.633-.814.362-1.81.633-2.806.633-2.715 0-5.882-1.538-7.693-3.891-.18-.181-.271-.453-.271-.724v-5.612c0-.452.09-.814.362-1.176 1.72-2.444 4.887-4.073 7.512-4.073 2.353 0 4.797 1.448 6.335 3.53.362.452.724.995.996 1.629 1.448 2.353 2.353 5.52 2.353 10.498z"/><path id="bK" d="M712.08 4184.072a3.215 3.215 0 0 0-1.449-.996c-1.72-.633-10.136-.814-12.761 3.349v-.543c0-.453.09-.815.362-1.177 1.72-2.443 4.887-4.072 7.512-4.072 2.353 0 4.706 1.357 6.335 3.439z"/><path id="bL" d="M715.247 4218.192c0 .543-.453.996-1.086.996h-3.62c-.543 0-.996-.453-1.086-.996z"/><path id="bM" d="M701.128 4188.506a.905.905 0 1 1 1.81 0 .905.905 0 0 1-1.81 0z"/><path id="bN" d="M713.708 4192.308a.272.272 0 1 1 .543 0 .272.272 0 0 1-.543 0z"/><path id="bP" d="M716.695 4196.38v21.812c0 .543.453.996 1.086.996h3.62c.543 0 .996-.453 1.086-.996V4196.2c0-.543.543-.905.996-.633.815.362 1.81.633 2.806.633 2.715 0 5.883-1.538 7.693-3.891.18-.181.271-.453.271-.724v-5.612c0-.452-.09-.814-.362-1.176-1.72-2.444-4.887-4.073-7.512-4.073-2.896 0-5.973 2.172-7.33 5.068-1.449 2.444-2.354 5.612-2.354 10.59z"/><path id="bQ" d="M729.004 4188.506a.905.905 0 1 1 1.81 0 .905.905 0 0 1-1.81 0z"/><path id="bR" d="M717.69 4192.308a.272.272 0 1 1 .544 0 .272.272 0 0 1-.543 0z"/><path id="bS" d="M709.364 4182.262c-.18 0-.271.09-.362.18a.275.275 0 0 0 0 .363l1.177 1.72c.18.27.543.452.905.452h.18c.182 0 .272-.09.363-.181a.275.275 0 0 0 0-.362l-1.448-1.9c-.09-.182-.362-.272-.543-.272h-.272z"/><path id="bT" d="M719.953 4184.072a3.215 3.215 0 0 1 1.448-.996c1.72-.633 10.137-.814 12.762 3.349v-.543c0-.453-.09-.815-.362-1.177-1.72-2.443-4.888-4.072-7.512-4.072-2.354 0-4.797 1.357-6.336 3.439z"/><path id="bU" d="M722.578 4182.262c.18 0 .271.09.362.18.09.091.09.272 0 .363l-1.177 1.72c-.18.27-.543.452-.905.452h-.18c-.182 0-.272-.09-.363-.181a.275.275 0 0 1 0-.362l1.448-1.9c.09-.182.362-.272.543-.272h.272z"/><path id="bW" d="M736.787 4189.321v27.423c0 5.883-4.797 10.68-10.68 10.68h-20.816c-5.882 0-10.68-4.797-10.68-10.68v-27.423z"/><path id="bY" d="M736.787 4189.321v26.609c0 4.344-4.797 7.964-10.68 7.964h-20.816c-5.882 0-10.68-3.53-10.68-7.964v-26.609z"/><path id="ca" d="M726.47 4189.321c0 .362-.09.634-.362.815-.181.18-.543.362-.815.362h-18.735a1.198 1.198 0 0 1-1.176-1.177h21.088z"/><path id="cb" d="M705.11 4223.804h-.724c-3.53 0-6.426-2.896-6.426-6.426v-28.057h2.625v27.061c0 3.168 1.81 5.974 4.525 7.422z"/><path id="cc" d="M733.8 4189.321v28.057c0 3.53-2.896 6.426-6.425 6.426h-.724c2.715-1.358 4.525-4.164 4.525-7.422v-27.061h2.625z"/><path id="ce" d="M735.882 4189.32H695.88c.18-.452.543-.723 1.086-.723h37.922c.362-.09.814.271.995.724z"/><path id="cf" d="M680.13 4184.434v33.396c0 5.974-5.067 10.77-11.312 10.77h-21.993c-6.245 0-11.313-4.796-11.313-10.77v-33.396c0-5.974 5.068-10.77 11.313-10.77h21.993c6.245-.091 11.313 4.796 11.313 10.77z"/><path id="ch" d="M675.877 4183.89v32.854c0 5.883-4.797 10.59-10.59 10.59h-20.725c-5.883 0-10.589-4.798-10.589-10.59v-32.853c0-5.883 4.797-10.59 10.59-10.59h20.725c5.792-.09 10.59 4.707 10.59 10.59z"/><path id="cj" d="M675.877 4183.167v30.862c0 5.52-4.797 9.955-10.59 9.955h-20.725c-5.883 0-10.589-4.434-10.589-9.955v-30.863c0-5.52 4.797-9.955 10.59-9.955h20.725c5.792 0 10.59 4.525 10.59 9.955z"/><path id="cl" d="M675.877 4183.89v5.521h-41.904v-5.52c0-5.883 4.797-10.59 10.59-10.59h20.725c5.792-.09 10.59 4.707 10.59 10.59z"/><path id="cn" d="M675.877 4183.257v5.973h-41.904v-5.973c0-6.516 4.797-11.856 10.59-11.856h20.725c5.792 0 10.59 5.34 10.59 11.856z"/><path id="cp" d="M665.56 4189.412c0 .09 0 .271-.091.361-.09.182-.181.363-.272.453-.18.181-.543.362-.814.362h-18.554c-.543 0-.995-.362-1.176-.814 0-.091-.09-.272-.09-.363 0-.362.09-.633.361-.814.181-.181.543-.362.815-.362h18.553c.724 0 1.267.543 1.267 1.176z"/><path id="cr" d="M665.469 4189.774c-.09.18-.181.361-.272.452-.18.181-.543.362-.814.362h-18.554c-.543 0-.995-.362-1.176-.814.09-.182.18-.363.271-.453.181-.181.543-.362.815-.362h18.553c.543 0 .996.362 1.177.815z"/><path id="cs" d="M639.856 4183.981v32.401a8.197 8.197 0 0 0 4.525 7.331h-.724c-3.53 0-6.426-2.896-6.426-6.426v-34.21c0-3.53 2.896-6.427 6.426-6.427h.724a8.197 8.197 0 0 0-4.525 7.331z"/><path id="ct" d="M672.89 4183.076v34.211c0 3.53-2.896 6.426-6.425 6.426h-.634a8.197 8.197 0 0 0 4.525-7.33v-32.311a8.197 8.197 0 0 0-4.525-7.331h.724c3.44-.09 6.335 2.805 6.335 6.335z"/><path id="cu" d="M605.373 4203.259v18.281c-.09.453-.452.816-.905.816h-3.077c-.452 0-.815-.363-.905-.815v-18.463c0-.453-.453-.724-.905-.543-.724.271-1.539.543-2.353.543-2.263 0-4.978-1.267-6.426-3.258-.09-.181-.181-.453-.181-.634v-4.706c0-.362.09-.724.271-.996 1.448-1.99 4.073-3.439 6.245-3.439 2.444 0 4.978 1.81 6.064 4.254 1.448 2.172 2.172 4.797 2.172 8.96z"/><path id="cv" d="M621.03 4187.24c0 3.71-2.08 6.697-4.615 6.697-1.267 0-2.444-.815-3.44-1.991-.452.543-.542.995-.542 2.986v18.644c-.09.453-.543.815-1.086.815h-2.716c-.543 0-.995-.362-1.086-.815v-19.096c0-1.086-.09-3.71 1.358-6.788 1.267-2.625 2.172-3.982 3.801-5.43 1.086-1.087 2.444-1.72 3.62-1.72.815 0 1.54.271 2.173.815 1.629 1.176 2.534 3.348 2.534 5.882z"/><path id="cw" d="M616.505 4189.955a1.622 1.622 0 0 1-1.629-1.63v-2.534c0-.905.724-1.629 1.63-1.629.905 0 1.629.724 1.629 1.63v2.533c-.091.906-.815 1.63-1.63 1.63z"/><path id="cx" d="M612.161 4187.149c0-.4.162-.724.362-.724.2 0 .362.324.362.724 0 .4-.162.724-.362.724-.2 0-.362-.324-.362-.724z"/><path id="cz" d="M604.016 4202.173v18.281c-.09.453-.453.815-.905.815h-3.078c-.452 0-.814-.362-.905-.814v-18.463c0-.453-.452-.724-.905-.543-.724.271-1.538.543-2.353.543-2.262 0-4.978-1.267-6.426-3.258-.09-.181-.18-.453-.18-.634v-4.706c0-.362.09-.724.27-.996 1.449-1.991 4.074-3.44 6.246-3.44 2.443 0 4.978 1.811 6.064 4.255 1.448 2.172 2.172 4.706 2.172 8.96z"/><path id="cA" d="M592.25 4195.566a.724.724 0 1 1 1.448 0 .724.724 0 0 1-1.448 0z"/><path id="cB" d="M598.766 4190.769l.996 1.539c.18.271.452.362.724.362h.272c.18 0 .362-.272.18-.362l-1.267-1.72c-.09-.181-.271-.181-.452-.181h-.272c-.18-.09-.271.181-.18.362z"/><path id="cD" d="M619.673 4186.153c0 3.71-2.081 6.698-4.616 6.698-1.267 0-2.443-.815-3.439-1.991-.452.542-.543.995-.543 2.986v18.644c-.09.453-.543.815-1.086.815h-2.715c-.543 0-.996-.362-1.086-.815v-19.096c0-1.086-.09-3.711 1.357-6.788 1.267-2.625 2.173-3.982 3.802-5.43 1.086-1.087 2.443-1.72 3.62-1.72.814 0 1.538.271 2.172.814 1.539 1.177 2.534 3.35 2.534 5.883z"/><path id="cE" d="M615.057 4188.868a1.622 1.622 0 0 1-1.629-1.629v-2.534c0-.905.724-1.629 1.63-1.629.904 0 1.628.724 1.628 1.63v2.533c0 .905-.724 1.63-1.629 1.63z"/><path id="cF" d="M610.804 4186.063c0-.4.162-.724.362-.724.2 0 .362.324.362.724 0 .4-.162.724-.362.724-.2 0-.362-.324-.362-.724z"/><path id="cG" d="M618.135 4186.063c0-.4.08-.724.18-.724.1 0 .182.324.182.724 0 .4-.081.724-.181.724-.1 0-.181-.324-.181-.724z"/><path id="cH" d="M600.124 4203.078v18.1h-.09c-.453 0-.815-.361-.906-.814v-18.463c0-.452-.452-.724-.905-.543-.724.272-1.538.543-2.353.543-2.262 0-4.978-1.267-6.426-3.258-.09-.181-.18-.452-.18-.634v-.633c2.533 1.991 7.059 2.987 8.96 1.9.452-.271.995-.09 1.176.453.452.634.724 1.72.724 3.349z"/><path id="cI" d="M604.016 4220.455c-.09.452-.453.814-.905.814h-3.078c-.452 0-.814-.362-.905-.814z"/><path id="cJ" d="M619.673 4186.153c0 3.71-2.081 6.698-4.616 6.698-1.267 0-2.443-.815-3.439-1.991-.452.543-.543.995-.543 2.986v18.644c-.09.453-.543.815-1.086.815v-21.178c0-1.087-.271-5.793 1.63-2.987 1.9 2.715 2.986 2.444 4.434 1.9 1.358-.543 1.9-1.629 2.444-3.891.543-2.172.18-4.525-1.267-6.879 1.448 1.177 2.443 3.35 2.443 5.883z"/><path id="cK" d="M611.166 4212.49c-.09.453-.543.815-1.086.815h-2.716c-.543 0-.995-.362-1.086-.815z"/><path id="cL" d="M784.846 4279.646v-116.662c0-3.892 3.167-7.06 7.15-7.06h191.871c3.892 0 7.15 3.168 7.15 7.06v116.57c0 3.893-3.167 7.06-7.15 7.06H791.996a6.957 6.957 0 0 1-7.15-6.968z"/><path id="cN" d="M779.777 4141.444l-29.323-34.936c-.362-.633-.453-1.448-.09-2.081.904-1.991 3.62-3.892 6.696-3.892h242.917c3.168 0 5.793 1.991 6.698 3.982a2.762 2.762 0 0 1 0 2.082l-21.903 34.935c0 1.63-3.167 2.987-7.059 2.987H786.927c-3.982-.09-7.15-1.448-7.15-3.077z"/><path id="cO" d="M779.777 4144.43l-29.504-38.193c-.272-.543-.272-1.267.18-1.72 1.087-1.086 3.62-1.9 6.517-1.9h242.917c2.805 0 5.25.724 6.335 1.72.543.452.724 1.266.362 1.99l-21.993 38.103c-.633 1.72-3.167 2.987-7.059 2.987H786.927c-3.982.09-6.154-1.267-7.15-2.987z"/><path id="cP" d="M756.427 4107.232l29.776 36.927c0 .362.634.633 1.448.633H976.99c.814 0 1.448-.271 1.448-.633l22.264-36.927c0-.362-.633-.633-1.448-.633H757.875c-.814 0-1.448.271-1.448.633z"/><path id="cR" d="M977.804 4148.05H786.927c-3.891 0-7.06 3.168-7.06 7.06v120.734c0 3.892 3.169 7.06 7.06 7.06h190.877c3.891 0 7.059-3.168 7.059-7.06V4155.11c0-3.892-3.168-7.06-7.06-7.06z"/><path id="cS" d="M946.941 4212.852h8.689c.543 0 .905.453.905.906v2.443a.907.907 0 0 1-.905.905h-8.689a.907.907 0 0 1-.905-.905v-2.443c-.09-.544.362-.906.905-.906zm0-5.701h8.689c.543 0 .905.452.905.905v2.262a.907.907 0 0 1-.905.905h-8.689a.907.907 0 0 1-.905-.905v-2.262c0-.543.362-.905.905-.905zm-12.4 5.52h8.69c.542 0 .904.453.904.905v2.625a.907.907 0 0 1-.905.905h-8.688a.907.907 0 0 1-.905-.905v-2.625c0-.543.452-.905.905-.905zm6.155-7.692h-8.055a.907.907 0 0 1-.905-.906v-7.964c0-.543.453-.905.905-.905h8.055c.543 0 .905.452.905.905v7.964a.907.907 0 0 1-.905.906zm-3.077-13.124v-7.964c0-.543.453-.905.905-.905h8.055c.543 0 .905.452.905.905v7.964a.907.907 0 0 1-.905.905h-8.055a.907.907 0 0 1-.905-.905zm-11.132.905a.907.907 0 0 1-.905-.905v-7.964c0-.543.452-.905.905-.905h8.055c.543 0 .905.452.905.905v7.964a.907.907 0 0 1-.905.905zm-4.525 14.572h8.688c.543 0 .905.452.905.905v7.964a.907.907 0 0 1-.905.905h-8.598a.907.907 0 0 1-.905-.905v-7.874c-.09-.543.272-.995.815-.995zm-2.263-11.223c0-.543.452-.905.905-.905h7.964c.544 0 .906.452.906.905v7.964a.907.907 0 0 1-.906.905h-7.964a.907.907 0 0 1-.905-.905zm-2.172 7.964a.907.907 0 0 1-.905.905h-7.965a.907.907 0 0 1-.905-.905v-7.874c0-.543.453-.905.905-.905h7.965c.452-.09.905.362.905.815zm-15.115-11.313a.907.907 0 0 1-.905-.905v-7.964c0-.543.453-.905.905-.905h7.965c.543 0 .905.452.905.905v7.964a.907.907 0 0 1-.905.905zm12.038-9.774h7.964c.543 0 .905.452.905.905v7.964a.907.907 0 0 1-.905.905h-7.964a.907.907 0 0 1-.905-.905v-7.964c0-.453.452-.905.905-.905zm-7.965 24.346h11.494c.543 0 .905.452.905.905v7.874a.907.907 0 0 1-.905.905h-11.494a.907.907 0 0 1-.905-.905v-7.874c0-.543.362-.905.905-.905zm-10.86-3.259v-7.874c0-.543.452-.905.905-.905h7.964c.543 0 .905.453.905.905v7.874a.907.907 0 0 1-.905.906h-7.964c-.453 0-.906-.453-.906-.906zm-26.157-7.964v7.874a.907.907 0 0 1-.905.905H860.6c-.543 0-.905-.362-.905-.905v-7.874c0-.543.452-.905.905-.905h7.964c.543 0 .905.452.905.905zm-6.969-3.349h-7.964c-.543 0-.905-.362-.905-.905v-7.874c0-.543.362-.905.905-.905h7.964c.544 0 .906.362.906.905v7.874a.907.907 0 0 1-.906.905zm3.078-8.779c0-.543.452-.905.905-.905h7.964c.543 0 .905.362.905.905v7.874a.907.907 0 0 1-.905.905h-7.964c-.543 0-.905-.362-.905-.905zm15.929 12.128v7.874a.907.907 0 0 1-.905.905h-7.965a.907.907 0 0 1-.905-.905v-7.874c0-.543.453-.905.905-.905h7.965c.452 0 .905.452.905.905zm-3.078-13.033h7.965c.543 0 .905.362.905.905v7.874a.907.907 0 0 1-.905.905h-7.965c-.543 0-.905-.362-.905-.905v-7.874c0-.543.453-.905.905-.905zm15.024 13.033v7.874a.907.907 0 0 1-.905.905h-7.964a.907.907 0 0 1-.905-.905v-7.874c0-.543.452-.905.905-.905h7.964c.453 0 .905.452.905.905zm-2.986-13.123h7.964c.543 0 .905.452.905.905v7.964a.907.907 0 0 1-.905.905h-7.964a.907.907 0 0 1-.905-.905v-7.874c0-.543.362-.995.905-.995zm-39.823 25.16c0-.543.362-.905.905-.905l50.864.09c.543 0 .905.453.905.906v7.874a.907.907 0 0 1-.905.905l-50.864-.09c-.543 0-.905-.363-.905-.906zm-2.805-4.163v-7.874c0-.543.362-.905.905-.905h7.964c.543 0 .905.362.905.905v7.874c0 .543-.362.905-.905.905h-7.874c-.633 0-.995-.362-.995-.905zm-2.173-7.874v7.874c0 .543-.362.905-.905.905h-7.874c-.543 0-.905-.362-.905-.905v-7.874c0-.543.362-.905.905-.905h7.874c.453 0 .905.362.905.905zm-7.059-3.349h-7.874c-.543 0-.905-.362-.905-.905v-7.874c0-.543.362-.905.905-.905h7.874c.543 0 .905.362.905.905v7.874a.907.907 0 0 1-.905.905zm3.077-8.779c0-.543.362-.905.905-.905h7.874c.543 0 .905.362.905.905v7.874c0 .543-.362.905-.905.905h-7.874c-.543 0-.905-.362-.905-.905zm-6.607 24.165c0-.543.362-.905.905-.905h11.495c.543 0 .905.362.905.905v7.874c0 .543-.362.905-.905.905H835.98c-.543 0-.905-.362-.905-.905zm-11.041-4.163v-7.874c0-.543.362-.905.905-.905h7.874c.543 0 .905.362.905.905v7.874c0 .543-.362.905-.905.905h-7.874c-.453 0-.905-.453-.905-.905zm2.715-11.223h-7.874c-.543 0-.905-.362-.905-.905v-7.874c0-.543.362-.905.905-.905h7.874c.543 0 .905.362.905.905v7.874c0 .453-.453.905-.905.905zm-5.793 15.386c0-.543.362-.905.905-.905H832c.543 0 .905.362.905.905v7.874c0 .543-.362.905-.905.905h-10.137c-.543 0-.905-.362-.905-.905zm-11.856 0c0-.543.362-.905.905-.905h7.874c.543 0 .905.362.905.905v7.874c0 .543-.362.905-.905.905h-7.874c-.543 0-.905-.362-.905-.905zm-3.077-.905c.543 0 .905.362.905.905v7.874c0 .543-.362.905-.905.905h-7.874c-.543 0-.905-.362-.905-.905v-7.874c0-.543.362-.905.905-.905zm14.933-12.037c.543 0 .905.362.905.905v7.874c0 .543-.362.905-.905.905H798.15c-.543 0-.905-.362-.905-.905v-7.874c0-.543.362-.905.905-.905zm-6.154-12.128c.543 0 .905.362.905.905v7.874c0 .543-.362.905-.905.905H798.06c-.543 0-.906-.362-.906-.905v-7.874c0-.543.363-.905.906-.905zm-3.62-15.476c0 .543-.362.905-.905.905H798.06c-.543 0-.906-.362-.906-.905v-2.806c0-.543.363-.905.906-.905h12.218c.543 0 .905.362.905.905zm11.856 0c0 .543-.362.905-.905.905h-7.874c-.543 0-.905-.362-.905-.905v-2.806c0-.543.362-.905.905-.905h7.874c.543 0 .905.362.905.905zm11.947 0c0 .543-.362.905-.905.905h-7.874c-.543 0-.905-.362-.905-.905v-2.806c0-.543.362-.905.905-.905h7.874c.543 0 .905.362.905.905zm11.856 0c0 .543-.362.905-.905.905h-7.874c-.543 0-.905-.362-.905-.905v-2.806c0-.543.362-.905.905-.905h7.874c.543 0 .905.362.905.905zm11.947 0a.907.907 0 0 1-.905.905h-7.965c-.543 0-.905-.362-.905-.905v-2.897c0-.543.362-.905.905-.905h7.965c.543 0 .905.362.905.905zm11.041.905h-7.964c-.543 0-.905-.362-.905-.905v-2.897c0-.543.452-.905.905-.905h7.964c.543 0 .905.362.905.905v2.897a.907.907 0 0 1-.905.905zm12.038 0h-7.965c-.543 0-.905-.362-.905-.905v-2.897c0-.543.453-.905.905-.905h7.965c.543 0 .905.362.905.905v2.897c0 .452-.453.905-.905.905zm11.946-.09h-7.964c-.543 0-.905-.363-.905-.906v-2.896c0-.543.452-.905.905-.905h7.964c.543 0 .905.362.905.905v2.896c0 .543-.362.905-.905.905zm12.038 0h-7.965a.907.907 0 0 1-.905-.906v-2.896c0-.543.453-.905.905-.905h7.965c.543 0 .905.452.905.905v2.896c0 .543-.362.905-.905.905zm12.037 0h-7.965a.907.907 0 0 1-.905-.906v-2.896c0-.543.453-.905.905-.905h7.965c.543 0 .905.452.905.905v2.896c0 .543-.362.905-.905.905zm12.037 0h-7.964a.907.907 0 0 1-.905-.906v-2.896c0-.543.452-.905.905-.905h8.055c.543 0 .905.452.905.905v2.896c-.09.543-.453.905-.996.905zm12.128 0h-8.055a.907.907 0 0 1-.905-.906v-2.896c0-.543.452-.905.905-.905h8.055c.543 0 .905.452.905.905v2.896a.907.907 0 0 1-.905.905zm12.037 0h-8.055a.907.907 0 0 1-.905-.906v-2.896c0-.543.453-.905.905-.905h8.055c.543 0 .905.452.905.905v2.896c.09.543-.362.905-.905.905zm12.128 0h-8.055a.907.907 0 0 1-.905-.906v-2.896c0-.543.452-.905.905-.905h8.055c.543 0 .905.452.905.905v2.896a.907.907 0 0 1-.905.905zm-155.036 11.312c0 .543-.362.905-.905.905H798.06c-.543 0-.906-.362-.906-.905v-7.874c0-.543.363-.905.906-.905h12.218c.543 0 .905.362.905.905zm11.856 0c0 .543-.362.905-.905.905h-7.874c-.543 0-.905-.362-.905-.905v-7.874c0-.543.362-.905.905-.905h7.874c.543 0 .905.362.905.905zm11.947 0c0 .543-.362.905-.905.905h-7.874c-.543 0-.905-.362-.905-.905v-7.874c0-.543.362-.905.905-.905h7.874c.543 0 .905.362.905.905zm11.856 0c0 .543-.362.905-.905.905h-7.874c-.543 0-.905-.362-.905-.905v-7.874c0-.543.362-.905.905-.905h7.874c.543 0 .905.362.905.905zm11.947 0a.907.907 0 0 1-.905.905h-7.965c-.543 0-.905-.362-.905-.905v-7.874c0-.543.362-.905.905-.905h7.965c.543 0 .905.362.905.905zm11.041.815h-7.964c-.543 0-.905-.362-.905-.905v-7.874c0-.543.452-.905.905-.905h7.964c.543 0 .905.362.905.905v7.874c0 .543-.362.905-.905.905zm12.038 0h-7.965c-.543 0-.905-.362-.905-.905v-7.874c0-.543.453-.905.905-.905h7.965c.543 0 .905.362.905.905v7.964c0 .453-.453.815-.905.815zm11.946 0h-7.964c-.543 0-.905-.362-.905-.905v-7.965c0-.543.452-.905.905-.905h7.964c.543 0 .905.362.905.905v7.965c0 .543-.362.905-.905.905zm12.038 0h-7.965a.907.907 0 0 1-.905-.905v-7.965c0-.543.453-.905.905-.905h7.965c.543 0 .905.453.905.905v7.965c0 .543-.362.905-.905.905zm12.037 0h-7.965a.907.907 0 0 1-.905-.905v-7.965c0-.543.453-.905.905-.905h7.965c.543 0 .905.453.905.905v7.965c0 .543-.362.905-.905.905zm12.037 0h-7.964a.907.907 0 0 1-.905-.905v-7.965c0-.543.452-.905.905-.905h8.055c.543 0 .905.453.905.905v7.965c-.09.543-.453.905-.996.905zm12.128 0h-8.055a.907.907 0 0 1-.905-.905v-7.965c0-.543.452-.905.905-.905h8.055c.543 0 .905.453.905.905v7.965c0 .452-.453.905-.905.905zm12.037 0h-8.055a.907.907 0 0 1-.905-.905v-7.965c0-.543.453-.905.905-.905h8.055c.543 0 .905.453.905.905v7.965c.09.452-.362.905-.905.905zm12.128 0h-8.055a.907.907 0 0 1-.905-.905v-7.965c0-.543.452-.905.905-.905h8.055c.543 0 .905.453.905.905v7.965a.907.907 0 0 1-.905.905zm0 12.218h-15.567a.907.907 0 0 1-.905-.905v-7.964c0-.543.452-.905.905-.905h15.567c.543 0 .905.452.905.905v7.964a.907.907 0 0 1-.905.905zm-.09 12.309h-21.45a.907.907 0 0 1-.906-.905v-7.965c0-.543.453-.905.905-.905h21.45c.543 0 .905.453.905.905v7.965a.907.907 0 0 1-.905.905zm1.628 12.128h-8.688a.907.907 0 0 1-.905-.905v-2.625c0-.543.452-.905.905-.905h8.688c.543 0 .905.452.905.905v2.625a.907.907 0 0 1-.905.905z"/><path id="cT" d="M919.065 4271.5h-72.223c-2.534 0-4.616-2.082-4.616-4.616v-36.564c0-2.534 2.082-4.616 4.616-4.616h72.223c2.535 0 4.616 2.082 4.616 4.616v36.564c-.09 2.625-2.081 4.616-4.616 4.616z"/><path id="cU" d="M909.29 4282.994h-52.764a3.81 3.81 0 0 1 3.349-1.991h45.977c1.538 0 2.805.815 3.439 1.991z"/><path id="cV" d="M968.662 4150.947H796.068a1.72 1.72 0 0 1-1.72-1.72v-3.077h176.125v3.077c0 .905-.815 1.72-1.81 1.72z"/><path id="cW" d="M1230.585 4059.626h-105.439c-5.973 0-10.86-4.887-10.86-10.86V3900.97c0-5.973 4.887-10.86 10.86-10.86h105.44c5.973 0 10.86 4.887 10.86 10.86v147.796c0 6.064-4.887 10.86-10.86 10.86z"/><path id="cY" d="M1227.418 4057.726h-105.349c-5.973 0-10.86-4.887-10.86-10.86V3897.44c0-5.974 4.887-10.861 10.86-10.861h105.44c5.973 0 10.86 4.887 10.86 10.86v149.425c0 5.974-4.887 10.86-10.951 10.86z"/><path id="cZ" d="M1115.372 4038.81v-139.92c0-.724.633-1.358 1.357-1.358h116.029c.724 0 1.357.634 1.357 1.358v139.921c0 .724-.633 1.358-1.357 1.358h-116.029c-.724 0-1.357-.634-1.357-1.358z"/><path id="da" d="M1183.07 3893.006h-16.743a.907.907 0 0 1-.906-.905c0-.453.363-.905.906-.905h16.743c.453 0 .905.362.905.905a.907.907 0 0 1-.905.905z"/><path id="db" d="M1169.856 4048.494a4.887 4.887 0 1 1 9.775 0 4.887 4.887 0 0 1-9.775 0z"/><path id="dd" d="M1300.546 4246.882h-179.02c-3.801 0-6.788-3.077-6.788-6.788v-73.761c0-3.802 3.078-6.788 6.788-6.788h179.02c3.801 0 6.788 3.077 6.788 6.788v73.761c0 3.711-3.077 6.788-6.788 6.788z"/><path id="de" d="M1132.659 4184.253h-11.585c-.724 0-1.358-.634-1.358-1.358v-6.788c0-.724.634-1.357 1.358-1.357h11.585c.724 0 1.357.633 1.357 1.357v6.788c0 .724-.633 1.358-1.357 1.358z"/><path id="df" d="M1144.696 4184.253h-7.15c-.724 0-1.358-.634-1.358-1.358v-6.788c0-.724.634-1.357 1.358-1.357h7.15c.724 0 1.357.633 1.357 1.357v6.788c0 .724-.633 1.358-1.357 1.358z"/><path id="dg" d="M1156.733 4184.253h-7.15c-.724 0-1.358-.634-1.358-1.358v-6.788c0-.724.634-1.357 1.358-1.357h7.15c.724 0 1.358.633 1.358 1.357v6.788c0 .724-.634 1.358-1.358 1.358z"/><path id="dh" d="M1168.77 4184.253h-7.15c-.724 0-1.357-.634-1.357-1.358v-6.788c0-.724.633-1.357 1.357-1.357h7.15c.724 0 1.358.633 1.358 1.357v6.788c-.09.724-.634 1.358-1.358 1.358z"/><path id="di" d="M1180.717 4184.253h-7.15c-.724 0-1.358-.634-1.358-1.358v-6.788c0-.724.634-1.357 1.358-1.357h7.15c.724 0 1.358.633 1.358 1.357v6.788c0 .724-.634 1.358-1.358 1.358z"/><path id="dj" d="M1192.754 4184.253h-7.15c-.724 0-1.357-.634-1.357-1.358v-6.788c0-.724.633-1.357 1.357-1.357h7.15c.724 0 1.358.633 1.358 1.357v6.788c0 .724-.634 1.358-1.358 1.358z"/><path id="dk" d="M1204.791 4184.253h-7.15c-.724 0-1.357-.634-1.357-1.358v-6.788c0-.724.633-1.357 1.357-1.357h7.15c.724 0 1.358.633 1.358 1.357v6.788c0 .724-.634 1.358-1.358 1.358z"/><path id="dl" d="M1216.829 4184.253h-7.15c-.724 0-1.358-.634-1.358-1.358v-6.788c0-.724.634-1.357 1.358-1.357h7.15c.724 0 1.357.633 1.357 1.357v6.788c-.09.724-.633 1.358-1.357 1.358z"/><path id="dm" d="M1228.775 4184.253h-7.15c-.724 0-1.357-.634-1.357-1.358v-6.788c0-.724.633-1.357 1.357-1.357h7.15c.724 0 1.358.633 1.358 1.357v6.788c0 .724-.543 1.358-1.358 1.358z"/><path id="dn" d="M1240.813 4184.253h-7.15c-.724 0-1.358-.634-1.358-1.358v-6.788c0-.724.634-1.357 1.358-1.357h7.15c.724 0 1.357.633 1.357 1.357v6.788c0 .724-.633 1.358-1.357 1.358z"/><path id="do" d="M1252.85 4184.253h-7.15c-.724 0-1.358-.634-1.358-1.358v-6.788c0-.724.634-1.357 1.358-1.357h7.15c.724 0 1.357.633 1.357 1.357v6.788c0 .724-.633 1.358-1.357 1.358z"/><path id="dp" d="M1264.887 4184.253h-7.15c-.724 0-1.357-.634-1.357-1.358v-6.788c0-.724.633-1.357 1.357-1.357h7.15c.724 0 1.358.633 1.358 1.357v6.788c0 .724-.634 1.358-1.358 1.358z"/><path id="dq" d="M1276.924 4184.253h-7.15c-.724 0-1.357-.634-1.357-1.358v-6.788c0-.724.633-1.357 1.357-1.357h7.15c.724 0 1.358.633 1.358 1.357v6.788c-.09.724-.634 1.358-1.358 1.358z"/><path id="dr" d="M1288.871 4184.253h-7.15c-.724 0-1.358-.634-1.358-1.358v-6.788c0-.724.634-1.357 1.358-1.357h7.15c.724 0 1.358.633 1.358 1.357v6.788c0 .724-.634 1.358-1.358 1.358z"/><path id="ds" d="M1301.18 4183.167c0 .633-.453 1.086-1.086 1.086h-5.521c-.634 0-1.086-.453-1.086-1.086v-7.331c0-.634.452-1.086 1.086-1.086h5.52c.634 0 1.087.452 1.087 1.086z"/><path id="dt" d="M1132.659 4223.985h-11.585c-.724 0-1.358-.634-1.358-1.358v-6.788c0-.724.634-1.357 1.358-1.357h11.585c.724 0 1.357.633 1.357 1.357v6.788c0 .724-.633 1.358-1.357 1.358z"/><path id="du" d="M1144.696 4223.985h-7.15c-.724 0-1.358-.634-1.358-1.358v-6.788c0-.724.634-1.357 1.358-1.357h7.15c.724 0 1.357.633 1.357 1.357v6.788c0 .724-.633 1.358-1.357 1.358z"/><path id="dv" d="M1156.733 4223.985h-7.15c-.724 0-1.358-.634-1.358-1.358v-6.788c0-.724.634-1.357 1.358-1.357h7.15c.724 0 1.358.633 1.358 1.357v6.788c0 .724-.634 1.358-1.358 1.358z"/><path id="dw" d="M1168.77 4223.985h-7.15c-.724 0-1.357-.634-1.357-1.358v-6.788c0-.724.633-1.357 1.357-1.357h7.15c.724 0 1.358.633 1.358 1.357v6.788c-.09.724-.634 1.358-1.358 1.358z"/><path id="dx" d="M1180.717 4223.985h-7.15c-.724 0-1.358-.634-1.358-1.358v-6.788c0-.724.634-1.357 1.358-1.357h7.15c.724 0 1.358.633 1.358 1.357v6.788c0 .724-.634 1.358-1.358 1.358z"/><path id="dy" d="M1192.754 4223.985h-7.15c-.724 0-1.357-.634-1.357-1.358v-6.788c0-.724.633-1.357 1.357-1.357h7.15c.724 0 1.358.633 1.358 1.357v6.788c0 .724-.634 1.358-1.358 1.358z"/><path id="dz" d="M1204.791 4223.985h-7.15c-.724 0-1.357-.634-1.357-1.358v-6.788c0-.724.633-1.357 1.357-1.357h7.15c.724 0 1.358.633 1.358 1.357v6.788c0 .724-.634 1.358-1.358 1.358z"/><path id="dA" d="M1216.829 4223.985h-7.15c-.724 0-1.358-.634-1.358-1.358v-6.788c0-.724.634-1.357 1.358-1.357h7.15c.724 0 1.357.633 1.357 1.357v6.788c-.09.724-.633 1.358-1.357 1.358z"/><path id="dB" d="M1228.775 4223.985h-7.15c-.724 0-1.357-.634-1.357-1.358v-6.788c0-.724.633-1.357 1.357-1.357h7.15c.724 0 1.358.633 1.358 1.357v6.788c0 .724-.543 1.358-1.358 1.358z"/><path id="dC" d="M1240.813 4223.985h-7.15c-.724 0-1.358-.634-1.358-1.358v-6.788c0-.724.634-1.357 1.358-1.357h7.15c.724 0 1.357.633 1.357 1.357v6.788c0 .724-.633 1.358-1.357 1.358z"/><path id="dD" d="M1252.85 4223.985h-7.15c-.724 0-1.358-.634-1.358-1.358v-6.788c0-.724.634-1.357 1.358-1.357h7.15c.724 0 1.357.633 1.357 1.357v6.788c0 .724-.633 1.358-1.357 1.358z"/><path id="dE" d="M1264.887 4223.985h-7.15c-.724 0-1.357-.634-1.357-1.358v-6.788c0-.724.633-1.357 1.357-1.357h7.15c.724 0 1.358.633 1.358 1.357v6.788c0 .724-.634 1.358-1.358 1.358z"/><path id="dF" d="M1276.924 4223.985h-7.15c-.724 0-1.357-.634-1.357-1.358v-6.788c0-.724.633-1.357 1.357-1.357h7.15c.724 0 1.358.633 1.358 1.357v6.788c-.09.724-.634 1.358-1.358 1.358z"/><path id="dG" d="M1288.871 4223.985h-7.15c-.724 0-1.358-.634-1.358-1.358v-6.788c0-.724.634-1.357 1.358-1.357h7.15c.724 0 1.358.633 1.358 1.357v6.788c0 .724-.634 1.358-1.358 1.358z"/><path id="dH" d="M1301.18 4222.898c0 .634-.453 1.087-1.086 1.087h-5.521c-.634 0-1.086-.453-1.086-1.087v-7.33c0-.634.452-1.086 1.086-1.086h5.52c.634 0 1.087.452 1.087 1.086z"/><path id="dI" d="M1137.455 4210.5h-6.788c-.724 0-1.357-.634-1.357-1.358v-6.788c0-.724.633-1.358 1.357-1.358h6.788c.724 0 1.358.634 1.358 1.358v6.788c-.09.724-.634 1.357-1.358 1.357z"/><path id="dJ" d="M1148.678 4210.5h-6.426c-.724 0-1.357-.634-1.357-1.358v-6.788c0-.724.633-1.358 1.357-1.358h6.426c.724 0 1.358.634 1.358 1.358v6.788c0 .724-.634 1.357-1.358 1.357z"/><path id="dK" d="M1160.353 4210.5h-6.788c-.724 0-1.357-.634-1.357-1.358v-6.788c0-.724.633-1.358 1.357-1.358h6.788c.724 0 1.358.634 1.358 1.358v6.788c0 .724-.634 1.357-1.358 1.357z"/><path id="dL" d="M1172.028 4210.5h-6.788c-.724 0-1.357-.634-1.357-1.358v-6.788c0-.724.633-1.358 1.357-1.358h6.788c.724 0 1.358.634 1.358 1.358v6.788c0 .724-.634 1.357-1.358 1.357z"/><path id="dM" d="M1184.066 4210.5h-7.15c-.724 0-1.358-.634-1.358-1.358v-6.788c0-.724.634-1.358 1.358-1.358h7.15c.724 0 1.357.634 1.357 1.358v6.788c-.09.724-.633 1.357-1.357 1.357z"/><path id="dN" d="M1196.374 4210.5h-7.512c-.724 0-1.357-.634-1.357-1.358v-6.788c0-.724.633-1.358 1.357-1.358h7.512c.724 0 1.358.634 1.358 1.358v6.788c0 .724-.543 1.357-1.358 1.357z"/><path id="dO" d="M1208.412 4210.5h-7.15c-.724 0-1.358-.634-1.358-1.358v-6.788c0-.724.634-1.358 1.358-1.358h7.15c.724 0 1.357.634 1.357 1.358v6.788c0 .724-.633 1.357-1.357 1.357z"/><path id="dP" d="M1220.087 4210.5h-6.788c-.724 0-1.358-.634-1.358-1.358v-6.788c0-.724.634-1.358 1.358-1.358h6.788c.724 0 1.357.634 1.357 1.358v6.788c0 .724-.633 1.357-1.357 1.357z"/><path id="dQ" d="M1232.124 4210.5h-7.15c-.724 0-1.357-.634-1.357-1.358v-6.788c0-.724.633-1.358 1.357-1.358h7.15c.724 0 1.358.634 1.358 1.358v6.788c-.09.724-.634 1.357-1.358 1.357z"/><path id="dR" d="M1244.342 4210.5h-7.693c-.633 0-1.086-.453-1.086-1.087v-7.33c0-.634.453-1.087 1.086-1.087h7.693c.634 0 1.086.453 1.086 1.086v7.331c0 .543-.452 1.086-1.086 1.086z"/><path id="dS" d="M1257.466 4209.413c0 .634-.453 1.086-1.087 1.086h-7.692c-.634 0-1.087-.452-1.087-1.086v-7.33c0-.634.453-1.087 1.087-1.087h7.692c.634 0 1.087.453 1.087 1.086z"/><path id="dT" d="M1268.507 4210.5h-7.512c-.724 0-1.357-.634-1.357-1.358v-6.788c0-.724.633-1.358 1.357-1.358h7.512c.724 0 1.358.634 1.358 1.358v6.788c0 .724-.634 1.357-1.358 1.357z"/><path id="dU" d="M1280.907 4210.5h-7.512c-.724 0-1.358-.634-1.358-1.358v-6.788c0-.724.634-1.358 1.358-1.358h7.512c.724 0 1.357.634 1.357 1.358v6.788c0 .724-.633 1.357-1.357 1.357z"/><path id="dV" d="M1301.18 4209.413c0 .634-.453 1.086-1.086 1.086h-13.486c-.633 0-1.086-.452-1.086-1.086v-7.33c0-.634.453-1.087 1.086-1.087h13.486c.633 0 1.086.453 1.086 1.086z"/><path id="dW" d="M1132.297 4237.741h-11.133c-.724 0-1.357-.633-1.357-1.357v-6.788c0-.724.633-1.358 1.357-1.358h11.133c.724 0 1.357.634 1.357 1.358v6.788c0 .814-.633 1.357-1.357 1.357z"/><path id="dX" d="M1143.972 4237.741h-6.788c-.724 0-1.358-.633-1.358-1.357v-6.788c0-.724.634-1.358 1.358-1.358h6.788c.724 0 1.357.634 1.357 1.358v6.788c0 .814-.633 1.357-1.357 1.357z"/><path id="dY" d="M1155.285 4237.741h-6.426c-.724 0-1.358-.633-1.358-1.357v-6.788c0-.724.634-1.358 1.358-1.358h6.426c.724 0 1.357.634 1.357 1.358v6.788c-.09.814-.633 1.357-1.357 1.357z"/><path id="dZ" d="M1166.87 4237.741h-6.788c-.724 0-1.358-.633-1.358-1.357v-6.788c0-.724.634-1.358 1.358-1.358h6.788c.724 0 1.357.634 1.357 1.358v6.788c0 .814-.543 1.357-1.357 1.357z"/><path id="ea" d="M1178.545 4237.741h-6.788c-.724 0-1.358-.633-1.358-1.357v-6.788c0-.724.634-1.358 1.358-1.358h6.788c.724 0 1.357.634 1.357 1.358v6.788c0 .814-.633 1.357-1.357 1.357z"/><path id="eb" d="M1250.95 4228.329h-67.88c-.633 0-1.086.452-1.086 1.086v7.33c0 .635.453 1.087 1.086 1.087h67.88c.634 0 1.086-.452 1.086-1.086v-7.331c0-.634-.543-1.086-1.086-1.086z"/><path id="ec" d="M1262.896 4237.741h-7.693c-.634 0-1.086-.452-1.086-1.086v-7.33c0-.634.452-1.087 1.086-1.087h7.693c.634 0 1.086.453 1.086 1.086v7.331c0 .634-.452 1.086-1.086 1.086z"/><path id="ed" d="M1275.024 4237.741h-7.512c-.724 0-1.358-.633-1.358-1.357v-6.788c0-.724.634-1.358 1.358-1.358h7.512c.724 0 1.357.634 1.357 1.358v6.788c0 .814-.543 1.357-1.357 1.357z"/><path id="ee" d="M1287.423 4237.741h-7.512c-.724 0-1.358-.633-1.358-1.357v-6.788c0-.724.634-1.358 1.358-1.358h7.512c.724 0 1.358.634 1.358 1.358v6.788c0 .814-.634 1.357-1.358 1.357z"/><path id="ef" d="M1300.094 4237.741h-6.97c-.633 0-1.085-.452-1.085-1.086v-7.33c0-.634.452-1.087 1.086-1.087h6.969c.633 0 1.086.453 1.086 1.086v7.331c0 .634-.543 1.086-1.086 1.086z"/><path id="eg" d="M1130.758 4187.873h-9.865c-.634 0-1.086.452-1.086 1.086v20.364c0 .633.452 1.086 1.086 1.086h5.159c.633 0 1.086-.453 1.086-1.086v-10.318c0-.905.724-1.72 1.72-1.72h1.9c.633 0 1.086-.452 1.086-1.086v-7.33c0-.453-.543-.996-1.086-.996z"/><path id="eh" d="M1141.075 4197.376h-5.701c-.724 0-1.358-.634-1.358-1.358v-6.788c0-.724.634-1.357 1.358-1.357h5.701c.725 0 1.358.633 1.358 1.357v6.788c0 .724-.633 1.358-1.358 1.358z"/><path id="ei" d="M1153.113 4197.376h-7.15c-.724 0-1.358-.634-1.358-1.358v-6.788c0-.724.634-1.357 1.358-1.357h7.15c.724 0 1.357.633 1.357 1.357v6.788c-.09.724-.633 1.358-1.357 1.358z"/><path id="ej" d="M1165.06 4197.376h-7.15c-.725 0-1.358-.634-1.358-1.358v-6.788c0-.724.633-1.357 1.357-1.357h7.15c.724 0 1.358.633 1.358 1.357v6.788c0 .724-.634 1.358-1.358 1.358z"/><path id="ek" d="M1177.459 4197.376h-7.512c-.724 0-1.358-.634-1.358-1.358v-6.788c0-.724.634-1.357 1.358-1.357h7.512c.724 0 1.357.633 1.357 1.357v6.788c0 .724-.633 1.358-1.357 1.358z"/><path id="el" d="M1190.22 4197.376h-7.874c-.724 0-1.358-.634-1.358-1.358v-6.788c0-.724.634-1.357 1.358-1.357h7.874c.724 0 1.358.633 1.358 1.357v6.788c0 .724-.634 1.358-1.358 1.358z"/><path id="em" d="M1202.62 4197.376h-7.513c-.724 0-1.357-.634-1.357-1.358v-6.788c0-.724.633-1.357 1.357-1.357h7.512c.724 0 1.358.633 1.358 1.357v6.788c-.09.724-.634 1.358-1.358 1.358z"/><path id="en" d="M1215.38 4197.376h-7.874c-.724 0-1.357-.634-1.357-1.358v-6.788c0-.724.633-1.357 1.357-1.357h7.875c.724 0 1.357.633 1.357 1.357v6.788c-.09.724-.634 1.358-1.357 1.358z"/><path id="eo" d="M1227.69 4197.376h-7.513c-.724 0-1.357-.634-1.357-1.358v-6.788c0-.724.633-1.357 1.357-1.357h7.512c.724 0 1.358.633 1.358 1.357v6.788c0 .724-.543 1.358-1.358 1.358z"/><path id="ep" d="M1240.089 4197.376h-7.512c-.724 0-1.358-.634-1.358-1.358v-6.788c0-.724.634-1.357 1.358-1.357h7.512c.724 0 1.357.633 1.357 1.357v6.788c0 .724-.633 1.358-1.357 1.358z"/><path id="eq" d="M1254.207 4194.118v1.991c0 .724-.543 1.267-1.267 1.267h-8.055a1.237 1.237 0 0 1-1.267-1.267v-6.969c0-.724.543-1.267 1.267-1.267h8.055c.724 0 1.267.543 1.267 1.267v4.978"/><path id="er" d="M1264.887 4197.376h-7.15c-.724 0-1.357-.634-1.357-1.358v-6.788c0-.724.633-1.357 1.357-1.357h7.15c.724 0 1.358.633 1.358 1.357v6.788c0 .724-.634 1.358-1.358 1.358z"/><path id="es" d="M1276.924 4197.376h-7.15c-.724 0-1.357-.634-1.357-1.358v-6.788c0-.724.633-1.357 1.357-1.357h7.15c.724 0 1.358.633 1.358 1.357v6.788c-.09.724-.634 1.358-1.358 1.358z"/><path id="et" d="M1288.871 4197.376h-7.15c-.724 0-1.358-.634-1.358-1.358v-6.788c0-.724.634-1.357 1.358-1.357h7.15c.724 0 1.358.633 1.358 1.357v6.788c0 .724-.634 1.358-1.358 1.358z"/><path id="eu" d="M1301.18 4196.29c0 .633-.453 1.086-1.086 1.086h-5.521c-.634 0-1.086-.453-1.086-1.086v-7.331c0-.634.452-1.086 1.086-1.086h5.52c.634 0 1.087.452 1.087 1.086z"/><path id="ew" d="M1330.685 4106.237c.814-2.625-2.263-6.607-6.336-6.607h-226.535c-4.163 0-7.24 4.073-6.336 6.697l23.26 53.942c.634 1.9 3.168 3.258 6.155 3.258h180.287c2.986 0 5.52-1.358 6.154-3.258z"/><path id="ey" d="M1330.594 4106.418c.815-2.625-2.263-5.159-6.335-5.159h-226.445c-4.163 0-7.15 2.444-6.336 5.159l23.26 55.66c.634 1.901 3.259 3.259 6.155 3.259h180.287c2.986 0 5.52-1.358 6.154-3.258z"/><path id="ez" d="M1127.952 4163.346c-.905 0-1.72-.453-1.99-.996l-21.45-56.475c-.182-.453 0-.815.452-1.177.271-.18.814-.543 1.629-.543h212.054c.905 0 1.448.362 1.63.543.27.181.633.634.452 1.177l-21.54 56.475c-.181.634-.996.996-1.992.996z"/><path id="eA" d="M1108.403 4139.995c0-.9 1.783-1.629 3.982-1.629 2.2 0 3.982.73 3.982 1.63 0 .9-1.782 1.629-3.982 1.629s-3.982-.73-3.982-1.63z"/><path id="eB" d="M1309.325 4139.995c0-.3.568-.543 1.267-.543.7 0 1.267.244 1.267.543 0 .3-.567.543-1.267.543s-1.267-.243-1.267-.543z"/><path id="eC" d="M1086.682 4129.859v106.706a21.07 21.07 0 0 1-.543 4.797l-.362 1.267-1.448 5.43-1.448-5.43-.363-1.267a21.655 21.655 0 0 1-.543-4.797v-106.706c0-1.267 1.087-2.353 2.354-2.353.633 0 1.267.271 1.72.724.361.362.633.995.633 1.629z"/><path id="eE" d="M1085.324 4129.406v106.706c0 1.63-.18 3.259-.543 4.797l-.362 1.267-.905 3.349-.543 2.082-1.448-5.43-.362-1.268a21.656 21.656 0 0 1-.543-4.797v-106.706c0-1.267.995-2.353 2.262-2.353h.09c.634 0 1.268.272 1.63.724.452.362.724.996.724 1.63z"/><path id="eF" d="M1085.324 4129.406v106.706a21.07 21.07 0 0 1-.543 4.797l-.362 1.267-.905 3.349c.271-1.9.543-4.525.543-7.874v-105.62c0-2.353-.543-3.982-1.177-4.978h.09c.634 0 1.268.272 1.63.724.453.362.724.996.724 1.63z"/><path id="eG" d="M1084.419 4242.176l-1.448 5.521-1.539-5.52z"/><path id="eH" d="M979.976 3930.837v102.724c0 3.077-2.535 5.611-5.612 5.611H812.902c-3.077 0-5.61-2.534-5.61-5.611v-102.724c0-3.077 2.533-5.611 5.61-5.611h161.553c2.986 0 5.52 2.534 5.52 5.611z"/><path id="eJ" d="M974.998 3927.488v102.724c0 3.077-2.534 5.612-5.611 5.612H807.925c-3.078 0-5.612-2.535-5.612-5.612v-102.724c0-3.077 2.534-5.61 5.612-5.61h161.552c2.987.09 5.52 2.533 5.52 5.61z"/><path id="eK" d="M960.155 3936.63v84.532c0 .633-.543 1.176-1.177 1.176H802.313v-86.795H959.07c.633-.09 1.086.453 1.086 1.087z"/><path id="eL" d="M960.155 3936.63v84.532c0 .633-.543 1.176-1.177 1.176H833.176v-86.795h125.893c.633-.09 1.086.453 1.086 1.087z"/><path id="eM" d="M966.31 3986.589c-.634 0-1.087-.453-1.087-1.086v-13.214c0-.634.453-1.086 1.086-1.086.634 0 1.086.452 1.086 1.086v13.214c0 .543-.452 1.086-1.086 1.086z"/><path id="eN" d="M820.505 3959.075h-5.883a.619.619 0 0 0-.633.634v3.348c0 .362.271.634.633.634h5.883a.619.619 0 0 0 .633-.634v-3.348c.09-.363-.18-.634-.633-.634z"/><path id="eO" d="M820.505 3952.83h-5.883a.619.619 0 0 0-.633.634v3.348c0 .362.271.634.633.634h5.883a.619.619 0 0 0 .633-.634v-3.348c.09-.362-.18-.634-.633-.634z"/><path id="eP" d="M820.505 3946.495h-5.883a.619.619 0 0 0-.633.633v3.349c0 .362.271.633.633.633h5.883a.619.619 0 0 0 .633-.633v-3.349c.09-.362-.18-.633-.633-.633z"/><path id="eQ" d="M820.505 3940.25h-5.883a.619.619 0 0 0-.633.633v3.35c0 .361.271.633.633.633h5.883a.619.619 0 0 0 .633-.634v-3.349c.09-.362-.18-.633-.633-.633z"/><path id="eR" d="M820.505 4012.835h-5.883a.619.619 0 0 0-.633.634v3.348c0 .362.271.634.633.634h5.883a.619.619 0 0 0 .633-.634v-3.348c.09-.272-.18-.634-.633-.634z"/><path id="eS" d="M820.505 4006.59h-5.883a.619.619 0 0 0-.633.634v3.349c0 .362.271.633.633.633h5.883a.619.619 0 0 0 .633-.633v-3.35c.09-.361-.18-.633-.633-.633z"/><path id="eT" d="M820.505 4000.255h-5.883a.619.619 0 0 0-.633.633v3.35c0 .361.271.633.633.633h5.883a.619.619 0 0 0 .633-.634v-3.258c.09-.362-.18-.724-.633-.724z"/><path id="eU" d="M820.505 3994.01h-5.883a.619.619 0 0 0-.633.634v3.348c0 .362.271.634.633.634h5.883a.619.619 0 0 0 .633-.634v-3.348c.09-.362-.18-.634-.633-.634z"/><path id="eV" d="M807.834 3978.896a9.774 9.774 0 0 1 9.775-9.775c5.398 0 9.774 4.376 9.774 9.775 0 5.398-4.376 9.774-9.774 9.774-5.399 0-9.775-4.376-9.775-9.774z"/><path id="eW" d="M813.536 3978.896a4.073 4.073 0 1 1 8.145 0 4.073 4.073 0 0 1-8.145 0z"/><path id="eX" d="M933.094 3895.359c.09.181 0 .362 0 .543-.362.905-2.444 1.72-3.53 1.72-.543 0-10.137.18-21.721.362-.09.724-.181 1.448-.362 2.081-1.81 7.603-8.689 13.214-16.744 13.214-8.145 0-14.933-5.611-16.743-13.214-.09-.452-.181-.905-.272-1.448-3.892.09-6.516.181-7.24.272-3.802.362-1.267-.181-3.892.18-1.991-.633-7.24-2.895-9.413-3.62-.18-.09-.271-.09-.452-.09 1.81-.453 7.693-3.077 9.775-3.71 2.624.361.18-.182 3.891.18.724.09 3.53.181 7.512.272 1.81-7.603 8.598-13.305 16.834-13.305 8.417 0 15.477 6.064 16.925 14.029 11.675.18 21.36.362 21.902.362 1.267-.09 3.892.995 3.53 2.172z"/><path id="eY" d="M904.585 3893.458c0 1.448-.182 2.806-.453 4.073-1.81 7.603-8.689 13.214-16.744 13.214s-14.933-5.611-16.743-13.214c-.362-1.267-.453-2.715-.453-4.073 0-9.503 7.693-17.286 17.287-17.286s17.106 7.783 17.106 17.286z"/><path id="eZ" d="M870.554 3897.531c0-7.298 7.497-13.214 16.744-13.214s16.744 5.916 16.744 13.214-7.497 13.214-16.744 13.214-16.744-5.916-16.744-13.214z"/><path id="fa" d="M894.81 3893.458c0 .634-.09 1.177-.181 1.72-.815 3.258-3.71 5.702-7.24 5.702-3.53 0-6.426-2.444-7.24-5.702-.182-.543-.182-1.176-.182-1.72 0-4.072 3.349-7.421 7.421-7.421 4.073 0 7.422 3.349 7.422 7.421z"/><path id="fb" d="M929.836 3893.64c.09.18 0 .361 0 .542-.362.906-2.444 1.72-3.53 1.72-1.267 0-59.372.996-63.173 1.267-3.801.272-1.267-.18-3.892.181-1.99-.633-7.24-2.896-9.412-3.62-.181-.09-.272-.09-.453-.09 1.81-.453 7.693-3.078 9.775-3.711 2.624.362.18-.181 3.892.18 3.71.363 61.815 1.268 63.172 1.268 1.268.09 3.892 1.176 3.62 2.262z"/><path id="fc" d="M929.655 3893.82c.09.182 0 .362 0 .544-.09 0-.09-.091-.09-.091-.363-.634-1.449-.996-5.25-.996s-45.524 0-56.657-.18c-9.684-.182-14.933.361-18.1.904-.182-.09-.272-.09-.453-.09 1.81-.453 7.693-3.077 9.774-3.71 2.625.361.181-.182 3.892.18 3.71.362 61.815 1.267 63.173 1.267 1.448-.09 3.982 1.086 3.71 2.172z"/><path id="fd" d="M881.053 3894.363h-14.119c-.543 0-.995-.452-.995-.995 0-.543.452-.996.995-.996h14.12c.542 0 .995.453.995.996 0 .543-.453.995-.996.995z"/><path id="ff" d="M1289.143 3827.118c-.182.18-.453.271-.725.271h-14.48c-.543 0-.996-.452-.996-.995 0-.272.09-.543.272-.724.18-.181.452-.272.724-.272h14.48c.543 0 .996.453.996.996 0 .362-.181.543-.271.724zm.633 6.788c0-3.62 2.625-3.801 2.625-6.97 0-3.348-2.625-3.981-2.625-6.335v-6.335a8.498 8.498 0 0 0-8.508-8.507c-2.353 0-4.525.995-6.063 2.534-1.539 1.538-2.534 3.71-2.534 6.064v6.697c-.181 2.172-2.625 2.896-2.625 6.064 0 3.077 2.444 3.349 2.625 6.516v19.821c0 6.154-1.54 8.236-2.625 9.775h22.355c-1.086-1.54-2.625-3.53-2.625-9.775v-19.55z"/><path id="fh" d="M1281.088 3946.495a1.237 1.237 0 0 1-1.268-1.267c0-.724.543-1.267 1.268-1.267.724 0 1.267.543 1.267 1.267 0 .724-.543 1.267-1.267 1.267zm0 4.706a1.237 1.237 0 0 1-1.268-1.267c0-.724.543-1.267 1.268-1.267.724 0 1.267.543 1.267 1.267 0 .724-.543 1.267-1.267 1.267zm0 4.706a1.237 1.237 0 0 1-1.268-1.267c0-.724.543-1.267 1.268-1.267.724 0 1.267.543 1.267 1.267 0 .634-.543 1.267-1.267 1.267zm0 4.616a1.237 1.237 0 0 1-1.268-1.267c0-.724.543-1.267 1.268-1.267.724 0 1.267.543 1.267 1.267 0 .724-.543 1.267-1.267 1.267zm0 4.706a1.237 1.237 0 0 1-1.268-1.267c0-.724.543-1.267 1.268-1.267.724 0 1.267.543 1.267 1.267 0 .724-.543 1.267-1.267 1.267zm0 4.707a1.237 1.237 0 0 1-1.268-1.267c0-.725.543-1.268 1.268-1.268.724 0 1.267.543 1.267 1.268 0 .633-.543 1.267-1.267 1.267zm-11.042-71.047h.128l-.128-.181zm2.625 9.593v80.731c0 2.353.995 4.526 2.534 6.064 1.538 1.539 3.71 2.534 6.063 2.534a8.498 8.498 0 0 0 8.508-8.507v-80.64c0-6.246 1.539-8.237 2.625-9.775h-22.227c1.075 1.518 2.497 3.59 2.497 9.593z"/><path id="fi" d="M1296.836 3893.82c0 2.806-2.263 5.16-5.16 5.16h-20.906c-2.806 0-5.159-2.263-5.159-5.16v-25.884c0-2.806 2.263-5.159 5.159-5.159h20.907c2.805 0 5.159 2.263 5.159 5.159z"/><path id="fj" d="M1295.75 3875.267c.271.995.814 1.81 1.81 1.81a.619.619 0 0 0 .633-.634v-4.887a.619.619 0 0 0-.633-.633c-.996 0-1.63.814-1.81 1.81-.182.995-.272 1.72 0 2.534z"/><path id="fk" d="M1296.745 3891.105h.362c.09 0 .181-.09.181-.18v-9.051c0-.09-.09-.181-.181-.181h-.362c-.09 0-.181.09-.181.18v9.051c0 .09.09.181.18.181z"/><path id="fl" d="M1295.387 3893.368c0 2.444-1.99 4.344-4.344 4.344h-19.55c-2.443 0-4.343-1.991-4.343-4.344v-25.07c0-2.444 1.99-4.344 4.344-4.344h19.55c2.443 0 4.343 1.99 4.343 4.344z"/><path id="fm" d="M753.621 3941.607c0-3.891-3.167-7.06-7.06-7.06h-34.03c-3.89 0-7.059 3.169-7.059 7.06v83.537c0 3.892 3.168 7.06 7.06 7.06h34.03c3.892 0 7.06-3.168 7.06-7.06v-83.537z"/><path id="fo" d="M750.816 3939.164c0-3.892-3.168-7.06-7.06-7.06h-34.03c-3.892 0-7.06 3.168-7.06 7.06v83.536c0 3.892 3.168 7.06 7.06 7.06h34.03c3.892 0 7.06-3.168 7.06-7.06v-83.536z"/><path id="fp" d="M733.348 3935.362a.905.905 0 1 1 1.81 0 .905.905 0 0 1-1.81 0z"/><path id="fq" d="M730.633 3935.363c0 .271-.181.452-.453.452h-7.15c-.271 0-.452-.181-.452-.452 0-.272.181-.453.452-.453h7.15c.272 0 .453.181.453.453z"/><path id="fr" d="M748.191 4022.881a4.481 4.481 0 0 1-4.525 4.526h-33.668a4.481 4.481 0 0 1-4.526-4.526v-83.446a4.481 4.481 0 0 1 4.526-4.525h4.344c.362 0 .543.271.633.633v.362c0 1.268 1.087 2.354 2.354 2.354h19.006c1.267 0 2.353-1.086 2.353-2.354v-.362c0-.362.271-.633.633-.633h4.345a4.481 4.481 0 0 1 4.525 4.525z"/><linearGradient id="b" x1="1131.51" x2="1208.89" y1="3804.63" y2="3804.63" gradientUnits="userSpaceOnUse"><stop offset="0" stop-color="#05a8da"/><stop offset=".99" stop-color="#35e6a8"/></linearGradient><linearGradient id="k" x1="1174.27" x2="1283.36" y1="3676.95" y2="3676.95" gradientUnits="userSpaceOnUse"><stop offset="0" stop-color="#0e718b"/><stop offset="1" stop-color="#0095a3"/></linearGradient><linearGradient id="n" x1="1215.79" x2="1240.04" y1="3702.6" y2="3702.6" gradientUnits="userSpaceOnUse"><stop offset="0" stop-color="#05a8da"/><stop offset=".99" stop-color="#35e6a8"/></linearGradient><linearGradient id="p" x1="1228.72" x2="1278.2" y1="3682.1" y2="3682.1" gradientUnits="userSpaceOnUse"><stop offset="0" stop-color="#05a8da"/><stop offset=".99" stop-color="#35e6a8"/></linearGradient><linearGradient id="r" x1="1226.31" x2="1257.16" y1="3648.76" y2="3648.76" gradientUnits="userSpaceOnUse"><stop offset="0" stop-color="#05a8da"/><stop offset=".99" stop-color="#35e6a8"/></linearGradient><linearGradient id="t" x1="1193.17" x2="1230.96" y1="3650.42" y2="3650.42" gradientUnits="userSpaceOnUse"><stop offset="0" stop-color="#05a8da"/><stop offset=".99" stop-color="#35e6a8"/></linearGradient><linearGradient id="v" x1="1174.01" x2="1226.4" y1="3679.9" y2="3679.9" gradientUnits="userSpaceOnUse"><stop offset="0" stop-color="#05a8da"/><stop offset=".99" stop-color="#35e6a8"/></linearGradient><linearGradient id="x" x1="1221.54" x2="1249.5" y1="3702.66" y2="3702.66" gradientUnits="userSpaceOnUse"><stop offset="0" stop-color="#05a8da"/><stop offset=".99" stop-color="#35e6a8"/></linearGradient><linearGradient id="z" x1="1230.45" x2="1281.9" y1="3677.32" y2="3677.32" gradientUnits="userSpaceOnUse"><stop offset="0" stop-color="#05a8da"/><stop offset=".99" stop-color="#35e6a8"/></linearGradient><linearGradient id="B" x1="1222.26" x2="1246.58" y1="3647.52" y2="3647.52" gradientUnits="userSpaceOnUse"><stop offset="0" stop-color="#05a8da"/><stop offset=".99" stop-color="#35e6a8"/></linearGradient><linearGradient id="D" x1="1182.98" x2="1228.54" y1="3661.34" y2="3661.34" gradientUnits="userSpaceOnUse"><stop offset="0" stop-color="#05a8da"/><stop offset=".99" stop-color="#35e6a8"/></linearGradient><linearGradient id="F" x1="1182.02" x2="1228.93" y1="3688.35" y2="3688.35" gradientUnits="userSpaceOnUse"><stop offset="0" stop-color="#05a8da"/><stop offset=".99" stop-color="#35e6a8"/></linearGradient><linearGradient id="H" x1="1229.34" x2="1271.88" y1="3691.65" y2="3691.65" gradientUnits="userSpaceOnUse"><stop offset="0" stop-color="#05a8da"/><stop offset=".99" stop-color="#35e6a8"/></linearGradient><linearGradient id="J" x1="1231.88" x2="1278.37" y1="3665.64" y2="3665.64" gradientUnits="userSpaceOnUse"><stop offset="0" stop-color="#05a8da"/><stop offset=".99" stop-color="#35e6a8"/></linearGradient><linearGradient id="L" x1="1211.64" x2="1237.8" y1="3647.11" y2="3647.11" gradientUnits="userSpaceOnUse"><stop offset="0" stop-color="#05a8da"/><stop offset=".99" stop-color="#35e6a8"/></linearGradient><linearGradient id="N" x1="1177.11" x2="1227.75" y1="3672.74" y2="3672.74" gradientUnits="userSpaceOnUse"><stop offset="0" stop-color="#05a8da"/><stop offset=".99" stop-color="#35e6a8"/></linearGradient><linearGradient id="P" x1="1203.9" x2="1236.07" y1="3698.06" y2="3698.06" gradientUnits="userSpaceOnUse"><stop offset="0" stop-color="#05a8da"/><stop offset=".99" stop-color="#35e6a8"/></linearGradient><linearGradient id="R" x1="1204.95" x2="1233.08" y1="3701.86" y2="3701.86" gradientUnits="userSpaceOnUse"><stop offset="0" stop-color="#05a8da"/><stop offset=".99" stop-color="#35e6a8"/></linearGradient><linearGradient id="T" x1="1227.07" x2="1267.25" y1="3695.58" y2="3695.58" gradientUnits="userSpaceOnUse"><stop offset="0" stop-color="#05a8da"/><stop offset=".99" stop-color="#35e6a8"/></linearGradient><linearGradient id="V" x1="1231.99" x2="1278.07" y1="3660.13" y2="3660.13" gradientUnits="userSpaceOnUse"><stop offset="0" stop-color="#05a8da"/><stop offset=".99" stop-color="#35e6a8"/></linearGradient><linearGradient id="X" x1="1210.85" x2="1238.25" y1="3644.51" y2="3644.51" gradientUnits="userSpaceOnUse"><stop offset="0" stop-color="#05a8da"/><stop offset=".99" stop-color="#35e6a8"/></linearGradient><linearGradient id="Z" x1="1174" x2="1227.03" y1="3671.22" y2="3671.22" gradientUnits="userSpaceOnUse"><stop offset="0" stop-color="#05a8da"/><stop offset=".99" stop-color="#35e6a8"/></linearGradient><linearGradient id="ab" x1="1231.9" x2="1273.3" y1="3673.42" y2="3673.42" gradientUnits="userSpaceOnUse"><stop offset="0" stop-color="#05a8da"/><stop offset=".99" stop-color="#35e6a8"/></linearGradient><linearGradient id="ad" x1="1224.21" x2="1245.29" y1="3653.88" y2="3653.88" gradientUnits="userSpaceOnUse"><stop offset="0" stop-color="#05a8da"/><stop offset=".99" stop-color="#35e6a8"/></linearGradient><linearGradient id="af" x1="1189" x2="1228.2" y1="3666.19" y2="3666.19" gradientUnits="userSpaceOnUse"><stop offset="0" stop-color="#05a8da"/><stop offset=".99" stop-color="#35e6a8"/></linearGradient><linearGradient id="ah" x1="1197.2" x2="1228.62" y1="3689.7" y2="3689.7" gradientUnits="userSpaceOnUse"><stop offset="0" stop-color="#05a8da"/><stop offset=".99" stop-color="#35e6a8"/></linearGradient><linearGradient id="aj" x1="1225.91" x2="1246.5" y1="3696.47" y2="3696.47" gradientUnits="userSpaceOnUse"><stop offset="0" stop-color="#05a8da"/><stop offset=".99" stop-color="#35e6a8"/></linearGradient><linearGradient id="al" x1="1230.39" x2="1257.77" y1="3684.32" y2="3684.32" gradientUnits="userSpaceOnUse"><stop offset="0" stop-color="#05a8da"/><stop offset=".99" stop-color="#35e6a8"/></linearGradient><linearGradient id="an" x1="1231.51" x2="1259.9" y1="3668.25" y2="3668.25" gradientUnits="userSpaceOnUse"><stop offset="0" stop-color="#05a8da"/><stop offset=".99" stop-color="#35e6a8"/></linearGradient><linearGradient id="ap" x1="1217.99" x2="1234.91" y1="3657.71" y2="3657.71" gradientUnits="userSpaceOnUse"><stop offset="0" stop-color="#05a8da"/><stop offset=".99" stop-color="#35e6a8"/></linearGradient><linearGradient id="ar" x1="1197.38" x2="1229" y1="3674.17" y2="3674.17" gradientUnits="userSpaceOnUse"><stop offset="0" stop-color="#05a8da"/><stop offset=".99" stop-color="#35e6a8"/></linearGradient><linearGradient id="at" x1="1215.76" x2="1234.71" y1="3689.71" y2="3689.71" gradientUnits="userSpaceOnUse"><stop offset="0" stop-color="#05a8da"/><stop offset=".99" stop-color="#35e6a8"/></linearGradient><linearGradient id="av" x1="1225.76" x2="1242.9" y1="3690.15" y2="3690.15" gradientUnits="userSpaceOnUse"><stop offset="0" stop-color="#05a8da"/><stop offset=".99" stop-color="#35e6a8"/></linearGradient><linearGradient id="ax" x1="1231.23" x2="1262.78" y1="3674.61" y2="3674.61" gradientUnits="userSpaceOnUse"><stop offset="0" stop-color="#05a8da"/><stop offset=".99" stop-color="#35e6a8"/></linearGradient><linearGradient id="az" x1="1226.21" x2="1241.13" y1="3656.33" y2="3656.33" gradientUnits="userSpaceOnUse"><stop offset="0" stop-color="#05a8da"/><stop offset=".99" stop-color="#35e6a8"/></linearGradient><linearGradient id="aB" x1="1202.13" x2="1230.06" y1="3664.8" y2="3664.8" gradientUnits="userSpaceOnUse"><stop offset="0" stop-color="#05a8da"/><stop offset=".99" stop-color="#35e6a8"/></linearGradient><linearGradient id="aD" x1="1201.51" x2="1230.29" y1="3681.36" y2="3681.36" gradientUnits="userSpaceOnUse"><stop offset="0" stop-color="#05a8da"/><stop offset=".99" stop-color="#35e6a8"/></linearGradient><linearGradient id="aF" x1="1224.06" x2="1235.58" y1="3688.76" y2="3688.76" gradientUnits="userSpaceOnUse"><stop offset="0" stop-color="#05a8da"/><stop offset=".99" stop-color="#35e6a8"/></linearGradient><linearGradient id="aH" x1="1230.85" x2="1254.04" y1="3679.82" y2="3679.82" gradientUnits="userSpaceOnUse"><stop offset="0" stop-color="#05a8da"/><stop offset=".99" stop-color="#35e6a8"/></linearGradient><linearGradient id="aJ" x1="1230.33" x2="1246.47" y1="3663.56" y2="3663.56" gradientUnits="userSpaceOnUse"><stop offset="0" stop-color="#05a8da"/><stop offset=".99" stop-color="#35e6a8"/></linearGradient><linearGradient id="aL" x1="1215.56" x2="1232.53" y1="3662.92" y2="3662.92" gradientUnits="userSpaceOnUse"><stop offset="0" stop-color="#05a8da"/><stop offset=".99" stop-color="#35e6a8"/></linearGradient><linearGradient id="aN" x1="1204.36" x2="1229.8" y1="3677.09" y2="3677.09" gradientUnits="userSpaceOnUse"><stop offset="0" stop-color="#05a8da"/><stop offset=".99" stop-color="#35e6a8"/></linearGradient><linearGradient id="aP" x1="843.42" x2="932.23" y1="3601.77" y2="3601.77" gradientUnits="userSpaceOnUse"><stop offset="0" stop-color="#05a8da"/><stop offset=".99" stop-color="#35e6a8"/></linearGradient><linearGradient id="aS" x1="664.42" x2="1111.24" y1="3599.97" y2="3599.97" gradientUnits="userSpaceOnUse"><stop offset="0" stop-color="#05a8da"/><stop offset=".99" stop-color="#35e6a8"/></linearGradient><linearGradient id="aU" x1="855.47" x2="935.85" y1="3560.48" y2="3610.32" gradientUnits="userSpaceOnUse"><stop offset="0" stop-color="#059acc"/><stop offset=".99" stop-color="#03c27c"/></linearGradient><linearGradient id="aY" x1="665.55" x2="1109.56" y1="3658.81" y2="3658.81" gradientUnits="userSpaceOnUse"><stop offset="0" stop-color="#05a8da"/><stop offset=".99" stop-color="#35e6a8"/></linearGradient><linearGradient id="ba" x1="839.46" x2="935.65" y1="3706.33" y2="3706.33" gradientUnits="userSpaceOnUse"><stop offset="0" stop-color="#05a8da"/><stop offset=".99" stop-color="#35e6a8"/></linearGradient><linearGradient id="bc" x1="664.4" x2="1110.71" y1="3689.88" y2="3689.88" gradientUnits="userSpaceOnUse"><stop offset="0" stop-color="#05a8da"/><stop offset=".99" stop-color="#35e6a8"/></linearGradient><linearGradient id="bg" x1="790.91" x2="982.2" y1="3837.91" y2="3761.77" gradientUnits="userSpaceOnUse"><stop offset="0" stop-color="#05a8da"/><stop offset=".99" stop-color="#35e6a8"/></linearGradient><linearGradient id="bk" x1="1012.85" x2="1051.18" y1="3801.71" y2="3801.71" gradientUnits="userSpaceOnUse"><stop offset="0" stop-color="#05a8da"/><stop offset=".99" stop-color="#35e6a8"/></linearGradient><linearGradient id="bp" x1="1019.99" x2="1045.69" y1="3898.77" y2="3898.77" gradientUnits="userSpaceOnUse"><stop offset="0" stop-color="#0e718b"/><stop offset="1" stop-color="#0095a3"/></linearGradient><linearGradient id="bs" x1="704.5" x2="640.88" y1="3914.29" y2="4016.27" gradientUnits="userSpaceOnUse"><stop offset="0" stop-color="#05a8da"/><stop offset=".99" stop-color="#35e6a8"/></linearGradient><linearGradient id="bC" x1="694.68" x2="737.28" y1="4181.24" y2="4181.24" gradientUnits="userSpaceOnUse"><stop offset="0" stop-color="#05a8da"/><stop offset=".99" stop-color="#35e6a8"/></linearGradient><linearGradient id="bI" x1="697.81" x2="715.28" y1="4199.92" y2="4199.92" gradientUnits="userSpaceOnUse"><stop offset="0" stop-color="#05a8da"/><stop offset=".99" stop-color="#35e6a8"/></linearGradient><linearGradient id="bO" x1="716.69" x2="734.15" y1="4199.91" y2="4199.91" gradientUnits="userSpaceOnUse"><stop offset="0" stop-color="#05a8da"/><stop offset=".99" stop-color="#35e6a8"/></linearGradient><linearGradient id="bV" x1="694.68" x2="736.83" y1="4208.33" y2="4208.33" gradientUnits="userSpaceOnUse"><stop offset="0" stop-color="#268dcd"/><stop offset=".99" stop-color="#39e3a5"/></linearGradient><linearGradient id="bX" x1="694.68" x2="736.83" y1="4206.55" y2="4206.55" gradientUnits="userSpaceOnUse"><stop offset="0" stop-color="#05a8da"/><stop offset=".99" stop-color="#35e6a8"/></linearGradient><linearGradient id="bZ" x1="705.37" x2="726.44" y1="4189.9" y2="4189.9" gradientUnits="userSpaceOnUse"><stop offset="0" stop-color="#059acc"/><stop offset=".99" stop-color="#03c27c"/></linearGradient><linearGradient id="cd" x1="695.81" x2="735.85" y1="4188.92" y2="4188.92" gradientUnits="userSpaceOnUse"><stop offset="0" stop-color="#059acc"/><stop offset=".99" stop-color="#03c27c"/></linearGradient><linearGradient id="cg" x1="633.94" x2="675.87" y1="4200.26" y2="4200.26" gradientUnits="userSpaceOnUse"><stop offset="0" stop-color="#268dcd"/><stop offset=".99" stop-color="#39e3a5"/></linearGradient><linearGradient id="ci" x1="633.94" x2="675.87" y1="4198.61" y2="4198.61" gradientUnits="userSpaceOnUse"><stop offset="0" stop-color="#05a8da"/><stop offset=".99" stop-color="#35e6a8"/></linearGradient><linearGradient id="ck" x1="633.94" x2="675.87" y1="4181.31" y2="4181.31" gradientUnits="userSpaceOnUse"><stop offset="0" stop-color="#059acc"/><stop offset=".99" stop-color="#03c27c"/></linearGradient><linearGradient id="cm" x1="633.94" x2="675.87" y1="4180.34" y2="4180.34" gradientUnits="userSpaceOnUse"><stop offset="0" stop-color="#05a8da"/><stop offset=".99" stop-color="#35e6a8"/></linearGradient><linearGradient id="co" x1="644.58" x2="665.54" y1="4189.4" y2="4189.4" gradientUnits="userSpaceOnUse"><stop offset="0" stop-color="#059acc"/><stop offset=".99" stop-color="#03c27c"/></linearGradient><linearGradient id="cq" x1="644.63" x2="665.49" y1="4189.78" y2="4189.78" gradientUnits="userSpaceOnUse"><stop offset="0" stop-color="#059acc"/><stop offset=".99" stop-color="#03c27c"/></linearGradient><linearGradient id="cy" x1="589.43" x2="604.01" y1="4205.08" y2="4205.08" gradientUnits="userSpaceOnUse"><stop offset="0" stop-color="#05a8da"/><stop offset=".99" stop-color="#35e6a8"/></linearGradient><linearGradient id="cC" x1="606.26" x2="619.68" y1="4196.4" y2="4196.4" gradientUnits="userSpaceOnUse"><stop offset="0" stop-color="#05a8da"/><stop offset=".99" stop-color="#35e6a8"/></linearGradient><linearGradient id="cM" x1="750.18" x2="1006.98" y1="4122.46" y2="4122.46" gradientUnits="userSpaceOnUse"><stop offset="0" stop-color="#05a8da"/><stop offset=".99" stop-color="#35e6a8"/></linearGradient><linearGradient id="cQ" x1="762.12" x2="988.19" y1="4301.49" y2="4139.81" gradientUnits="userSpaceOnUse"><stop offset="0" stop-color="#05a8da"/><stop offset=".99" stop-color="#35e6a8"/></linearGradient><linearGradient id="cX" x1="1105.31" x2="1242.54" y1="4060.14" y2="3886.25" gradientUnits="userSpaceOnUse"><stop offset="0" stop-color="#05a8da"/><stop offset=".99" stop-color="#35e6a8"/></linearGradient><linearGradient id="dc" x1="1156.43" x2="1398.95" y1="4217.54" y2="4153.78" gradientUnits="userSpaceOnUse"><stop offset="0" stop-color="#059acc"/><stop offset=".99" stop-color="#03c27c"/></linearGradient><linearGradient id="ev" x1="1091.29" x2="1330.79" y1="4131.58" y2="4131.58" gradientUnits="userSpaceOnUse"><stop offset="0" stop-color="#059acc"/><stop offset=".99" stop-color="#03c27c"/></linearGradient><linearGradient id="ex" x1="1108.88" x2="1319.61" y1="4097.54" y2="4163.71" gradientUnits="userSpaceOnUse"><stop offset="0" stop-color="#05a8da"/><stop offset=".85" stop-color="#2eddaf"/><stop offset=".99" stop-color="#35e6a8"/></linearGradient><linearGradient id="eD" x1="1083.14" x2="1082.76" y1="4123.13" y2="4246.5" gradientUnits="userSpaceOnUse"><stop offset="0" stop-color="#05a8da"/><stop offset=".99" stop-color="#35e6a8"/></linearGradient><linearGradient id="eI" x1="802.32" x2="974.96" y1="3978.86" y2="3978.86" gradientUnits="userSpaceOnUse"><stop offset="0" stop-color="#0e718b"/><stop offset="1" stop-color="#0095a3"/></linearGradient><linearGradient id="fe" x1="1257.92" x2="1287.93" y1="3870.4" y2="3830.04" gradientUnits="userSpaceOnUse"><stop offset="0" stop-color="#05a8da"/><stop offset=".99" stop-color="#35e6a8"/></linearGradient><linearGradient id="fg" x1="1307.98" x2="1337.99" y1="3907.64" y2="3867.29" gradientUnits="userSpaceOnUse"><stop offset="0" stop-color="#05a8da"/><stop offset=".99" stop-color="#35e6a8"/></linearGradient><linearGradient id="fn" x1="693.88" x2="765.42" y1="3917.57" y2="4055.6" gradientUnits="userSpaceOnUse"><stop offset="0" stop-color="#05a8da"/><stop offset=".99" stop-color="#35e6a8"/></linearGradient></defs><use fill="#447489" xlink:href="#a" opacity=".1" transform="translate(-589 -3568)"/><use fill="url(#b)" xlink:href="#c" transform="translate(-589 -3568)"/><use fill="#0b5a6e" xlink:href="#d" transform="translate(-589 -3568)"/><use fill="#0d667d" xlink:href="#e" transform="translate(-589 -3568)"/><use fill="#77f0ea" xlink:href="#f" transform="translate(-589 -3568)"/><use fill="#77f0ea" xlink:href="#g" transform="translate(-589 -3568)"/><use fill="#77f0ea" xlink:href="#h" transform="translate(-589 -3568)"/><use fill="#77f0ea" xlink:href="#i" transform="translate(-589 -3568)"/><use fill="#77f0ea" xlink:href="#j" transform="translate(-589 -3568)"/><use fill="url(#k)" xlink:href="#l" transform="translate(-589 -3568)"/><use fill="#0d667d" xlink:href="#m" transform="translate(-589 -3568)"/><use fill="url(#n)" xlink:href="#o" transform="translate(-589 -3568)"/><use fill="url(#p)" xlink:href="#q" transform="translate(-589 -3568)"/><use fill="url(#r)" xlink:href="#s" transform="translate(-589 -3568)"/><use fill="url(#t)" xlink:href="#u" transform="translate(-589 -3568)"/><use fill="url(#v)" xlink:href="#w" transform="translate(-589 -3568)"/><use fill="url(#x)" xlink:href="#y" transform="translate(-589 -3568)"/><use fill="url(#z)" xlink:href="#A" transform="translate(-589 -3568)"/><use fill="url(#B)" xlink:href="#C" transform="translate(-589 -3568)"/><use fill="url(#D)" xlink:href="#E" transform="translate(-589 -3568)"/><use fill="url(#F)" xlink:href="#G" transform="translate(-589 -3568)"/><g transform="translate(-589 -3568)"><use fill="url(#H)" xlink:href="#I"/><use fill="url(#J)" xlink:href="#K"/><use fill="url(#L)" xlink:href="#M"/><use fill="url(#N)" xlink:href="#O"/><use fill="url(#P)" xlink:href="#Q"/></g><g transform="translate(-589 -3568)"><use fill="url(#R)" xlink:href="#S"/><use fill="url(#T)" xlink:href="#U"/><use fill="url(#V)" xlink:href="#W"/><use fill="url(#X)" xlink:href="#Y"/><use fill="url(#Z)" xlink:href="#aa"/></g><g transform="translate(-589 -3568)"><use fill="url(#ab)" xlink:href="#ac"/><use fill="url(#ad)" xlink:href="#ae"/><use fill="url(#af)" xlink:href="#ag"/><use fill="url(#ah)" xlink:href="#ai"/><use fill="url(#aj)" xlink:href="#ak"/></g><g transform="translate(-589 -3568)"><use fill="url(#al)" xlink:href="#am"/><use fill="url(#an)" xlink:href="#ao"/><use fill="url(#ap)" xlink:href="#aq"/><use fill="url(#ar)" xlink:href="#as"/><use fill="url(#at)" xlink:href="#au"/></g><g transform="translate(-589 -3568)"><use fill="url(#av)" xlink:href="#aw"/><use fill="url(#ax)" xlink:href="#ay"/><use fill="url(#az)" xlink:href="#aA"/><use fill="url(#aB)" xlink:href="#aC"/><use fill="url(#aD)" xlink:href="#aE"/></g><g transform="translate(-589 -3568)"><use fill="url(#aF)" xlink:href="#aG"/><use fill="url(#aH)" xlink:href="#aI"/><use fill="url(#aJ)" xlink:href="#aK"/><use fill="url(#aL)" xlink:href="#aM"/><use fill="url(#aN)" xlink:href="#aO"/></g><g transform="translate(-589 -3568)"><use fill="url(#aP)" xlink:href="#aQ"/><use fill="#0d667d" xlink:href="#aR"/><use fill="url(#aS)" xlink:href="#aT"/><use fill="url(#aU)" xlink:href="#aV"/><use fill="#059bcb" xlink:href="#aW"/><use fill="#05b4cf" xlink:href="#aX"/></g><g transform="translate(-589 -3568)"><use fill="url(#aY)" xlink:href="#aZ"/><use fill="url(#ba)" xlink:href="#bb"/><use fill="url(#bc)" xlink:href="#bd"/><use fill="#0d667d" xlink:href="#be"/></g><g transform="translate(-589 -3568)"><use fill="#447489" xlink:href="#bf" opacity=".1"/><use fill="url(#bg)" xlink:href="#bh"/><use fill="#fff" xlink:href="#bi" opacity=".3"/></g><g transform="translate(-589 -3568)"><use fill="#447489" xlink:href="#bj" opacity=".1"/><use fill="url(#bk)" xlink:href="#bl"/><use fill="#77f0ea" xlink:href="#bm"/></g><g transform="translate(-589 -3568)"><use fill="#0b5a6e" xlink:href="#bn"/><use fill="#0b5a6e" xlink:href="#bo"/><use fill="url(#bp)" xlink:href="#bq"/></g><g transform="translate(-589 -3568)"><use fill="#447489" xlink:href="#br" opacity=".1"/><use fill="url(#bs)" xlink:href="#bt"/><use fill="#0d667d" xlink:href="#bu"/><use fill="#fff" xlink:href="#bv" opacity=".3"/><use fill="#fff" xlink:href="#bw" opacity=".3"/></g><g transform="translate(-589 -3568)"><use fill="#447489" xlink:href="#bx" opacity=".1"/><use fill="#0193a2" xlink:href="#by"/><use fill="#30e0ad" xlink:href="#bz"/></g><g transform="translate(-589 -3568)"><use fill="#447489" xlink:href="#bA" opacity=".1"/><use fill="#447489" xlink:href="#bB" opacity=".1"/><use fill="url(#bC)" xlink:href="#bD"/><use fill="#0d667d" xlink:href="#bE" opacity=".5"/><use fill="#0d667d" xlink:href="#bF" opacity=".4"/><use fill="#0d667d" xlink:href="#bG" opacity=".5"/><use fill="#0d667d" xlink:href="#bH" opacity=".4"/><use fill="url(#bI)" xlink:href="#bJ"/><use fill="#fff" xlink:href="#bK" opacity=".2"/><use fill="#747a80" xlink:href="#bL"/><use fill="#0d667d" xlink:href="#bM"/><use fill="#474747" xlink:href="#bN"/><use fill="url(#bO)" xlink:href="#bP"/><use fill="#0d667d" xlink:href="#bQ"/><use fill="#474747" xlink:href="#bR"/><use fill="#0d667d" xlink:href="#bS"/><use fill="#fff" xlink:href="#bT" opacity=".2"/><use fill="#0d667d" xlink:href="#bU"/><use fill="url(#bV)" xlink:href="#bW"/><use fill="url(#bX)" xlink:href="#bY"/><use fill="url(#bZ)" xlink:href="#ca"/><use fill="#d1dcf0" xlink:href="#cb" opacity=".2"/><use fill="#d1dcf0" xlink:href="#cc" opacity=".2"/><use fill="url(#cd)" xlink:href="#ce"/><use fill="#447489" xlink:href="#cf" opacity=".1"/><use fill="url(#cg)" xlink:href="#ch"/><use fill="url(#ci)" xlink:href="#cj"/><use fill="url(#ck)" xlink:href="#cl"/><use fill="url(#cm)" xlink:href="#cn"/><use fill="url(#co)" xlink:href="#cp"/><use fill="url(#cq)" xlink:href="#cr"/><use fill="#d1dcf0" xlink:href="#cs" opacity=".2"/><use fill="#d1dcf0" xlink:href="#ct" opacity=".2"/><use fill="#447489" xlink:href="#cu" opacity=".1"/><g opacity=".1"><use fill="#447489" xlink:href="#cv" opacity=".01"/><use xlink:href="#cw" opacity=".1"/><use xlink:href="#cx" opacity=".1"/></g><use fill="url(#cy)" xlink:href="#cz"/><use fill="#0d667d" xlink:href="#cA"/><use fill="#0d667d" xlink:href="#cB"/><use fill="url(#cC)" xlink:href="#cD"/><use fill="#0d667d" xlink:href="#cE"/><use fill="#0d667d" xlink:href="#cF"/><use fill="#0d667d" xlink:href="#cG"/><use fill="#d1dcf0" xlink:href="#cH" opacity=".2"/><use fill="#0d667d" xlink:href="#cI" opacity=".5"/><use fill="#d1dcf0" xlink:href="#cJ" opacity=".2"/><use fill="#0d667d" xlink:href="#cK" opacity=".5"/></g><g transform="translate(-589 -3568)"><use fill="#447489" xlink:href="#cL" opacity=".1"/><use fill="url(#cM)" xlink:href="#cN"/><use fill="#0e718b" xlink:href="#cO"/><use fill="#0d667d" xlink:href="#cP"/><use fill="url(#cQ)" xlink:href="#cR"/><use fill="#fff" xlink:href="#cS" opacity=".3"/><use fill="#fff" xlink:href="#cT" opacity=".3"/><use fill="#fff" xlink:href="#cU" opacity=".3"/><use fill="#0e718b" xlink:href="#cV"/></g><g transform="translate(-589 -3568)"><use fill="#447489" xlink:href="#cW" opacity=".1"/><use fill="url(#cX)" xlink:href="#cY"/><use fill="#0d667d" xlink:href="#cZ"/><use fill="#fff" xlink:href="#da" opacity=".3"/><use fill="#fff" xlink:href="#db" opacity=".3"/></g><g transform="translate(-589 -3568)"><use fill="url(#dc)" xlink:href="#dd"/><g opacity=".3" fill="#fff"><use xlink:href="#de" opacity=".3"/><use xlink:href="#df" opacity=".3"/><use xlink:href="#dg" opacity=".3"/><use xlink:href="#dh" opacity=".3"/><use xlink:href="#di" opacity=".3"/><use xlink:href="#dj" opacity=".3"/><use xlink:href="#dk" opacity=".3"/><use xlink:href="#dl" opacity=".3"/><use xlink:href="#dm" opacity=".3"/><use xlink:href="#dn" opacity=".3"/><use xlink:href="#do" opacity=".3"/><use xlink:href="#dp" opacity=".3"/><use xlink:href="#dq" opacity=".3"/><use xlink:href="#dr" opacity=".3"/><use xlink:href="#ds" opacity=".3"/><use xlink:href="#dt" opacity=".3"/><use xlink:href="#du" opacity=".3"/><use xlink:href="#dv" opacity=".3"/><use xlink:href="#dw" opacity=".3"/><use xlink:href="#dx" opacity=".3"/><use xlink:href="#dy" opacity=".3"/><use xlink:href="#dz" opacity=".3"/><use xlink:href="#dA" opacity=".3"/><use xlink:href="#dB" opacity=".3"/><use xlink:href="#dC" opacity=".3"/><use xlink:href="#dD" opacity=".3"/><use xlink:href="#dE" opacity=".3"/><use xlink:href="#dF" opacity=".3"/><use xlink:href="#dG" opacity=".3"/><use xlink:href="#dH" opacity=".3"/><use xlink:href="#dI" opacity=".3"/><use xlink:href="#dJ" opacity=".3"/><use xlink:href="#dK" opacity=".3"/><use xlink:href="#dL" opacity=".3"/><use xlink:href="#dM" opacity=".3"/><use xlink:href="#dN" opacity=".3"/><use xlink:href="#dO" opacity=".3"/><use xlink:href="#dP" opacity=".3"/><use xlink:href="#dQ" opacity=".3"/><use xlink:href="#dR" opacity=".3"/><use xlink:href="#dS" opacity=".3"/><use xlink:href="#dT" opacity=".3"/><use xlink:href="#dU" opacity=".3"/><use xlink:href="#dV" opacity=".3"/><use xlink:href="#dW" opacity=".3"/><use xlink:href="#dX" opacity=".3"/><use xlink:href="#dY" opacity=".3"/><use xlink:href="#dZ" opacity=".3"/><use xlink:href="#ea" opacity=".3"/><use xlink:href="#eb" opacity=".3"/><use xlink:href="#ec" opacity=".3"/><use xlink:href="#ed" opacity=".3"/><use xlink:href="#ee" opacity=".3"/><use xlink:href="#ef" opacity=".3"/><use xlink:href="#eg" opacity=".3"/><use xlink:href="#eh" opacity=".3"/><use xlink:href="#ei" opacity=".3"/><use xlink:href="#ej" opacity=".3"/><use xlink:href="#ek" opacity=".3"/><use xlink:href="#el" opacity=".3"/><use xlink:href="#em" opacity=".3"/><use xlink:href="#en" opacity=".3"/><use xlink:href="#eo" opacity=".3"/><use xlink:href="#ep" opacity=".3"/><use xlink:href="#eq" opacity=".3"/><use xlink:href="#er" opacity=".3"/><use xlink:href="#es" opacity=".3"/><use xlink:href="#et" opacity=".3"/><use xlink:href="#eu" opacity=".3"/></g><use fill="url(#ev)" xlink:href="#ew"/><use fill="url(#ex)" xlink:href="#ey"/><use fill="#0d667d" xlink:href="#ez"/><use fill="#fff" xlink:href="#eA" opacity=".3"/><use fill="#fff" xlink:href="#eB" opacity=".3"/><use fill="#447489" xlink:href="#eC" opacity=".1"/><use fill="url(#eD)" xlink:href="#eE"/><use fill="#0d667d" xlink:href="#eF" opacity=".2"/><use fill="#0d667d" xlink:href="#eG" opacity=".3"/></g><g transform="translate(-589 -3568)"><use fill="#447489" xlink:href="#eH" opacity=".1"/><use fill="url(#eI)" xlink:href="#eJ"/><use fill="#0d667d" xlink:href="#eK"/><use fill="#0b5a6e" xlink:href="#eL"/><use fill="#0d667d" xlink:href="#eM"/><use fill="#0b7890" xlink:href="#eN"/><use fill="#0b7890" xlink:href="#eO"/><use fill="#0b7890" xlink:href="#eP"/><use fill="#0b7890" xlink:href="#eQ"/><use fill="#0b7890" xlink:href="#eR"/><use fill="#0b7890" xlink:href="#eS"/><use fill="#0b7890" xlink:href="#eT"/><use fill="#0b7890" xlink:href="#eU"/><use fill="#0b7890" xlink:href="#eV"/><use fill="#0d667d" xlink:href="#eW"/><use fill="#447489" xlink:href="#eX" opacity=".1"/><use fill="#0d667d" xlink:href="#eY"/><use fill="#0b5a6e" xlink:href="#eZ"/><use fill="#083f4d" xlink:href="#fa"/><use fill="#0b5a6e" xlink:href="#fb"/><use fill="#0d667d" xlink:href="#fc"/><use fill="#0b7890" xlink:href="#fd"/></g><g transform="translate(-589 -3568)"><use fill="url(#fe)" xlink:href="#ff"/><use fill="url(#fg)" xlink:href="#fh"/><use fill="#127994" xlink:href="#fi"/><use fill="#127994" xlink:href="#fj"/><use fill="#127994" xlink:href="#fk"/><use fill="#1b202b" xlink:href="#fl"/></g><g transform="translate(-589 -3568)"><use fill="#447489" xlink:href="#fm" opacity=".1"/><use fill="url(#fn)" xlink:href="#fo"/><use fill="#fff" xlink:href="#fp" opacity=".3"/><use fill="#fff" xlink:href="#fq" opacity=".3"/><use fill="#0d667d" xlink:href="#fr"/></g></svg>