<svg xmlns="http://www.w3.org/2000/svg" xmlns:xlink="http://www.w3.org/1999/xlink" width="66" height="46"><defs><path id="a" d="M467.678 47.43H407.93a2.62 2.62 0 0 0-2.625 2.614 2.62 2.62 0 0 0 2.625 2.614h59.75a2.62 2.62 0 0 0 2.625-2.614 2.62 2.62 0 0 0-2.626-2.615z"/><path id="b" d="M467.678 27.502H407.93a2.62 2.62 0 0 0-2.625 2.615 2.62 2.62 0 0 0 2.625 2.614h59.75a2.62 2.62 0 0 0 2.625-2.614 2.62 2.62 0 0 0-2.626-2.615z"/><path id="c" d="M467.678 67.356H407.93a2.62 2.62 0 0 0-2.625 2.615 2.62 2.62 0 0 0 2.625 2.615h59.75a2.62 2.62 0 0 0 2.625-2.615 2.62 2.62 0 0 0-2.626-2.615z"/></defs><use fill="#fff" xlink:href="#a" transform="translate(-405 -27)"/><use fill="#fff" xlink:href="#b" transform="translate(-405 -27)"/><use fill="#fff" xlink:href="#c" transform="translate(-405 -27)"/></svg>