<svg id="Слой_1" data-name="Слой 1" xmlns="http://www.w3.org/2000/svg" viewBox="0 0 1920 123.11"><defs><style>.cls-1{fill:none;}</style></defs><title>Монтажная область 1</title><path class="cls-1" d="M177.86,46.85H25.73a12.33,12.33,0,0,0,0,24.66H177.86a12.33,12.33,0,0,0,0-24.66Z"/><path class="cls-1" d="M368.72,46.85H216.59a12.33,12.33,0,0,0,0,24.66H368.72a12.33,12.33,0,0,0,0-24.66Z"/><path class="cls-1" d="M559.58,46.85H407.46a12.33,12.33,0,1,0,0,24.66H559.58a12.33,12.33,0,0,0,0-24.66Z"/><path class="cls-1" d="M750.45,46.85H598.32a12.33,12.33,0,0,0,0,24.66H750.45a12.33,12.33,0,0,0,0-24.66Z"/><path class="cls-1" d="M941.31,46.85H789.18a12.33,12.33,0,1,0,0,24.66H941.31a12.33,12.33,0,1,0,0-24.66Z"/><path class="cls-1" d="M1132.17,46.85H980a12.33,12.33,0,1,0,0,24.66h152.13a12.33,12.33,0,0,0,0-24.66Z"/><path class="cls-1" d="M1323,46.85H1170.9a12.33,12.33,0,0,0,0,24.66H1323a12.33,12.33,0,0,0,0-24.66Z"/><path class="cls-1" d="M1513.9,46.85H1361.77a12.33,12.33,0,1,0,0,24.66H1513.9a12.33,12.33,0,0,0,0-24.66Z"/><path class="cls-1" d="M1704.76,46.85H1552.63a12.33,12.33,0,0,0,0,24.66h152.13a12.33,12.33,0,0,0,0-24.66Z"/><path class="cls-1" d="M1895.62,46.85H1743.49a12.33,12.33,0,1,0,0,24.66h152.13a12.33,12.33,0,1,0,0-24.66Z"/></svg>