<svg xmlns="http://www.w3.org/2000/svg" viewBox="0 0 348.1 348.1"><path d="M340.3 275.1l-53.8-53.8c-10.7-10.7-28.4-10.3-39.5.7l-27.1 27.1c-1.7-.9-3.5-1.9-5.3-3-17.1-9.5-40.5-22.5-65.1-47.1-24.7-24.7-37.7-48.1-47.2-65.3-1-1.8-2-3.6-2.9-5.2l18.2-18.1 8.9-8.9c11.1-11.1 11.4-28.8.7-39.5L73.4 8.2C62.7-2.5 45-2.2 33.9 8.9L18.7 24.2l.4.4c-5.1 6.5-9.3 14-12.5 22-2.9 7.7-4.7 15-5.6 22.3-7 58.9 19.9 112.7 92.9 185.6 100.9 100.9 182.2 93.2 185.7 92.9 7.6-.9 15-2.7 22.4-5.6 8-3.1 15.5-7.4 21.9-12.4l.3.3 15.3-15c11.1-11.2 11.5-28.9.8-39.6z" fill="#8bc420"/></svg>