<svg height="512pt" viewBox="0 0 512.001 512" width="512pt" xmlns="http://www.w3.org/2000/svg"><path d="M378.32 428.566l10.582 1.868a33.978 33.978 0 0 0 23.899-4.641l40.812-25.492a67.956 67.956 0 0 0 30.926-45.832l16.133-91.489-90.344-15.93-90.34-15.933-16.133 91.488a67.957 67.957 0 0 0 13.383 53.649l29.633 37.91a33.965 33.965 0 0 0 20.867 12.535zm0 0" fill="#e1ebef"/><path d="M361.395 361.984c35.05-15.734 54.199-73.836 54.199-73.836s-57.176-21.757-91.485-4.464c-6.761 3.41-11.843 7.867-15.648 12.812l-4.606 26.113a67.936 67.936 0 0 0 .805 27.418c10.2 8.868 31.875 23.118 56.735 11.957zm109.16-104.316l-13.621 77.27a67.956 67.956 0 0 1-30.926 45.832l-40.813 25.492a33.982 33.982 0 0 1-23.898 4.64l-10.582-1.863s-6.926-1.223-9.106-1.605l5.262 6.73a33.98 33.98 0 0 0 20.871 12.54l10.582 1.862 10.582 1.868a33.968 33.968 0 0 0 23.899-4.645l40.812-25.488a67.95 67.95 0 0 0 30.922-45.832l16.133-91.489zm0 0" fill="#c4d3d6"/><path d="M421.242 185.148l-22.586-3.98-10.914 61.898 22.586 3.985 22.586 3.98 10.914-61.898zm0 0" fill="#e1ebef"/><path d="M430.445 186.773l-7.226 40.989c-.817 4.617-5.223 7.703-9.84 6.886l-14.223-2.503-9.199-1.625-2.215 12.546 22.586 3.985 22.586 3.98 10.914-61.898zm0 0" fill="#c4d3d6"/><path d="M442.926 62.188l-22.586-3.985-21.684 122.965 22.586 3.98 22.586 3.985 21.684-122.965zm0 0" fill="#ffd432"/><path d="M420.34 58.203l-2.211 12.547 23.422 4.129a8.497 8.497 0 0 1 6.89 9.84l-14.308 81.14c-.817 4.621-5.219 7.707-9.84 6.891l-23.422-4.129-2.21 12.547 45.167 7.965 21.684-122.965zm0 0" fill="#f4ac03"/><path d="M500.441 49.04l3.985-22.587-107.07-18.879-3.985 22.586-3.98 22.586 107.07 18.879zm0 0" fill="#64aef7"/><path d="M488.531 23.652l-3.687 20.914a8.49 8.49 0 0 1-9.84 6.887L392.19 36.852l-2.8 15.894 107.07 18.879 7.965-45.172zm0 0" fill="#0a86e3"/><path d="M419.598 504.426h84.828c0-23.426-18.989-42.414-42.414-42.414a42.29 42.29 0 0 0-14.555 2.566c-13.238-20.953-36.59-34.879-63.207-34.879-4.023 0-7.969.324-11.82.938-3.864-22.328-23.317-39.313-46.75-39.313-17.227 0-32.305 9.176-40.621 22.903-7.204-7.868-17.551-12.805-29.059-12.805s-21.86 4.937-29.059 12.805c-8.32-13.727-23.398-22.903-40.62-22.903-23.434 0-42.887 16.985-46.755 39.313a75.574 75.574 0 0 0-11.82-.938c-26.617 0-49.965 13.926-63.203 34.88a42.29 42.29 0 0 0-14.555-2.567c-23.426 0-42.414 18.988-42.414 42.414zm0 0" fill="#a77554"/><path d="M462.012 462.012a42.38 42.38 0 0 0-14.555 2.562c-13.238-20.949-36.59-34.879-63.207-34.879-4.023 0-7.969.328-11.82.942-3.864-22.328-23.317-39.313-46.75-39.313-17.16 0-32.192 9.11-40.528 22.758 22.848 2.73 42.52 15.773 54.25 34.336a42.375 42.375 0 0 1 14.551-2.563c15.832 0 29.637 8.672 36.926 21.528 5.285 9.324-1.703 20.887-12.426 20.887H10.77a42.26 42.26 0 0 0-3.196 16.156h496.852c0-23.426-18.989-42.414-42.414-42.414zm0 0" fill="#915431"/><path d="M213.586 306.48s-25.707 30.38-56.977 16.34c-31.726-14.242-49.058-66.836-49.058-66.836s51.754-19.691 82.808-4.039c30.61 15.43 23.227 54.535 23.227 54.535zm0 0" fill="#6ec030"/><path d="M190.36 251.945c-4.231-2.132-8.852-3.605-13.669-4.562 19.618 17.765 13.895 48.152 13.895 48.152s-19.957 23.582-46.094 19.586c3.77 3.121 7.809 5.766 12.117 7.7 31.27 14.038 56.977-16.34 56.977-16.34s7.383-39.106-23.227-54.536zm0 0" fill="#378900"/><path d="M298.414 321.625s25.703 30.383 56.977 16.344c31.722-14.242 49.058-66.836 49.058-66.836s-51.754-19.692-82.808-4.04c-30.61 15.43-23.227 54.532-23.227 54.532zm0 0" fill="#6ec030"/><path d="M383.64 265.066c-4.695 12.391-21.156 51.067-47.667 62.97-10.239 4.597-19.883 4.429-28.22 2.128 10.216 7.746 27.806 16.707 47.638 7.805 31.722-14.242 49.058-66.836 49.058-66.836s-8.562-3.258-20.808-6.067zm0 0" fill="#378900"/><path d="M256 243.883s38.375-9.145 38.375-43.426c0-34.207-38.375-75.738-38.375-75.738s-38.375 41.531-38.375 75.738c0 34.277 38.375 43.426 38.375 43.426zm0 0" fill="#6ec030"/><path d="M256.465 125.234c9.437 14.555 18.723 33.153 18.723 49.977 0 18.105-10.708 29.2-20.81 35.64-10.722 6.833-24.526 6.778-35.233-.078l-.278-.175C225.414 236.57 256 243.883 256 243.883s38.375-9.149 38.375-43.426c0-31.988-33.555-70.375-37.91-75.223zm0 0" fill="#378900"/><path d="M190.36 427.172c-14.2 0-25.75 11.55-25.75 25.75a7.574 7.574 0 0 0 7.574 7.574c4.18 0 7.574-3.39 7.574-7.574 0-5.848 4.754-10.602 10.601-10.602s10.606 4.754 10.606 10.602a7.574 7.574 0 0 0 7.574 7.574 7.574 7.574 0 0 0 7.574-7.574c-.004-14.195-11.554-25.75-25.754-25.75zm117.144 19.188c-14.2 0-25.754 11.55-25.754 25.75a7.574 7.574 0 0 0 7.574 7.574 7.574 7.574 0 0 0 7.574-7.575c0-5.843 4.758-10.601 10.606-10.601s10.601 4.758 10.601 10.601a7.574 7.574 0 0 0 7.575 7.575 7.574 7.574 0 0 0 7.574-7.575c0-14.199-11.555-25.75-25.75-25.75zm111.082 31.808a6.06 6.06 0 0 1-6.059 6.062 6.062 6.062 0 0 1 0-12.121 6.06 6.06 0 0 1 6.059 6.059zm-294.879-16.156a6.057 6.057 0 0 1-6.059 6.058 6.057 6.057 0 0 1-6.058-6.058 6.057 6.057 0 0 1 6.058-6.059 6.057 6.057 0 0 1 6.059 6.059zm0 0"/><path d="M462.012 454.438c-3.871 0-7.688.44-11.41 1.308-8.098-11.058-18.633-19.734-30.622-25.508l37.649-23.511a75.644 75.644 0 0 0 34.367-50.946l16.133-91.488a7.57 7.57 0 0 0-1.254-5.656 7.56 7.56 0 0 0-4.89-3.117l-13.692-2.415a7.574 7.574 0 1 0-2.629 14.918l6.234 1.098-14.82 84.031a60.468 60.468 0 0 1-27.473 40.727l-40.816 25.488a26.523 26.523 0 0 1-11.117 3.852 82.997 82.997 0 0 0-13.418-1.094c-2.008 0-4.024.074-6.04.223-6.331-20.399-23.937-35.25-45.112-38.094l-9.895-12.66c-6.96-8.906-11.187-19.356-12.426-30.324 7.512 4.355 16.985 7.976 27.723 7.976h.004c6.805 0 13.527-1.469 19.984-4.367 34.375-15.434 52.399-69.094 53.153-71.371a7.58 7.58 0 0 0-4.5-9.453c-1.137-.43-28.122-10.578-55.653-10.578-10.894 0-20.476 1.632-28.605 4.812l3.246-18.394 60.289 10.632h.008l45.168 7.965h.004l19.77 3.485a7.567 7.567 0 0 0 8.776-6.145c.727-4.117-2.027-8.047-6.144-8.773l-12.316-2.172 9.601-54.442 20.363-115.504 23.493 4.141a7.578 7.578 0 0 0 8.777-6.14l7.965-45.172a7.578 7.578 0 0 0-6.145-8.774L398.672.117a7.555 7.555 0 0 0-5.66 1.254 7.56 7.56 0 0 0-3.117 4.89l-7.961 45.169a7.567 7.567 0 0 0 6.14 8.773l23.492 4.145-4 22.703a7.574 7.574 0 0 0 6.145 8.773c4.113.723 8.047-2.023 8.77-6.144l4.003-22.703 30.254 5.336-19.05 108.042-30.254-5.332 8.82-50.011a7.573 7.573 0 0 0-6.145-8.774 7.572 7.572 0 0 0-8.773 6.145l-10.133 57.469-9.601 54.441-60.297-10.633a7.573 7.573 0 0 0-8.774 6.145l-6.972 39.543c-15.426 15.215-16.082 36.933-15.32 47.496-11.087 5.094-20.016 12.258-26.66 18.879v-86.23c15.796-5.673 38.374-20.891 38.374-49.036 0-36.75-38.738-79.094-40.387-80.879a7.575 7.575 0 0 0-11.125 0c-1.652 1.785-40.386 44.129-40.386 80.879 0 28.145 22.574 43.363 38.375 49.035v71.082c-6.649-6.62-15.578-13.785-26.66-18.879.93-12.918-.254-42.527-28-56.511-9.024-4.547-20.215-6.856-33.258-6.856-27.532 0-54.516 10.149-55.653 10.578a7.58 7.58 0 0 0-4.5 9.453c.75 2.278 18.778 55.942 53.153 71.371 6.457 2.899 13.183 4.372 19.988 4.372 19.617 0 35.02-12.094 41.93-18.649 17.976 8.274 29.547 23.61 33 28.645v50.37a47.171 47.171 0 0 0-20.27 8.536c-10.367-12.192-25.457-19.254-41.836-19.254-24.41 0-45.476 15.855-52.535 38.602a80.123 80.123 0 0 0-6.035-.227c-26.457 0-50.856 12.469-66.352 33.625a49.996 49.996 0 0 0-11.41-1.309C22.426 454.437 0 476.863 0 504.426A7.574 7.574 0 0 0 7.574 512h496.852a7.574 7.574 0 0 0 7.574-7.574c0-27.563-22.426-49.989-49.988-49.989zM403.496 16.351l92.156 16.246-5.336 30.254-23.492-4.145-45.168-7.965h-.011l-23.48-4.14zm1.305 173.59l30.254 5.335-8.285 46.98-30.254-5.331zM159.71 315.91c-21.746-9.762-36.547-41.078-42.297-55.23 9.293-2.844 26.3-7.203 43.094-7.203 10.656 0 19.55 1.761 26.441 5.234 16.5 8.316 19.696 25.2 19.887 36.148l-36.438-17.418a7.578 7.578 0 0 0-10.101 3.57 7.57 7.57 0 0 0 3.566 10.098l36.438 17.418c-6.196 4.836-15.75 10.422-26.805 10.422-4.652 0-9.289-1.02-13.785-3.039zm191.781-47.285c16.742 0 33.79 4.367 43.098 7.207-5.735 14.156-20.5 45.438-42.3 55.227-4.497 2.015-9.134 3.039-13.782 3.039h-.004c-10.969 0-20.543-5.602-26.77-10.442l36.399-17.398a7.575 7.575 0 0 0-6.531-13.668l-36.387 17.39c.234-10.96 3.465-27.875 19.836-36.125 6.887-3.468 15.785-5.23 26.441-5.23zm-56.156 62.57c-.79 17.953 4.758 35.426 15.934 49.723l3.12 3.988A54.418 54.418 0 0 0 283.84 403a47.15 47.15 0 0 0-20.266-8.531v-35.227c3.367-4.914 14.496-19.652 31.762-28.047zm-70.137-130.738c0-23.316 20.617-51.55 30.805-64.074 10.191 12.512 30.797 40.707 30.797 64.074 0 18.316-13.59 28.016-23.227 32.59v-29.559c0-4.183-3.39-7.574-7.574-7.574s-7.574 3.39-7.574 7.574v29.508c-9.621-4.617-23.227-14.363-23.227-32.539zM15.977 496.852c3.468-15.579 17.402-27.266 34.011-27.266 4.11 0 8.133.707 11.957 2.105a7.57 7.57 0 0 0 9-3.07c12.403-19.629 33.637-31.351 56.801-31.351 3.524 0 7.102.285 10.633.847a7.578 7.578 0 0 0 8.652-6.187c3.313-19.14 19.836-33.032 39.29-33.032 14.074 0 26.84 7.196 34.144 19.25a7.575 7.575 0 0 0 12.063 1.191c6.019-6.573 14.574-10.343 23.472-10.343s17.457 3.77 23.473 10.344a7.575 7.575 0 0 0 12.062-1.192c7.305-12.054 20.07-19.25 34.145-19.25 19.453 0 35.976 13.891 39.289 33.032a7.574 7.574 0 0 0 8.652 6.187 67.815 67.815 0 0 1 10.633-.847c23.164 0 44.394 11.722 56.8 31.351a7.57 7.57 0 0 0 9 3.07 34.69 34.69 0 0 1 11.958-2.105c16.61 0 30.543 11.687 34.011 27.266zm0 0"/></svg>