<svg height="100" width="100" xmlns="http://www.w3.org/2000/svg"><circle cx="50" cy="49.999" fill="#7C519B" r="45"/><path d="M49.758 31.413c.285-.262.487-.299 1.48-.268.521.018 1.279.078 1.695.127 2.098.262 3.795.768 5.653 1.674 1.829.896 3.001 1.742 4.55 3.283 1.449 1.455 2.255 2.557 3.109 4.268 1.189 2.387 1.866 5.225 1.982 8.348.042 1.066.012 1.305-.231 1.607-.464.592-1.483.494-1.829-.17-.112-.219-.143-.408-.178-1.262-.061-1.309-.152-2.154-.336-3.166-.72-3.963-2.621-7.129-5.658-9.4-2.532-1.898-5.147-2.826-8.573-3.025-1.16-.066-1.361-.109-1.623-.311-.487-.385-.512-1.285-.041-1.705zm7.268 7.842c-1.226-.73-3.037-1.271-4.688-1.406-.6-.049-.928-.17-1.153-.432a1.11 1.11 0 0 1-.092-1.377c.317-.492.804-.572 2.261-.354 3.702.543 6.569 2.26 8.446 5.049 1.058 1.57 1.715 3.416 1.941 5.395.077.725.077 2.045-.009 2.264-.077.207-.335.488-.554.604-.237.121-.745.109-1.025-.037-.468-.236-.609-.615-.609-1.637 0-1.578-.408-3.24-1.115-4.529a9.269 9.269 0 0 0-3.403-3.54zm2.061 8.117c-.359.328-1.025.34-1.428.031-.291-.221-.384-.453-.451-1.078-.078-.834-.224-1.42-.476-1.961-.536-1.15-1.481-1.748-3.079-1.943-.749-.09-.976-.176-1.219-.463-.446-.529-.274-1.387.342-1.705.231-.113.327-.127.841-.096.316.018.786.072 1.036.127 1.201.256 2.123.713 2.908 1.449 1.014.957 1.569 2.113 1.813 3.775.165 1.085.097 1.511-.287 1.864zm9.109 15.996c-.449 1.162-2.206 3.342-3.432 4.273-1.109.84-1.897 1.162-2.935 1.213-.852.041-1.206-.033-2.297-.482-8.562-3.525-15.399-8.785-20.827-16.014-2.834-3.775-4.993-7.689-6.471-11.752-.857-2.367-.899-3.396-.193-4.609.306-.51 1.603-1.777 2.551-2.482 1.573-1.17 2.299-1.602 2.876-1.725.398-.086 1.086-.018 1.525.141.212.072.544.244.731.365 1.16.768 4.385 4.889 5.439 6.947.604 1.176.806 2.045.616 2.691-.196.693-.52 1.059-1.963 2.223-.58.469-1.124.949-1.208 1.078-.22.316-.397.938-.397 1.375.006 1.018.666 2.861 1.531 4.281.672 1.102 1.871 2.514 3.062 3.598 1.396 1.279 2.627 2.15 4.019 2.838 1.785.889 2.878 1.113 3.676.742a2.71 2.71 0 0 0 .481-.268c.061-.055.53-.627 1.044-1.26.987-1.242 1.214-1.443 1.89-1.674.861-.293 1.738-.215 2.622.236.672.348 2.135 1.256 3.079 1.912 1.245.871 3.904 3.039 4.264 3.471.636.781.746 1.779.317 2.882z" fill="#FFF"/></svg>