<svg height="511pt" viewBox="-18 0 511 511.999" width="511pt" xmlns="http://www.w3.org/2000/svg"><path d="M191.926 411.555h86.87l87.74-87.739c9.054-9.058 9.054-23.742 0-32.796-9.056-9.06-23.743-9.06-32.798 0l-82.144 82.144a57.62 57.62 0 0 1-40.742 16.875h-18.926zm0 0" fill="#ffae85"/><path d="M191.926 411.555h135.969l81.015-81.016c9.059-9.059 9.059-23.742 0-32.8-9.055-9.055-23.738-9.055-32.797 0l-82.144 82.144a57.607 57.607 0 0 1-40.742 16.879h-61.301zm0 0" fill="#fecbaa"/><path d="M8.004 504.5V368.992A78.53 78.53 0 0 0 31 313.47v-3.086a43.646 43.646 0 0 1 12.777-30.86 43.646 43.646 0 0 1 30.86-12.777h211.879c8.96 0 17.078 3.629 22.945 9.508 5.879 5.867 9.512 13.976 9.512 22.937 0 17.93-14.532 32.457-32.457 32.457h-62.774c-8.582 0-16.36 3.485-21.984 9.11s-9.11 13.402-9.11 21.984c0 17.18 13.926 31.098 31.094 31.098h80.903a57.655 57.655 0 0 0 40.75-16.88l82.136-82.136c4.528-4.535 10.465-6.793 16.399-6.793 5.937 0 11.875 2.258 16.398 6.793 9.063 9.051 9.063 23.738 0 32.797l-92.433 92.434a76.972 76.972 0 0 1-54.442 22.55l-188.41-.05c-36.527 0-72.145 23.164-94.305 41.156C16.652 495.148 8.004 504.5 8.004 504.5zm0 0" fill="#fedfc5"/><path d="M8.004 504.5V368.992A78.53 78.53 0 0 0 31 313.47v-3.086a43.646 43.646 0 0 1 12.777-30.86 43.646 43.646 0 0 1 30.86-12.777h112.726C25.813 306.305 24.516 433.406 30.734 483.711 16.652 495.148 8.004 504.5 8.004 504.5zm0 0" fill="#fecbaa"/><path d="M259.988 128.36c12.875 51.773-8.16 60.296-37.695 90.69a31.77 31.77 0 0 1-32.516 8.087c-40.332-13.02-62.91-10.696-75.785-62.465-14.035-56.434.13-110.11 32.563-152.961a10.673 10.673 0 0 1 13.007-3.234c48.731 22.664 86.391 63.453 100.426 119.882zm0 0" fill="#1fc99a"/><path d="M259.984 128.367c9.961 40.047-.379 54.211-19.246 72.649 4.172-12.172 4.282-27.368-1.3-49.828C224.868 92.605 187.558 49.07 138.733 22.8a197.697 197.697 0 0 1 7.817-11.086 10.675 10.675 0 0 1 13.015-3.238c48.73 22.668 86.383 63.453 100.418 119.89zm0 0" fill="#19aa80"/><path d="M326.934 214.027c-28.68 28.676-42.477 18.313-73.856 10.989a24.161 24.161 0 0 1-18.012-18.012c-7.324-31.379-17.687-45.176 10.993-73.856 31.261-31.261 71.78-43.07 112.406-38.738 3.8.406 6.8 3.406 7.207 7.207 4.336 40.625-7.477 81.145-38.738 112.41zm0 0" fill="#34e8b1"/><path d="M326.93 214.027c-22.184 22.184-35.465 21-54.871 15.934 9.566-2.05 19.507-7.938 31.949-20.379 32.453-32.453 46.195-73.82 44.168-115.922 3.426.13 6.855.383 10.289.746a8.121 8.121 0 0 1 7.21 7.211c4.333 40.63-7.48 81.145-38.745 112.41zm0 0" fill="#1fc99a"/><path d="M8 376.492a7.48 7.48 0 0 0 5.305-2.195C29.55 358.047 38.5 336.445 38.5 313.469v-3.086c0-9.653 3.758-18.73 10.586-25.555C55.91 278 64.988 274.242 74.64 274.242h76.257c4.145 0 7.5-3.355 7.5-7.5 0-4.144-3.355-7.5-7.5-7.5H74.641c-13.66 0-26.504 5.32-36.164 14.977-9.66 9.66-14.98 22.504-14.98 36.164v3.086c0 18.972-7.388 36.804-20.802 50.222A7.497 7.497 0 0 0 8 376.492zm457.637-86.976c-5.797-5.797-13.504-8.989-21.703-8.989-8.2 0-15.907 3.192-21.704 8.989l-5.62 5.62a30.567 30.567 0 0 0-2.395-2.698c-10.723-10.727-27.477-11.829-39.453-3.333a31.075 31.075 0 0 0-2.922-3.39c-5.797-5.797-13.504-8.992-21.703-8.992s-15.907 3.195-21.703 8.992l-3.29 3.289c-4.519-17.11-20.124-29.762-38.632-29.762H185.363a7.5 7.5 0 0 0-7.5 7.5 7.5 7.5 0 0 0 7.5 7.5h101.149c13.761 0 24.957 11.196 24.957 24.953 0 13.762-11.196 24.957-24.957 24.957h-62.766c-21.277 0-38.594 17.313-38.594 38.594s17.317 38.594 38.594 38.594h80.902c17.395 0 33.747-6.774 46.047-19.07l82.145-82.145c6.117-6.121 16.07-6.117 22.191 0 2.961 2.96 4.594 6.902 4.594 11.094s-1.633 8.133-4.598 11.094l-42.39 42.394a7.497 7.497 0 0 0 0 10.606 7.497 7.497 0 0 0 10.605 0l42.395-42.391c5.797-5.797 8.988-13.504 8.988-21.703s-3.191-15.906-8.988-21.703zm-140.813 21.007c.055-.05.114-.097.172-.152l14.047-14.05a15.59 15.59 0 0 1 11.094-4.594c4.191 0 8.133 1.632 11.097 4.597a15.654 15.654 0 0 1 2.461 3.227l-75.027 75.031a49.861 49.861 0 0 1-17.363 11.305c-.332.129-.64.285-.946.453h-22.98a65.412 65.412 0 0 0 9.52-7.875l40.964-40.965c12.926-3.836 23.13-14.047 26.961-26.977zm-101.078 28.63h51.25l-28.707 28.706c-9.45 9.446-22.004 14.657-35.363 14.676-6.477-4.21-10.774-11.504-10.774-19.789 0-13.012 10.586-23.594 23.594-23.594zM340.09 371.66c-9.469 9.465-22.055 14.68-35.442 14.68h-6.585c.406-.387.816-.758 1.21-1.153l82.145-82.144c6.117-6.117 16.074-6.117 22.191 0 .868.871 1.61 1.828 2.243 2.852zm0 0"/><path d="M390.75 386.59l-28.164 28.164c-13.121 13.121-30.563 20.348-49.117 20.348h-.016l-188.41-.043c-62.29 0-120.113 61.718-122.547 64.347A7.496 7.496 0 0 0 2.906 510c1.442 1.34 3.27 2 5.094 2a7.484 7.484 0 0 0 5.504-2.402c.555-.598 55.848-59.535 111.535-59.535l188.41.039h.02c22.558 0 43.773-8.786 59.726-24.739L401.36 397.2a7.497 7.497 0 0 0 0-10.605 7.506 7.506 0 0 0-10.609-.004zM170.383 229.191c5.422 1.54 11.027 3.13 17.09 5.086a38.814 38.814 0 0 0 11.925 1.868c10.477 0 20.805-4.18 28.274-11.868a339.83 339.83 0 0 1 4.855-4.886c4.41 6.39 11.098 11.12 18.848 12.93 4.684 1.093 8.941 2.25 13.063 3.37 9.507 2.582 17.94 4.875 26.433 4.875 12.488 0 25.09-4.957 41.367-21.238 31.196-31.191 45.719-73.281 40.895-118.508-.778-7.261-6.61-13.093-13.867-13.867-35.489-3.785-69.032 4.34-96.903 23.078-5.945-17.164-14.254-33.148-24.77-47.62a7.5 7.5 0 1 0-12.137 8.82c10.587 14.566 18.74 30.824 24.267 48.355-3.078 2.61-6.07 5.36-8.97 8.258-27.35 27.355-22.737 44.32-16.358 67.804a526.7 526.7 0 0 1 2.261 8.524c-2.969 2.86-6.316 6.129-9.742 9.656a24.105 24.105 0 0 1-4.55 3.637l-9.665-38.867c.41-.418.785-.88 1.098-1.403l15.7-26.09a7.497 7.497 0 0 0-2.563-10.292 7.498 7.498 0 0 0-10.293 2.558l-8.989 14.941-18.199-73.167a7.497 7.497 0 0 0-9.09-5.47 7.498 7.498 0 0 0-5.465 9.09l7.657 30.786-19.285-6.434a7.498 7.498 0 0 0-9.489 4.738c-1.308 3.93.813 8.18 4.742 9.489l28.317 9.453 20.965 84.289a23.92 23.92 0 0 1-5.723-1.086c-6.32-2.04-12.059-3.664-17.605-5.238-28.868-8.188-43.356-12.297-53.207-51.899-12.715-51.117-1.61-103.191 31.27-146.625.894-1.18 2.519-1.59 3.858-.96 18.153 8.44 34.418 19.363 48.34 32.464a7.5 7.5 0 0 0 10.602-.324c2.84-3.016 2.691-7.762-.324-10.602-15.09-14.199-32.684-26.02-52.29-35.14C155.02-1.91 145.704.41 140.579 7.188c-35.668 47.117-47.691 103.69-33.863 159.296 11.945 48.043 33.64 54.192 63.668 62.707zm80.98-90.738c24.403-24.406 56.305-37.402 91.082-37.402 5.02 0 10.102.27 15.227.816a.618.618 0 0 1 .543.543c4.336 40.63-8.656 78.387-36.582 106.313-21.203 21.203-31.25 18.468-53.262 12.492-4.05-1.102-8.637-2.348-13.586-3.504a15.94 15.94 0 0 1-1.402-.402l18.988-18.989c.238.024.48.04.727.04h23.148a7.5 7.5 0 0 0 7.5-7.5c0-4.145-3.355-7.5-7.5-7.5h-8.914l37.461-37.465a7.497 7.497 0 0 0 0-10.606 7.497 7.497 0 0 0-10.605 0l-14.743 14.738-2.652-11.886c-.902-4.043-4.918-6.586-8.953-5.688a7.498 7.498 0 0 0-5.688 8.953l4.727 21.188-44.106 44.105a16.93 16.93 0 0 1-.402-1.402c-1.152-4.945-2.402-9.535-3.504-13.586-5.98-22.012-8.707-32.059 12.496-53.258zm0 0"/></svg>