<svg xmlns="http://www.w3.org/2000/svg" viewBox="0 0 512 512"><path d="M504.372 127.176c0 14.299-8.197 27.968-22.069 34.274l-197.639 89.549c-18.917 8.594-41.21.224-49.804-18.693a37.438 37.438 0 0 1-2.675-8.35c-.468-2.39-.702-4.8-.702-7.19 0-14.299 8.197-27.968 22.069-34.274l197.639-89.549c9.448-4.292 19.74-4.353 28.751-.976 9.021 3.377 16.75 10.201 21.052 19.669a37.52 37.52 0 0 1 3.378 15.54z" fill="#898890"/><path d="M480.645 99.157c0 14.299-8.197 27.968-22.069 34.274L260.937 222.98c-9.448 4.292-19.74 4.353-28.751.976-.468-2.39-.702-4.8-.702-7.19 0-14.299 8.197-27.968 22.069-34.274l197.639-89.549c9.448-4.292 19.74-4.353 28.751-.976.468 2.39.702 4.8.702 7.19z" fill="#acabb1"/><path d="M346.041 154.178L44.209 290.409l-14.371 6.489c-8.329-6.204-13.709-16.12-13.709-27.287 0-12.459 6.702-23.331 16.679-29.26 3.112-1.841 5.044-5.126 5.034-8.746v-.112c0-18.815 5.461-36.338 14.869-51.106 2.563-4.007 1.871-9.224-1.556-12.53-8.207-7.912-13.313-19.018-13.313-31.304 0-24.032 19.476-43.519 43.498-43.519a43.27 43.27 0 0 1 21.49 5.675c4.19 2.39 9.489 1.261 12.509-2.492 17.442-21.663 44.18-35.535 74.161-35.535 30.145 0 57.004 14.015 74.436 35.87 3.01 3.773 8.268 4.719 12.499 2.39 7.15-3.916 15.398-6.072 24.165-5.899 13.15.275 25.131 5.919 33.725 14.869 7.526 7.811 12.448 18.134 13.323 29.575a48.246 48.246 0 0 1-1.607 16.691z" fill="#663a00"/><path d="M346.041 154.178L44.209 290.409a33.946 33.946 0 0 1-.62-6.478c0-12.459 6.702-23.341 16.679-29.26 3.112-1.851 5.044-5.136 5.034-8.746v-.122c0-18.805 5.461-36.338 14.869-51.095 2.563-4.007 1.871-9.235-1.556-12.53-8.207-7.912-13.313-19.018-13.313-31.304 0-24.042 19.476-43.519 43.498-43.519a43.27 43.27 0 0 1 21.49 5.675c4.19 2.39 9.489 1.261 12.509-2.492 17.442-21.673 39.135-20.971 58.652-20.971 20.32 0 57.004 14.015 74.436 35.881 3.01 3.773 8.268 4.709 12.499 2.39 7.15-3.926 30.907-20.656 39.674-20.473a45.64 45.64 0 0 1 6.265.549c7.526 7.811 12.448 18.134 13.323 29.575a48.24 48.24 0 0 1-1.607 16.689z" fill="#884d00"/><path d="M42.134 376.195c0 2.593-.509 5.055-1.424 7.312-2.888 7.099-9.855 12.113-18.001 12.113-10.73 0-19.425-8.696-19.425-19.425 0-8.136 5.004-15.103 12.103-17.991a19.248 19.248 0 0 1 7.323-1.434c10.728 0 19.424 8.695 19.424 19.425zm82.369 50.404c-2.746 5.98-8.187 10.638-14.971 12.092-12.153 2.604-23.92-5.614-25.69-17.869a1.346 1.346 0 0 0-1.475-1.149c-11.177 1.231-21.083-7.201-21.551-18.581-.336-8.167 4.658-15.703 12.113-18.723a17.984 17.984 0 0 1 2.095-.712c10.821-2.98 21.571 3.692 24.073 14.116a1.368 1.368 0 0 0 1.607 1.007c.203-.041.417-.081.62-.122 12.052-2.115 23.524 6.285 24.988 18.601a21.017 21.017 0 0 1-1.809 11.34z" fill="#663a00"/><path d="M383.56 161.43v75.514c0 14.716-3.082 28.67-8.604 41.159-14.503 32.84-45.817 55.57-82.115 55.57H33.937c-24.175 0-32.606-34.233-11.553-46.905l13.13-5.929 312.99-141.244c15.671-9.418 35.056 2.654 35.056 21.835z" fill="#acabb1"/><path d="M383.56 161.43v75.514c0 14.716-3.082 28.67-8.604 41.159-15.672 13.771-35.759 22.039-57.665 22.039H58.386c-12.326 0-20.564-8.899-22.873-19.303l312.99-141.244c15.672-9.418 35.057 2.654 35.057 21.835z" fill="#c6c5ca"/><path d="M46.975 439.179c0 .468-.031.925-.081 1.373-.681 6.051-5.817 10.76-12.052 10.76-6.702 0-12.133-5.441-12.133-12.133 0-6.234 4.709-11.37 10.76-12.052a12.1 12.1 0 0 1 1.373-.081c6.702 0 12.133 5.431 12.133 12.133z" fill="#663a00"/><path d="M42.134 376.195c0 2.593-.509 5.055-1.424 7.312a19.248 19.248 0 0 1-7.323 1.434c-10.73 0-19.425-8.696-19.425-19.425 0-2.593.509-5.055 1.424-7.312a19.248 19.248 0 0 1 7.323-1.434c10.729 0 19.425 8.695 19.425 19.425zm82.369 50.404a21.724 21.724 0 0 1-4.292 1.414c-12.153 2.604-23.92-5.614-25.69-17.869a1.346 1.346 0 0 0-1.475-1.149c-11.177 1.231-21.083-7.201-21.551-18.581a19.01 19.01 0 0 1 1.434-8.045 17.984 17.984 0 0 1 2.095-.712c10.821-2.98 21.571 3.692 24.073 14.116a1.368 1.368 0 0 0 1.607 1.007c.203-.041.417-.081.62-.122 12.052-2.115 23.524 6.285 24.988 18.601a21.017 21.017 0 0 1-1.809 11.34zm-77.528 12.58c0 .468-.031.925-.081 1.373a12.1 12.1 0 0 1-1.373.081c-6.702 0-12.133-5.441-12.133-12.133 0-.468.031-.926.081-1.373a12.1 12.1 0 0 1 1.373-.081c6.702 0 12.133 5.431 12.133 12.133z" fill="#884d00"/><g fill="#663a00"><circle cx="112.442" cy="164.34" r="7.625"/><circle cx="97.695" cy="209.1" r="7.625"/><circle cx="144.468" cy="204.859" r="7.625"/><circle cx="212.11" cy="143.949" r="7.625"/><circle cx="244.655" cy="159.205" r="7.625"/><circle cx="300.764" cy="136.321" r="7.625"/><circle cx="164.483" cy="143.949" r="7.625"/><circle cx="191.597" cy="113.52" r="7.625"/></g><path d="M448.049 85.997l-94.077 42.625c-8.515-36.64-50.356-54.696-82.926-35.363-41.021-53.483-121.695-53.616-162.887-.254-30.29-18.643-70.632-1.377-77.121 34.355a7.628 7.628 0 1 0 15.011 2.725c4.969-27.399 37.982-38.759 58.825-20.615 3.509 3.038 8.86 2.282 11.391-1.566 34.632-52.804 111.974-52.757 146.543.092 2.456 3.769 7.666 4.616 11.197 1.749 7.302-5.939 16.14-9.082 25.578-9.082 20.283 0 37.138 14.967 40.124 34.42l-50.935 23.082c-.173.081-.336.163-.498.244l-.02.01-63.239 28.538c-3.834 1.729-5.543 6.255-3.814 10.089 1.784 3.945 6.392 5.477 10.089 3.814 134.983-61.058 124.54-56.903 128.725-56.903 7.658 0 15.916 6.682 15.916 17.473v75.514c0 49.122-37.274 89.102-83.091 89.102H33.937c-16.313 0-21.999-23.672-7.973-32.524l177.522-80.111a7.57 7.57 0 0 0 4.271-5.187c1.473-6.046-4.708-11.349-10.547-8.716L24.875 277.279c-4.046-13.542 3.242-27.515 15.896-32.331a7.623 7.623 0 0 0 4.892-7.628c-1.391-22.486 5.333-42.959 18.184-59.496a7.603 7.603 0 0 0 1.495-5.96c-1.09-6.479-8.091-5.254-15.133-17.483-2.095-3.661-6.763-4.912-10.414-2.817a7.621 7.621 0 0 0-2.807 10.414 51.612 51.612 0 0 0 10.323 12.713c-11.679 17.54-17.486 37.986-17.086 58.357-18.353 10.054-26.847 32.606-18.51 52.519C-7.013 304.889 5.222 341.3 33.937 341.3h258.904c54.228 0 98.346-46.814 98.346-104.357V211.1l94.268-42.715c16.13-7.323 26.544-23.503 26.544-41.21.001-32.709-34.023-54.804-63.95-41.178zm31.111 68.497l-87.973 39.867V161.43c0-11.116-5.299-20.941-13.384-26.86 77.882-34.389 77.717-37.376 88.919-37.376 16.49 0 30.023 13.401 30.023 29.982-.001 11.747-6.906 22.466-17.585 27.318zM49.763 376.195c0-22.83-26.601-35.243-44.117-20.991a7.627 7.627 0 0 0-1.102 10.731 7.627 7.627 0 0 0 10.731 1.102c7.614-6.195 19.233-.815 19.233 9.158 0 11.076-13.974 16.029-20.96 7.43a7.628 7.628 0 1 0-11.84 9.62 26.954 26.954 0 0 0 21.003 10.001c14.917.001 27.052-12.134 27.052-27.051zm54.876 12.507c-8.873-18.547-34.644-20.87-46.563-3.859-11.898 16.977-.997 40.44 19.522 42.452 7.714 22.219 37.588 26.583 51.225 7.127 13.531-19.311-.483-46.062-24.184-45.72zm11.69 36.965c-7.351 10.491-23.989 6.05-25.033-6.814-.371-4.515-4.579-7.719-9.034-6.868-9.91 1.959-17.843-9.611-11.693-18.386 6.037-8.615 19.601-5.522 21.276 4.74.732 4.46 5.168 7.314 9.535 6.124 12.607-3.438 22.242 10.799 14.949 21.204zm-81.486-6.252c-10.895 0-19.76 8.864-19.76 19.76 0 10.895 8.864 19.76 19.76 19.76s19.76-8.864 19.76-19.76c0-10.895-8.865-19.76-19.76-19.76zm0 24.265a4.51 4.51 0 0 1-4.504-4.504c0-2.484 2.021-4.504 4.504-4.504s4.504 2.021 4.504 4.504a4.51 4.51 0 0 1-4.504 4.504z"/></svg>