<svg xmlns="http://www.w3.org/2000/svg" viewBox="0 0 512.001 512.001"><path d="M280.086 212.658a18.378 18.378 0 0 1-14.497 5.702c-1.885-.12-46.698-3.2-92.534-27.899-43.314-23.34-95.583-70.702-98.618-163.786a18.373 18.373 0 0 1 5.367-13.585c5.475-5.479 11.904-5.479 14.647-5.479h.001c1.942 0 47.587.328 94.619 28.529 24.415 14.64 44.714 34.104 60.333 57.85 18.868 28.688 30.842 63.639 35.588 103.884a18.368 18.368 0 0 1-4.906 14.784z" fill="#6dc82a"/><path d="M249.98 94.898c-7.702 14.215-14.198 30.224-18.859 48.26-4.191 12.518-10.593 34.513-15.876 64.943 27.866 8.721 49.06 10.178 50.344 10.259a18.37 18.37 0 0 0 19.403-20.487c-4.697-39.825-16.483-74.457-35.012-102.975z" fill="#5eac24"/><path d="M459.498 13.347a18.378 18.378 0 0 0-14.497-5.702c-1.885.12-46.698 3.2-92.534 27.899-35.222 18.98-76.362 53.843-92.139 116.257-8.617 25.376-27.6 94.192-23.161 197.808.385 8.964 7.772 15.973 16.659 15.972.24 0 .484-.005.726-.015 9.207-.395 16.351-8.178 15.957-17.387-2.3-53.679 2.12-97.561 7.815-129.942 12.817-.735 51.004-4.895 90.158-28.372 24.415-14.64 44.714-34.104 60.333-57.85 18.868-28.688 30.842-63.639 35.588-103.884a18.367 18.367 0 0 0-4.905-14.784z" fill="#91dc5a"/><path d="M441.421 405.543a39.856 39.856 0 0 0-20.936 5.906c-8.999-29.44-36.376-50.856-68.762-50.856-3.594 0-7.123.272-10.574.781-14.681-33.585-48.179-57.065-87.176-57.065s-72.495 23.479-87.176 57.065a72.445 72.445 0 0 0-10.574-.781c-32.386 0-59.764 21.416-68.762 50.856a39.854 39.854 0 0 0-20.936-5.906c-22.118 0-40.048 17.93-40.048 40.048s17.93 40.048 40.048 40.048c11.853 0 22.498-5.152 29.83-13.335 12.887 19.339 34.885 32.087 59.867 32.087 20.232 0 38.5-8.369 51.564-21.819 13.678 7.615 29.42 11.968 46.186 11.968s32.508-4.354 46.186-11.968c13.065 13.45 31.333 21.819 51.564 21.819 24.982 0 46.98-12.747 59.867-32.087 7.333 8.183 17.978 13.335 29.83 13.335 22.118 0 40.048-17.93 40.048-40.048.002-22.117-17.929-40.048-40.046-40.048z" fill="#cc7400"/><g fill="#aa6100"><path d="M306.257 343.246c9.458 0 18.585 1.4 27.208 3.97-17.004-25.838-46.249-42.907-79.493-42.907-38.997 0-72.495 23.479-87.176 57.065a72.445 72.445 0 0 0-10.574-.781c-32.386 0-59.764 21.416-68.762 50.856a39.854 39.854 0 0 0-20.936-5.906c-22.118 0-40.048 17.93-40.048 40.048s17.93 40.048 40.048 40.048c11.853 0 22.498-5.152 29.83-13.335 12.887 19.339 34.885 32.087 59.867 32.087 20.232 0 38.5-8.369 51.564-21.819a94.786 94.786 0 0 0 18.986 8.009c-9.869-14.992-15.629-32.93-15.629-52.221.001-52.53 42.585-95.114 95.115-95.114z"/><circle cx="291.798" cy="416.109" r="17.243"/><circle cx="361.32" cy="456.714" r="17.243"/><circle cx="350.717" cy="397.713" r="6.635"/><circle cx="253.972" cy="463.35" r="6.635"/><circle cx="274.549" cy="372.916" r="6.635"/><circle cx="417.317" cy="433.357" r="6.635"/></g><g fill="#cc7400"><circle cx="378.568" cy="315.397" r="17.243"/><circle cx="417.317" cy="353.953" r="6.635"/><circle cx="417.317" cy="322.032" r="6.635"/></g><g fill="#aa6100"><circle cx="114.766" cy="309.309" r="17.243"/><circle cx="86.133" cy="347.317" r="6.635"/></g><path d="M280.173 194.206a7.583 7.583 0 0 0 5.312-2.161l37.172-36.248 55.814-.953a7.61 7.61 0 0 0-.127-15.219l-.133.001-39.666.677 25.98-25.334 55.215-.944a7.61 7.61 0 0 0-.127-15.219l-.133.001-39.067.668 56.003-54.611a7.61 7.61 0 0 0-10.625-10.896l-50.928 49.663 6.202-30.905a7.61 7.61 0 0 0-5.964-8.958c-4.116-.822-8.132 1.843-8.958 5.964l-10.581 52.719-21.826 21.284 6.059-30.191a7.61 7.61 0 0 0-14.922-2.994l-10.437 52.006-39.577 38.592a7.61 7.61 0 0 0 5.314 13.058zm-154.51-39.961c2.932-3.01 3.458-7.587.68-10.741a167.65 167.65 0 0 1-7.039-8.546 7.61 7.61 0 0 0-12.065 9.279 181.266 181.266 0 0 0 7.683 9.328c1.503 1.706 7.149 4.367 10.741.68zM292.81 391.259c-13.704 0-24.852 11.149-24.852 24.852 0 13.704 11.149 24.852 24.852 24.852 13.704 0 24.852-11.149 24.852-24.852 0-13.703-11.148-24.852-24.852-24.852zm0 34.486c-5.312 0-9.633-4.321-9.633-9.633s4.321-9.633 9.633-9.633 9.633 4.321 9.633 9.633-4.321 9.633-9.633 9.633zm69.528 6.119c-4.204 0-7.61 3.406-7.61 7.61s3.406 7.61 7.61 7.61c5.312 0 9.634 4.321 9.634 9.633s-4.322 9.634-9.634 9.634-9.633-4.322-9.633-9.634a7.609 7.609 0 0 0-7.61-7.61 7.609 7.609 0 0 0-7.61 7.61c0 13.705 11.149 24.853 24.852 24.853 13.705 0 24.853-11.149 24.853-24.853.001-13.705-11.148-24.853-24.852-24.853zm-7.609-116.467c0 13.704 11.149 24.852 24.852 24.852 13.704 0 24.852-11.149 24.852-24.852 0-13.705-11.149-24.853-24.852-24.853-13.703-.001-24.852 11.148-24.852 24.853zm34.486 0c0 5.312-4.321 9.633-9.633 9.633s-9.633-4.321-9.633-9.633 4.321-9.634 9.633-9.634 9.633 4.321 9.633 9.634zm-298.289-6.088c0 13.704 11.149 24.852 24.852 24.852a7.609 7.609 0 0 0 7.61-7.61 7.609 7.609 0 0 0-7.61-7.61c-5.312 0-9.633-4.321-9.633-9.633 0-5.312 4.321-9.634 9.633-9.634 5.312 0 9.633 4.322 9.633 9.634a7.609 7.609 0 0 0 7.61 7.61 7.609 7.609 0 0 0 7.61-7.61c0-13.705-11.149-24.853-24.852-24.853s-24.853 11.149-24.853 24.854z"/><path d="M443.45 397.934a47.663 47.663 0 0 0-16.711 3.021c-20.826-51.512-76.986-47.893-78.993-47.741-13.75-27.283-38.771-46.738-67.887-53.694.802-25.649 3.14-50.553 7.004-74.153 17.73-1.699 52.138-7.731 87.564-28.975 25.403-15.234 46.525-35.487 62.776-60.195 19.524-29.687 31.901-65.746 36.787-107.172a25.903 25.903 0 0 0-6.938-20.909A25.986 25.986 0 0 0 446.548.052c-1.955.125-48.416 3.337-95.661 28.796-32.817 17.683-60.407 46.872-79.996 84.037-3.944-8.079-8.321-15.809-13.101-23.076-16.253-24.71-37.375-44.962-62.777-60.195C146.19.337 98.487 0 96.481 0c-3.371 0-12.324 0-20.03 7.71a26.06 26.06 0 0 0-7.589 19.213c1.12 34.354 8.917 65.355 23.176 92.141a7.61 7.61 0 0 0 13.434-7.152c-13.157-24.715-20.357-53.476-21.4-85.487a10.797 10.797 0 0 1 3.143-7.957c3.247-3.249 7.015-3.249 9.267-3.249 1.835 0 45.453.313 90.705 27.448 23.427 14.046 42.902 32.722 57.889 55.504 6.6 10.035 12.399 21.027 17.244 32.673a267.467 267.467 0 0 0-7.165 18.512 333.386 333.386 0 0 0-4.97 16.022l-23.402-22.821-10.437-52.006a7.61 7.61 0 1 0-14.922 2.994l6.059 30.191-21.827-21.284-10.58-52.719a7.61 7.61 0 0 0-14.922 2.994l6.202 30.906-50.93-49.665a7.61 7.61 0 0 0-10.761.136 7.609 7.609 0 0 0 .136 10.76l56.003 54.611-39.067-.668c-4.199-.115-7.667 3.276-7.739 7.479a7.61 7.61 0 0 0 7.479 7.739l55.215.944 25.98 25.334-39.665-.677c-4.164-.093-7.667 3.276-7.739 7.479a7.61 7.61 0 0 0 7.479 7.739l55.813.953 27.208 26.531a478.1 478.1 0 0 0-5.092 24.13c-16.494-3.639-39.117-10.378-61.981-22.697-11.534-6.215-22.269-13.423-31.906-21.421a7.608 7.608 0 0 0-10.715.994 7.609 7.609 0 0 0 .994 10.715c10.411 8.643 21.988 16.418 34.407 23.109 24.703 13.312 49.077 20.492 66.65 24.32-3.434 22.108-6.101 48.257-6.929 78.259-28.712 7.148-53.338 26.486-66.939 53.475-2.008-.152-55.376-5.896-78.993 47.741a47.66 47.66 0 0 0-16.711-3.021c-26.278 0-47.658 21.379-47.658 47.658s21.379 47.658 47.658 47.658a47.72 47.72 0 0 0 28.773-9.676A79.357 79.357 0 0 0 158.25 512c19.743 0 38.316-7.12 52.894-20.161 13.919 6.758 29.313 10.31 44.858 10.31s30.939-3.551 44.858-10.31C315.437 504.881 334.011 512 353.754 512a79.356 79.356 0 0 0 60.924-28.428 47.715 47.715 0 0 0 28.773 9.676c26.278 0 47.658-21.379 47.658-47.658s-21.381-47.656-47.659-47.656zM269.553 154.283c17.563-50.942 49.012-90.731 88.554-112.038 44.347-23.898 87.589-26.89 89.395-27.004a10.766 10.766 0 0 1 8.501 3.34 10.727 10.727 0 0 1 2.873 8.661c-4.606 39.056-16.176 72.901-34.39 100.593-14.985 22.782-34.461 41.457-57.888 55.505-38.207 22.91-76.005 26.69-86.681 27.302a7.61 7.61 0 0 0-7.059 6.279c-4.471 25.426-7.192 52.37-8.146 80.164a102.788 102.788 0 0 0-8.714-.385c-3.197 0-6.368.163-9.51.455 2.417-74.6 16.836-124.53 23.065-142.872zM443.45 478.03a32.488 32.488 0 0 1-24.162-10.803 7.627 7.627 0 0 0-6.211-2.512 7.605 7.605 0 0 0-5.789 3.37c-11.974 17.969-31.986 28.696-53.535 28.696-17.51 0-33.884-6.929-46.107-19.51a7.603 7.603 0 0 0-5.462-2.307 7.604 7.604 0 0 0-3.699.961c-12.933 7.201-27.624 11.007-42.483 11.007-14.859 0-29.55-3.806-42.483-11.007a7.609 7.609 0 0 0-9.16 1.346c-12.222 12.581-28.597 19.51-46.107 19.51-21.548 0-41.561-10.727-53.535-28.696a7.611 7.611 0 0 0-5.789-3.37 7.641 7.641 0 0 0-6.211 2.512 32.487 32.487 0 0 1-24.162 10.803c-17.887 0-32.439-14.552-32.439-32.439s14.552-32.439 32.439-32.439a32.35 32.35 0 0 1 16.951 4.78 7.612 7.612 0 0 0 11.262-4.259c8.313-27.198 33.022-45.471 61.484-45.471 3.135 0 6.32.234 9.464.699a7.617 7.617 0 0 0 8.084-4.481c13.941-31.895 45.424-52.503 80.203-52.503s66.262 20.609 80.203 52.503a7.613 7.613 0 0 0 8.084 4.481 64.921 64.921 0 0 1 9.464-.699c28.462 0 53.171 18.273 61.484 45.471a7.61 7.61 0 0 0 11.262 4.259 32.352 32.352 0 0 1 16.951-4.78c17.887 0 32.439 14.552 32.439 32.439.002 17.888-14.553 32.439-32.44 32.439z"/></svg>