<svg height="100" width="100" xmlns="http://www.w3.org/2000/svg"><circle cx="50" cy="50" fill="#139BD0" r="45"/><path clip-rule="evenodd" d="M51.474 60.754c-1.733 1.688-3.451 3.348-5.153 5.021-.595.586-1.264.91-2.118.865-.583-.031-.909-.287-1.088-.84-1.304-4.047-2.627-8.084-3.924-12.135-.126-.393-.312-.584-.71-.707a843.741 843.741 0 0 1-9.199-2.871c-.471-.15-.946-.346-1.353-.623-.629-.426-.721-1.121-.157-1.621a6.227 6.227 0 0 1 1.789-1.119c3.755-1.488 7.53-2.928 11.299-4.381 9.565-3.693 19.13-7.383 28.696-11.076 1.819-.703 3.217.287 3.028 2.254-.121 1.258-.447 2.496-.71 3.738a26979.26 26979.26 0 0 1-6.244 29.42c-.496 2.328-2.131 2.936-4.047 1.523-3.209-2.365-6.415-4.738-9.622-7.107-.153-.111-.312-.218-.487-.341zm-7.203 2.978l.108-.029c.02-.092.049-.182.057-.273.206-2.223.424-4.445.603-6.672.04-.496.21-.848.583-1.182 2.958-2.645 5.898-5.307 8.844-7.963 3.261-2.941 6.523-5.879 9.772-8.832.201-.182.285-.492.423-.744-.306-.033-.634-.156-.912-.084-.379.098-.738.318-1.076.531-7.197 4.533-14.388 9.074-21.59 13.598-.407.256-.483.473-.328.92.531 1.525 1.014 3.064 1.515 4.6l2.001 6.13z" fill="#FFF" fill-rule="evenodd"/></svg>