<svg xmlns="http://www.w3.org/2000/svg" viewBox="0 0 512.002 512.002"><path d="M15.795 496.199c-44.058-239.642 106.323-342.658 106.323-342.658l120.573 66.479 49.303 49.293 44.491 80.709 21.978 39.875S255.447 540.268 15.795 496.199z" fill="#92949b"/><path d="M15.795 496.199c171.443 0 320.691-146.178 320.691-146.178l21.978 39.875c-.001.001-103.017 150.372-342.669 106.303zm325.22-275.903l-49.306-49.306-133.126 133.127c-13.615 13.615-13.615 35.691 0 49.306 13.615 13.615 35.691 13.615 49.306 0l133.126-133.127z" fill="#b5b6ba"/><path d="M490.082 90.606c18.959-18.969 18.959-49.715 0-68.674-9.49-9.49-21.916-14.229-34.342-14.229-12.426 0-24.852 4.74-34.342 14.229L282.021 161.31l24.667 24.667 44.017 44.007L490.082 90.606zm-51.889-43.564c5.78-5.77 14.353-7.037 21.349-3.781a18.746 18.746 0 0 1 5.42 3.781c7.388 7.388 7.388 19.371 0 26.769-7.388 7.388-19.371 7.388-26.769 0a18.792 18.792 0 0 1-5.296-10.376c-.927-5.8.835-11.931 5.296-16.393z" fill="#e8b33f"/><path d="M306.688 185.977l-24.667-24.667L421.398 21.932c9.49-9.49 21.916-14.229 34.342-14.229 12.426 0 24.852 4.74 34.342 14.229 0 0-11.963 7.738-30.54 21.329-6.996-3.256-15.569-1.989-21.349 3.781-4.461 4.461-6.223 10.592-5.296 16.393-37.835 29.654-87.231 72.703-124.901 120.893-.433.557-.876 1.113-1.308 1.649z" fill="#d39f37"/><path d="M495.541 16.463c-21.946-21.947-57.657-21.948-79.604 0L276.56 155.841a7.727 7.727 0 0 0 0 10.928l4.22 4.22-39.45 39.451-115.484-63.667a7.724 7.724 0 0 0-8.099.392c-1.594 1.092-39.42 27.401-72.01 83.984-19.072 33.114-32.368 69.796-39.519 109.027-8.908 48.873-8.243 101.837 1.976 157.421a7.728 7.728 0 0 0 6.203 6.204C44.117 509.266 73.083 512 101.08 512c24.366 0 48.001-2.071 70.744-6.216 39.233-7.149 75.916-20.443 109.03-39.516 56.585-32.588 82.893-70.414 83.985-72.009a7.728 7.728 0 0 0 .392-8.099l-63.668-115.486 39.45-39.45 4.22 4.22c1.508 1.508 3.487 2.264 5.464 2.264s3.956-.754 5.464-2.264l58.83-58.83a7.727 7.727 0 0 0 0-10.928 7.727 7.727 0 0 0-10.928 0l-53.365 53.365-57.747-57.747L426.866 27.392c7.712-7.712 17.966-11.959 28.873-11.959s21.162 4.248 28.874 11.959c15.921 15.921 15.921 41.827 0 57.747l-64.576 64.576a7.727 7.727 0 0 0 0 10.928 7.727 7.727 0 0 0 10.928 0l64.576-64.576c21.947-21.946 21.948-57.656 0-79.604zM330.086 220.296L202.425 347.958c-10.581 10.581-27.797 10.58-38.378 0-5.126-5.126-7.948-11.94-7.948-19.19 0-7.249 2.822-14.062 7.948-19.189l48.732-48.732a7.727 7.727 0 0 0 0-10.928 7.727 7.727 0 0 0-10.928 0l-48.732 48.732c-8.045 8.045-12.475 18.74-12.475 30.117 0 11.377 4.431 22.072 12.475 30.118s18.74 12.475 30.118 12.475 22.072-4.431 30.117-12.475l76.835-76.835 59.094 107.19c-7.986 10.113-33.086 38.993-76.852 64.043-31.55 18.058-66.517 30.639-103.931 37.395-45.332 8.186-94.44 7.801-146.043-1.139-8.936-51.6-9.321-100.706-1.133-146.037 6.757-37.413 19.34-72.379 37.398-103.928 25.054-43.771 53.939-68.872 64.043-76.852l107.188 59.094-12.129 12.129a7.727 7.727 0 0 0 0 10.928 7.727 7.727 0 0 0 10.928 0l62.956-62.956 38.378 38.378z"/><path d="M470.427 79.272c10.392-10.392 10.392-27.303 0-37.694-10.392-10.392-27.303-10.391-37.694 0-10.392 10.392-10.392 27.303 0 37.694 5.196 5.196 12.021 7.795 18.847 7.795 6.825 0 13.651-2.599 18.847-7.795zm-30.045-18.847a11.12 11.12 0 0 1 3.28-7.918c2.183-2.183 5.051-3.275 7.919-3.275s5.735 1.092 7.918 3.275c4.367 4.367 4.367 11.471 0 15.838-2.115 2.115-4.927 3.28-7.918 3.28s-5.804-1.164-7.919-3.28a11.125 11.125 0 0 1-3.28-7.92z"/></svg>