<svg xmlns="http://www.w3.org/2000/svg" viewBox="0 0 511.999 511.999"><path d="M441.465 177.58H51.644c-9.624 0-17.425 7.801-17.425 17.425v46.807H458.89v-46.807c0-9.624-7.801-17.425-17.425-17.425z" fill="#ffb125"/><path d="M299.941 80.811l-35.302 357.378c-.887 8.977-8.883 15.536-17.86 14.649L67.908 435.169c-8.977-.887-15.536-8.883-14.649-17.86L88.561 59.931c.887-8.977 8.883-15.536 17.86-14.649l178.871 17.669c8.977.887 15.536 8.883 14.649 17.86z" fill="#b6fa4c"/><path d="M285.292 62.951L106.421 45.282c-8.977-.887-16.974 5.672-17.86 14.649l-3.167 32.063a16.24 16.24 0 0 1 8.985-1.697l178.871 17.669c8.977.887 15.536 8.883 14.649 17.86l-32.135 325.315c4.804-2.441 8.307-7.192 8.876-12.952l35.302-357.377c.886-8.978-5.673-16.974-14.65-17.861z" fill="#a8e83a"/><path d="M107.52 110.606L81.766 371.322c-.369 3.732 1.389 7.369 4.571 9.352a47.898 47.898 0 0 1 19.292 23.3c1.341 3.461 4.546 5.848 8.239 6.213l92.726 9.16c3.694.365 7.303-1.349 9.296-4.481a47.9 47.9 0 0 1 23.478-19.075c3.509-1.323 5.944-4.546 6.312-8.277l25.754-260.716c.369-3.732-1.389-7.369-4.571-9.352a47.898 47.898 0 0 1-19.292-23.3c-1.341-3.461-4.546-5.848-8.239-6.213l-92.726-9.16c-3.694-.365-7.303 1.349-9.296 4.481a47.9 47.9 0 0 1-23.478 19.075c-3.509 1.323-5.944 4.545-6.312 8.277z" fill="#7d0"/><path d="M266.863 117.445a47.898 47.898 0 0 1-19.292-23.3c-1.341-3.461-4.546-5.848-8.239-6.213l-92.726-9.16c-3.694-.365-7.303 1.349-9.296 4.481a47.9 47.9 0 0 1-23.478 19.075c-3.509 1.323-5.943 4.546-6.312 8.277l-.98 9.925 120.147 11.498c3.694.365 6.898 2.752 8.239 6.213a47.902 47.902 0 0 0 19.292 23.3c3.182 1.984 4.939 5.621 4.571 9.352l-22.336 226.118a47.546 47.546 0 0 1 2.916-1.221c3.509-1.323 5.944-4.546 6.312-8.277l25.754-260.716c.367-3.731-1.39-7.368-4.572-9.352z" fill="#73cc00"/><path d="M451.605 134.056l-202.234 296.76c-5.08 7.455-15.241 9.379-22.696 4.299L78.144 333.895c-7.455-5.08-9.379-15.241-4.299-22.696l202.234-296.76c5.08-7.455 15.241-9.379 22.696-4.299l148.531 101.22c7.454 5.08 9.379 15.241 4.299 22.696z" fill="#b6fa4c"/><path d="M447.306 111.36L298.774 10.139c-7.455-5.08-17.616-3.155-22.696 4.299L258.78 39.823c1.501.47 2.96 1.161 4.328 2.092l148.531 101.22c7.455 5.08 9.379 15.241 4.299 22.696L231.003 437.207c6.684 2.091 14.22-.305 18.368-6.392l202.234-296.76c5.08-7.454 3.155-17.615-4.299-22.695z" fill="#a8e83a"/><path d="M268.437 68.002L120.902 284.496c-2.112 3.099-2.312 7.133-.47 10.399a47.897 47.897 0 0 1 5.768 29.695c-.481 3.68 1.187 7.311 4.254 9.402l76.998 52.472c3.067 2.09 7.057 2.315 10.306.521a47.894 47.894 0 0 1 29.747-5.492c3.714.52 7.395-1.142 9.507-4.241l147.535-216.494c2.112-3.099 2.312-7.133.47-10.399a47.897 47.897 0 0 1-5.768-29.695c.481-3.68-1.187-7.311-4.254-9.402L317.997 58.79c-3.067-2.09-7.057-2.315-10.306-.521a47.894 47.894 0 0 1-29.747 5.492c-3.714-.52-7.396 1.142-9.507 4.241z" fill="#7d0"/><path d="M405.017 150.359a47.895 47.895 0 0 1-5.768-29.695c.481-3.68-1.187-7.311-4.254-9.402L317.997 58.79c-3.067-2.09-7.057-2.315-10.306-.521a47.893 47.893 0 0 1-29.747 5.492c-3.714-.52-7.395 1.142-9.507 4.241l-6.149 9.023 96.23 64.866c3.067 2.09 4.736 5.721 4.254 9.402a47.895 47.895 0 0 0 5.768 29.695c1.842 3.266 1.642 7.3-.47 10.399l-129.275 189.7a47.705 47.705 0 0 1 8.711.405c3.714.52 7.395-1.142 9.507-4.24l147.535-216.494c2.111-3.099 2.312-7.133.469-10.399z" fill="#73cc00"/><circle cx="285.32" cy="202.57" r="52.839" fill="#b6fa4c"/><path d="M447.502 504.705H40.435c-13.879 0-25.13-11.251-25.13-25.13V230.88c0-13.879 11.251-25.13 25.13-25.13h407.067c13.879 0 25.13 11.251 25.13 25.13v248.695c.001 13.878-11.251 25.13-25.13 25.13z" fill="#ffb125"/><path d="M447.502 205.749h-45.718c13.879 0 25.13 11.251 25.13 25.131v248.695c0 13.879-11.251 25.13-25.13 25.13h45.718c13.879 0 25.13-11.251 25.13-25.13V230.88c.001-13.88-11.251-25.131-25.13-25.131z" fill="#ff901d"/><path d="M487.591 307.189h-91.62c-26.53 0-48.037 21.507-48.037 48.037 0 26.53 21.507 48.037 48.037 48.037h91.62a9.105 9.105 0 0 0 9.105-9.105v-77.865c0-5.027-4.077-9.104-9.105-9.104z" fill="#ff6d3a"/><path d="M487.59 307.189h-45.88a9.105 9.105 0 0 1 9.105 9.105v65.587c0 5.363-4.348 9.71-9.71 9.71h-45.134c-24.553 0-44.79-18.425-47.672-42.201a48.443 48.443 0 0 0-.365 5.836c0 26.53 21.507 48.038 48.038 48.038h91.619a9.104 9.104 0 0 0 9.105-9.105v-77.865a9.106 9.106 0 0 0-9.106-9.105z" fill="#ed5729"/><path d="M447.502 205.749H40.435c-13.879 0-25.13 11.251-25.13 25.13v27.539h457.328v-27.539c0-13.879-11.252-25.13-25.131-25.13z" fill="#ff6d3a"/><path d="M468.341 216.829a25.238 25.238 0 0 0-3.069-3.719l-.041-.039a25.246 25.246 0 0 0-4.699-3.684c-.514-.312-1.044-.6-1.581-.876a25.03 25.03 0 0 0-11.45-2.763h-45.716c13.878.001 25.128 11.252 25.128 25.131v27.539h45.718V230.88a25.025 25.025 0 0 0-4.29-14.051z" fill="#ed5729"/><path d="M40.435 504.705h407.067c13.879 0 25.13-11.251 25.13-25.13v-27.539H15.304v27.539c0 13.878 11.252 25.13 25.131 25.13z" fill="#ff6d3a"/><path d="M426.915 452.035v27.582c-.004 2.32-1.947 4.174-4.267 4.174H40.435c-13.879 0-25.13-11.251-25.13-25.13v20.914c0 13.879 11.251 25.13 25.13 25.13h407.068c.496 0 .988-.018 1.477-.047.153-.009.304-.023.456-.035a24.303 24.303 0 0 0 2.516-.32c.147-.026.294-.05.44-.079.468-.092.932-.194 1.389-.311h.002c.201-.052.398-.113.596-.169a24.93 24.93 0 0 0 2.905-1.014 25.361 25.361 0 0 0 2.197-1.058l.001-.001a25.118 25.118 0 0 0 2.07-1.257l.001-.001.001-.001a25.068 25.068 0 0 0 1.651-1.224l.076-.06a25.353 25.353 0 0 0 3.256-3.156v-.001a25.26 25.26 0 0 0 2.338-3.18c.251-.405.494-.815.722-1.235l.002-.003v-.001a25.145 25.145 0 0 0 1.564-3.503c.05-.138.094-.279.142-.418a24.365 24.365 0 0 0 .675-2.378c.034-.147.071-.293.102-.441.098-.464.187-.93.26-1.403l.001-.008v-.004c.084-.552.144-1.112.191-1.675a25.753 25.753 0 0 0 .098-2.147v-27.539h-45.717v-.001z" fill="#ed5729"/><circle cx="397.68" cy="355.23" r="22.304" fill="#f2f2f2"/><path d="M487.59 299.894h-7.662V230.88c0-10.926-5.438-20.6-13.743-26.478v-9.397c0-13.631-11.089-24.72-24.72-24.72h-5.721l21.889-32.12c7.337-10.766 4.547-25.495-6.219-32.833L302.883 4.111C297.668.556 291.382-.756 285.178.421a23.474 23.474 0 0 0-15.128 9.91L141.849 198.454h-35.675l8.607-87.13c.097-.982.735-1.833 1.625-2.168 11.089-4.181 20.699-11.989 27.059-21.985.501-.787 1.446-1.237 2.424-1.138l55.955 5.528a7.295 7.295 0 1 0 1.434-14.52l-55.955-5.528c-6.495-.636-12.689 2.357-16.169 7.825-4.676 7.35-11.742 13.09-19.895 16.164-6.137 2.314-10.351 7.826-10.999 14.387l-8.748 88.564h-9.303L95.821 60.649c.49-4.96 4.917-8.604 9.883-8.107l113.074 11.17a7.295 7.295 0 1 0 1.434-14.52l-113.074-11.17C94.174 36.743 82.581 46.248 81.3 59.214l-10.972 111.07H51.643c-13.63 0-24.72 11.089-24.72 24.72v6.41c-11.151 5.134-18.915 16.406-18.915 29.465v248.694c0 17.88 14.546 32.426 32.427 32.426h407.067c17.88 0 32.426-14.546 32.426-32.426V410.56h7.662c9.044 0 16.401-7.357 16.401-16.4v-77.865c.001-9.044-7.357-16.401-16.401-16.401zm-46.125-115.019c5.586 0 10.129 4.544 10.129 10.13v3.717a32.512 32.512 0 0 0-4.092-.267h-30.955l9.253-13.579h15.665v-.001zM282.107 18.547a8.984 8.984 0 0 1 5.787-3.791 8.98 8.98 0 0 1 6.772 1.411l148.531 101.22c4.118 2.807 5.186 8.441 2.38 12.559l-46.686 68.506h-11.204l22.889-33.587c3.712-5.447 4.018-12.379.796-18.092-4.282-7.59-6.018-16.527-4.888-25.166.84-6.427-1.988-12.701-7.38-16.375L322.106 52.76c-5.393-3.675-12.267-4.012-17.941-.879-7.625 4.21-16.578 5.863-25.208 4.655-6.4-.898-12.891 1.992-16.548 7.357l-91.699 134.56h-11.204L282.107 18.547zm3.213 123.891c-31.771 0-57.851 24.773-59.976 56.015h-36.979L274.464 72.11h.001a2.605 2.605 0 0 1 2.133-1.147c.111 0 .222.008.333.023 11.738 1.642 23.913-.604 34.285-6.331.816-.452 1.864-.387 2.672.163l76.999 52.473c.806.55 1.249 1.502 1.129 2.426-1.537 11.749.825 23.903 6.648 34.225.467.829.41 1.891-.144 2.706l-28.488 41.804h-24.733c-2.127-31.241-28.206-56.014-59.979-56.014zm45.348 56.016h-90.695c2.09-23.189 21.624-41.424 45.347-41.424 23.724-.001 43.259 18.235 45.348 41.424zm-289.154-3.45c0-5.586 4.543-10.13 10.129-10.13h17.244l-1.341 13.579H41.514v-3.449zm-18.915 35.875c0-9.834 8.001-17.835 17.836-17.835h407.067c9.835 0 17.835 8.001 17.835 17.835v20.244H22.599v-20.244zM465.337 444.74H108.655a7.295 7.295 0 1 0 0 14.59h356.682v20.244c0 9.834-8 17.835-17.835 17.835H40.435c-9.835 0-17.836-8.001-17.836-17.835V459.33h39.342a7.295 7.295 0 1 0 0-14.59H22.599V265.714h442.738v34.18H395.97c-21.856 0-40.788 12.74-49.773 31.181-.03.062-.064.122-.095.184-.076.157-.142.32-.216.478-1.07 2.273-2 4.626-2.757 7.054l-.006.02a55.151 55.151 0 0 0-2.486 16.416c0 30.511 24.822 55.333 55.332 55.333h69.367v34.18h.001zm24.064-50.581c0 .998-.812 1.81-1.811 1.81h-91.619c-15.445 0-28.911-8.639-35.818-21.338a40.21 40.21 0 0 1-2.448-5.41 40.546 40.546 0 0 1-2.476-13.994 40.57 40.57 0 0 1 4.023-17.648c.287-.593.587-1.179.901-1.756 6.907-12.699 20.373-21.338 35.818-21.338h91.619c.998 0 1.811.812 1.811 1.81v77.864z"/><path d="M397.681 325.627c-16.322 0-29.6 13.279-29.6 29.6s13.278 29.599 29.6 29.599 29.6-13.278 29.6-29.599-13.278-29.6-29.6-29.6zm0 44.608c-8.276 0-15.009-6.733-15.009-15.008s6.733-15.009 15.009-15.009 15.009 6.733 15.009 15.009-6.733 15.008-15.009 15.008z"/></svg>