<svg xmlns="http://www.w3.org/2000/svg" viewBox="0 0 512.001 512.001"><circle cx="48.216" cy="343.813" r="40.62" fill="#5f4d37"/><path d="M48.216 369.239c-14.022 0-25.429-11.408-25.429-25.429 0-14.023 11.408-25.43 25.429-25.43 14.023 0 25.43 11.408 25.43 25.43s-11.408 25.429-25.43 25.429z" fill="#b39a7c"/><path fill="#e0e0e2" d="M57.107 186.159l350.534-27.157-13.161 108.28-288.067 62.899z"/><path d="M57.107 186.159l49.306 144.022 74.462-16.259-45.808-133.803zm189.01 87.889a7.598 7.598 0 0 1-7.456-6.195 7.593 7.593 0 0 1 6.063-8.866l77.209-14.493a7.593 7.593 0 0 1 8.866 6.063 7.593 7.593 0 0 1-6.063 8.866l-77.209 14.493a7.624 7.624 0 0 1-1.41.132z" fill="#c6c5ca"/><path d="M469.224 161.117l10.841-25.792c2.709-6.446 10.132-9.474 16.575-6.765 6.446 2.709 9.474 10.13 6.765 16.574l-11.106 26.281-23.075-10.298z" fill="#ff728b"/><path d="M510.487 132.577a20.12 20.12 0 0 0-10.904-11.018 20.138 20.138 0 0 0-7.842-1.585 20.214 20.214 0 0 0-18.677 12.41l-10.841 25.791a7.596 7.596 0 0 0 3.906 9.879l4.841 2.16-38.079 81.031-29.602 6.525 3.43-28.218a7.597 7.597 0 0 0-6.623-8.457c-4.164-.501-7.951 2.459-8.457 6.623l-4.074 33.518-275.907 60.815-45.165-131.923L399.28 164.84l-2.812 23.138a7.597 7.597 0 0 0 6.623 8.457c.312.037 7.596-.341 8.457-6.623l3.178-26.145 15.019-1.141a7.596 7.596 0 0 0 6.998-8.149 7.59 7.59 0 0 0-8.149-6.998L35.993 177.211a7.596 7.596 0 0 0 1.151 15.148l13.7-1.041L96.728 325.34l-3.662.807c-7.064-17.871-24.498-30.552-44.85-30.552C21.629 295.594 0 317.223 0 343.81c0 7.381 1.626 14.468 4.834 21.064a7.595 7.595 0 0 0 13.661-6.641c-2.193-4.512-3.304-9.363-3.304-14.423 0-18.209 14.815-33.024 33.025-33.024 13.076 0 24.401 7.64 29.748 18.69l-31.383 6.918c-4.096.903-6.93 5.017-5.783 9.052 2.022 7.112 8.502 5.904 9.052 5.783l31.375-6.916a33.009 33.009 0 0 1-14.55 26.887 7.595 7.595 0 0 0 4.258 13.89c1.462 0 2.998-.343 4.244-1.302 22.836-17.559 21.218-41.87 21.164-42.807l141.537-31.197L364.57 390.83a7.594 7.594 0 0 0 11.446-4.497l29.347-113.467 34.446-7.592a7.597 7.597 0 0 0 5.24-4.188l39.794-84.682 4.36 1.946c.984.44 6.973 1.539 10.092-3.979l11.112-26.295a20.109 20.109 0 0 0 .08-15.499zM363.933 372.388l-105.09-67.226 129.882-28.628-24.792 95.854zm132.476-230.211l-8.089 19.143-9.214-4.113 7.961-18.941c.793-1.886 3.117-3.95 6.63-2.706 3.828 1.358 3.23 5.385 2.712 6.617z"/><path d="M46.194 376.775a32.578 32.578 0 0 1-14.494-4.359 7.596 7.596 0 0 0-7.611 13.147 48.302 48.302 0 0 0 21.193 6.374 7.594 7.594 0 0 0 8.037-7.126 7.595 7.595 0 0 0-7.125-8.036z"/></svg>